<?xml version="1.0" standalone="no"?>
 <!DOCTYPE svg PUBLIC "-//W3C//DTD SVG 1.1//EN" 
 "http://www.w3.org/Graphics/SVG/1.1/DTD/svg11.dtd"> 
<svg
  xmlns:svg="http://www.w3.org/2000/svg"
  xmlns="http://www.w3.org/2000/svg"
  xmlns:xlink="http://www.w3.org/1999/xlink"
  version="1.1"
  width="14.150340cm" height="11.742420cm" viewBox="0 0 55710 46230">
<title>SVG Picture created as Kimiko-brd.svg date 2021/05/15 14:20:11 </title>
  <desc>Picture generated by PCBNEW </desc>
<g style="fill:#000000; fill-opacity:1;stroke:#000000; stroke-opacity:1;
stroke-linecap:round; stroke-linejoin:round;"
 transform="translate(0 0) scale(1 1)">
</g>
<g style="fill:#000000; fill-opacity:0.0; 
stroke:#000000; stroke-width:-0.000393701; stroke-opacity:1; 
stroke-linecap:round; stroke-linejoin:round;">
</g>
<g style="fill:#000000; fill-opacity:0.0; 
stroke:#000000; stroke-width:59.0551; stroke-opacity:1; 
stroke-linecap:round; stroke-linejoin:round;">
<circle cx="48195.1" cy="13237.5" r="462.778" /> 
<circle cx="48195.1" cy="28198.1" r="462.158" /> 
<circle cx="8915.56" cy="33926.5" r="464.834" /> 
<circle cx="17880.1" cy="25052.5" r="466.664" /> 
<circle cx="17880.1" cy="10087.9" r="463.046" /> 
</g>
<g style="fill:#000000; fill-opacity:0.0; 
stroke:#000000; stroke-width:78.7402; stroke-opacity:1; 
stroke-linecap:round; stroke-linejoin:round;">
<path d="M10526 25340
L433 25340
" />
<path d="M433 25340
L353 25348
" />
<path d="M353 25348
L262 25379
" />
<path d="M262 25379
L182 25430
" />
<path d="M182 25430
L117 25498
" />
<path d="M117 25498
L70 25581
" />
<path d="M70 25581
L43 25674
" />
<path d="M43 25674
L39 25734
" />
<path d="M10921 24945
L10913 25025
" />
<path d="M10913 25025
L10882 25116
" />
<path d="M10882 25116
L10831 25197
" />
<path d="M10831 25197
L10762 25262
" />
<path d="M10762 25262
L10679 25309
" />
<path d="M10679 25309
L10586 25336
" />
<path d="M10586 25336
L10526 25340
" />
<path d="M10921 3189
L10921 24945
" />
<path d="M11315 2795
L11235 2803
" />
<path d="M11235 2803
L11144 2834
" />
<path d="M11144 2834
L11064 2885
" />
<path d="M11064 2885
L10999 2953
" />
<path d="M10999 2953
L10952 3035
" />
<path d="M10952 3035
L10925 3129
" />
<path d="M10925 3129
L10921 3189
" />
</g>
<g style="fill:#000000; fill-opacity:0.0; 
stroke:#000000; stroke-width:59.0551; stroke-opacity:1; 
stroke-linecap:round; stroke-linejoin:round;">
<path d="M49179 11858
L49179 7133
" />
<path d="M49574 14219
L54298 14219
" />
<path d="M54297 12251
L49572 12251
" />
<path d="M54692.1 14613.7 A393.701 393.701 0.0 0 0 54298.4 14220" />
<path d="M54690 29575
L54690 34300
" />
<path d="M49178 34300
L49178 29575
" />
<path d="M54296 34693
L49572 34693
" />
<path d="M54296.5 34694 A393.701 393.701 0.0 0 0 54690.2 34300.3" />
<path d="M49178.4 34300.3 A393.701 393.701 0.0 0 0 49572.1 34694" />
<path d="M49572 29182
L54296 29182
" />
<path d="M49572.1 29182.2 A393.701 393.701 0.0 0 0 49178.4 29575.9" />
<path d="M54690.2 29575.9 A393.701 393.701 0.0 0 0 54296.5 29182.2" />
<path d="M49574 14220 A393.701 393.701 0.0 0 0 49180.3 14613.7" />
<path d="M49572 6740
L54297 6740
" />
<path d="M49572.8 6740.06 A393.701 393.701 0.0 0 0 49179.1 7133.76" />
<path d="M54691 7133.76 A393.701 393.701 0.0 0 0 54297.2 6740.06" />
<path d="M54690 7133
L54690 11858
" />
<path d="M54297.2 12251.9 A393.701 393.701 0.0 0 0 54691 11858.2" />
<path d="M49179.1 11858.2 A393.701 393.701 0.0 0 0 49572.8 12251.9" />
<path d="M49180 19338
L49180 14613
" />
<path d="M54692 14613
L54692 19338
" />
<path d="M49180.3 19338.1 A393.701 393.701 0.0 0 0 49574 19731.8" />
<path d="M54298 19731
L49574 19731
" />
<path d="M54298.4 19731.8 A393.701 393.701 0.0 0 0 54692.1 19338.1" />
<path d="M54298 27212
L49574 27212
" />
<path d="M49180 26818
L49180 22094
" />
<path d="M54298.4 27212.5 A393.701 393.701 0.0 0 0 54692.1 26818.8" />
<path d="M49180.3 26818.8 A393.701 393.701 0.0 0 0 49574 27212.5" />
<path d="M49574 21700
L54298 21700
" />
<path d="M49574 21700.7 A393.701 393.701 0.0 0 0 49180.3 22094.4" />
<path d="M54692.1 22094.4 A393.701 393.701 0.0 0 0 54298.4 21700.7" />
<path d="M54692 22094
L54692 26818
" />
<path d="M42092.9 21700.3 A393.701 393.701 0.0 0 0 41699.2 22094" />
<path d="M47211 22094 A393.701 393.701 0.0 0 0 46817.3 21700.3" />
<path d="M41698 11859
L41698 7134
" />
<path d="M46816 12253
L42091 12253
" />
<path d="M46817.3 27212.1 A393.701 393.701 0.0 0 0 47211 26818.4" />
<path d="M42091 6741
L46816 6741
" />
<path d="M42091.7 6741.24 A393.701 393.701 0.0 0 0 41698 7134.94" />
<path d="M46816.1 12253 A393.701 393.701 0.0 0 0 47209.8 11859.3" />
<path d="M41698 11859.3 A393.701 393.701 0.0 0 0 42091.7 12253" />
<path d="M41699 26818
L41699 22093
" />
<path d="M46817 27212
L42092 27212
" />
<path d="M41699.2 26818.4 A393.701 393.701 0.0 0 0 42092.9 27212.1" />
<path d="M42092 21700
L46817 21700
" />
<path d="M47209.8 7134.94 A393.701 393.701 0.0 0 0 46816.1 6741.24" />
<path d="M47209 7134
L47209 11859
" />
<path d="M42092 29182
L46817 29182
" />
<path d="M46819.3 19734.1 A393.701 393.701 0.0 0 0 47213 19340.4" />
<path d="M42094 14222
L46819 14222
" />
<path d="M47211 29576.7 A393.701 393.701 0.0 0 0 46817.3 29183" />
<path d="M41701.2 19340.4 A393.701 393.701 0.0 0 0 42094.9 19734.1" />
<path d="M41699 34301
L41699 29576
" />
<path d="M42094.9 14222.3 A393.701 393.701 0.0 0 0 41701.2 14616" />
<path d="M46817 34694
L42092 34694
" />
<path d="M47211 29576
L47211 34301
" />
<path d="M47213 14616 A393.701 393.701 0.0 0 0 46819.3 14222.3" />
<path d="M41699.2 34301.1 A393.701 393.701 0.0 0 0 42092.9 34694.8" />
<path d="M46819 19734
L42094 19734
" />
<path d="M47212 14616
L47212 19340
" />
<path d="M41701 19340
L41701 14616
" />
<path d="M46817.3 34694.8 A393.701 393.701 0.0 0 0 47211 34301.1" />
<path d="M42092.9 29183 A393.701 393.701 0.0 0 0 41699.2 29576.7" />
<path d="M47211 22093
L47211 26818
" />
<path d="M32250.4 8905.02 A393.701 393.701 0.0 0 0 31856.7 8511.31" />
<path d="M31856 14023
L27132 14023
" />
<path d="M26738 13629
L26738 8905
" />
<path d="M32250 8905
L32250 13629
" />
<path d="M27132.3 8511.31 A393.701 393.701 0.0 0 0 26738.6 8905.02" />
<path d="M26738.6 13629.4 A393.701 393.701 0.0 0 0 27132.3 14023.1" />
<path d="M31856.7 14023.1 A393.701 393.701 0.0 0 0 32250.4 13629.4" />
<path d="M27132 23472
L31857 23472
" />
<path d="M27132.7 23472.7 A393.701 393.701 0.0 0 0 26739 23866.4" />
<path d="M26738 28590
L26738 23866
" />
<path d="M31857.1 28984.5 A393.701 393.701 0.0 0 0 32250.8 28590.8" />
<path d="M26739 28590.8 A393.701 393.701 0.0 0 0 27132.7 28984.5" />
<path d="M32250.8 23866.4 A393.701 393.701 0.0 0 0 31857.1 23472.7" />
<path d="M32250 23866
L32250 28590
" />
<path d="M31857 28984
L27132 28984
" />
<path d="M27133 15991
L31857 15991
" />
<path d="M26739 21109
L26739 16385
" />
<path d="M27132.7 1031.79 A393.701 393.701 0.0 0 0 26739 1425.49" />
<path d="M32250.8 1425.49 A393.701 393.701 0.0 0 0 31857.1 1031.79" />
<path d="M32250 1425
L32250 6149
" />
<path d="M26739.4 21109.7 A393.701 393.701 0.0 0 0 27133.1 21503.4" />
<path d="M32251 16385
L32251 21109
" />
<path d="M31857.1 6543.6 A393.701 393.701 0.0 0 0 32250.8 6149.9" />
<path d="M26738.2 36071.2 A393.701 393.701 0.0 0 0 27131.9 36464.9" />
<path d="M32250 31346
L32250 36071
" />
<path d="M27132 1031
L31857 1031
" />
<path d="M27131 30953
L31856 30953
" />
<path d="M32250 31346.7 A393.701 393.701 0.0 0 0 31856.3 30953" />
<path d="M31857 21503
L27133 21503
" />
<path d="M27133.1 15991.6 A393.701 393.701 0.0 0 0 26739.4 16385.3" />
<path d="M32251.2 16385.3 A393.701 393.701 0.0 0 0 31857.5 15991.6" />
<path d="M31857.5 21503.4 A393.701 393.701 0.0 0 0 32251.2 21109.7" />
<path d="M26738 36071
L26738 31346
" />
<path d="M31856 36464
L27131 36464
" />
<path d="M26739 6149.9 A393.701 393.701 0.0 0 0 27132.7 6543.6" />
<path d="M26738 6149
L26738 1425
" />
<path d="M27131.9 30953 A393.701 393.701 0.0 0 0 26738.2 31346.7" />
<path d="M31857 6543
L27132 6543
" />
<path d="M31856.3 36464.9 A393.701 393.701 0.0 0 0 32250 36071.2" />
<path d="M27132 8511
L31856 8511
" />
<path d="M39336 22882
L34611 22882
" />
<path d="M39336.2 22882.6 A393.701 393.701 0.0 0 0 39729.9 22488.9" />
<path d="M34218 22488
L34218 17764
" />
<path d="M34218.1 22488.9 A393.701 393.701 0.0 0 0 34611.8 22882.6" />
<path d="M34611 17370
L39336 17370
" />
<path d="M34611.8 17370.8 A393.701 393.701 0.0 0 0 34218.1 17764.5" />
<path d="M39729.9 17764.5 A393.701 393.701 0.0 0 0 39336.2 17370.8" />
<path d="M39729 17764
L39729 22488
" />
<path d="M34219 29968
L34219 25244
" />
<path d="M39731 2804
L39731 7528
" />
<path d="M34613 2410
L39337 2410
" />
<path d="M34613.4 24850.7 A393.701 393.701 0.0 0 0 34219.7 25244.4" />
<path d="M39731.5 25244.4 A393.701 393.701 0.0 0 0 39337.8 24850.7" />
<path d="M39337.8 30362.5 A393.701 393.701 0.0 0 0 39731.5 29968.8" />
<path d="M39336 15401
L34611 15401
" />
<path d="M39731 25244
L39731 29968
" />
<path d="M39337.8 7922.34 A393.701 393.701 0.0 0 0 39731.5 7528.64" />
<path d="M34219.7 7528.64 A393.701 393.701 0.0 0 0 34613.4 7922.34" />
<path d="M39337 30362
L34613 30362
" />
<path d="M39731.5 2804.23 A393.701 393.701 0.0 0 0 39337.8 2410.53" />
<path d="M34613.4 2410.53 A393.701 393.701 0.0 0 0 34219.7 2804.23" />
<path d="M39337 7922
L34613 7922
" />
<path d="M34219 7528
L34219 2804
" />
<path d="M34219.7 29968.8 A393.701 393.701 0.0 0 0 34613.4 30362.5" />
<path d="M34613 24850
L39337 24850
" />
<path d="M34218 15007
L34218 10282
" />
<path d="M39336.2 15401.1 A393.701 393.701 0.0 0 0 39729.9 15007.4" />
<path d="M34218.1 15007.4 A393.701 393.701 0.0 0 0 34611.8 15401.1" />
<path d="M34611 9889
L39336 9889
" />
<path d="M34611.8 9889.27 A393.701 393.701 0.0 0 0 34218.1 10283" />
<path d="M39729.9 10283 A393.701 393.701 0.0 0 0 39336.2 9889.27" />
<path d="M39729 10282
L39729 15007
" />
<path d="M34218 37448
L34218 32724
" />
<path d="M39336 37842
L34612 37842
" />
<path d="M39336.6 37842.4 A393.701 393.701 0.0 0 0 39730.3 37448.7" />
<path d="M34218.5 37448.7 A393.701 393.701 0.0 0 0 34612.2 37842.4" />
<path d="M34612 32330
L39336 32330
" />
<path d="M34612.2 32330.6 A393.701 393.701 0.0 0 0 34218.5 32724.3" />
<path d="M39730.3 32724.3 A393.701 393.701 0.0 0 0 39336.6 32330.6" />
<path d="M39730 32724
L39730 37448
" />
<path d="M19257.5 22488.1 A393.701 393.701 0.0 0 0 19651.2 22881.8" />
<path d="M19651 17369
L24375 17369
" />
<path d="M24375.6 22881.8 A393.701 393.701 0.0 0 0 24769.3 22488.1" />
<path d="M24769 17763
L24769 22488
" />
<path d="M19652 2408
L24376 2408
" />
<path d="M24770 2802
L24770 7526
" />
<path d="M24770.5 2802.26 A393.701 393.701 0.0 0 0 24376.8 2408.56" />
<path d="M24376.8 7920.37 A393.701 393.701 0.0 0 0 24770.5 7526.67" />
<path d="M19258 7526
L19258 2802
" />
<path d="M19652.4 2408.56 A393.701 393.701 0.0 0 0 19258.7 2802.26" />
<path d="M19257 22488
L19257 17763
" />
<path d="M19257 29968
L19257 25244
" />
<path d="M24376 15401
L19651 15401
" />
<path d="M19652 9889.27 A393.701 393.701 0.0 0 0 19258.3 10283" />
<path d="M24770.1 10283 A393.701 393.701 0.0 0 0 24376.4 9889.27" />
<path d="M24770 10282
L24770 15007
" />
<path d="M19653.2 32331.4 A393.701 393.701 0.0 0 0 19259.5 32725.1" />
<path d="M24771.3 32725.1 A393.701 393.701 0.0 0 0 24377.6 32331.4" />
<path d="M19259 37449
L19259 32725
" />
<path d="M19651 24850
L24375 24850
" />
<path d="M19651.2 24850.7 A393.701 393.701 0.0 0 0 19257.5 25244.4" />
<path d="M19258 15007
L19258 10282
" />
<path d="M24769.3 25244.4 A393.701 393.701 0.0 0 0 24375.6 24850.7" />
<path d="M24769 25244
L24769 29968
" />
<path d="M19651 9889
L24376 9889
" />
<path d="M24375 30362
L19651 30362
" />
<path d="M24771 32725
L24771 37449
" />
<path d="M24377 37843
L19653 37843
" />
<path d="M24377.6 37843.2 A393.701 393.701 0.0 0 0 24771.3 37449.5" />
<path d="M19259.5 37449.5 A393.701 393.701 0.0 0 0 19653.2 37843.2" />
<path d="M19653 32331
L24377 32331
" />
<path d="M24376.4 15401.1 A393.701 393.701 0.0 0 0 24770.1 15007.4" />
<path d="M19258.3 15007.4 A393.701 393.701 0.0 0 0 19652 15401.1" />
<path d="M24375.6 30362.5 A393.701 393.701 0.0 0 0 24769.3 29968.8" />
<path d="M19257.5 29968.8 A393.701 393.701 0.0 0 0 19651.2 30362.5" />
<path d="M19258.7 7526.67 A393.701 393.701 0.0 0 0 19652.4 7920.37" />
<path d="M24376 7920
L19652 7920
" />
<path d="M24375 22881
L19651 22881
" />
<path d="M19651.2 17370 A393.701 393.701 0.0 0 0 19257.5 17763.7" />
<path d="M24769.3 17763.7 A393.701 393.701 0.0 0 0 24375.6 17370" />
<path d="M12170.1 18748.7 A393.701 393.701 0.0 0 0 11776.4 19142.4" />
<path d="M16894.5 31739.3 A393.701 393.701 0.0 0 0 17288.2 31345.6" />
<path d="M11776 23866
L11776 19142
" />
<path d="M16894 24260
L12170 24260
" />
<path d="M17288.2 19142.4 A393.701 393.701 0.0 0 0 16894.5 18748.7" />
<path d="M17288 26621
L17288 31345
" />
<path d="M16894.5 24260.5 A393.701 393.701 0.0 0 0 17288.2 23866.8" />
<path d="M17288 19142
L17288 23866
" />
<path d="M16894 31739
L12170 31739
" />
<path d="M12172.8 11268 A393.701 393.701 0.0 0 0 11779.1 11661.7" />
<path d="M17290 11661
L17290 16386
" />
<path d="M16897 16779
L12172 16779
" />
<path d="M16897.2 16779.8 A393.701 393.701 0.0 0 0 17291 16386.1" />
<path d="M11779 16386
L11779 11661
" />
<path d="M17291 11661.7 A393.701 393.701 0.0 0 0 16897.2 11268" />
<path d="M12172 11268
L16897 11268
" />
<path d="M11779.1 16386.1 A393.701 393.701 0.0 0 0 12172.8 16779.8" />
<path d="M17289 4181.39 A393.701 393.701 0.0 0 0 16895.3 3787.69" />
<path d="M12170.9 3787.69 A393.701 393.701 0.0 0 0 11777.2 4181.39" />
<path d="M12170 3787
L16895 3787
" />
<path d="M16895.3 9299.5 A393.701 393.701 0.0 0 0 17289 8905.8" />
<path d="M11777.2 8905.8 A393.701 393.701 0.0 0 0 12170.9 9299.5" />
<path d="M11777 8905
L11777 4181
" />
<path d="M16895 9299
L12170 9299
" />
<path d="M17288 4181
L17288 8905
" />
<path d="M11776.4 31345.6 A393.701 393.701 0.0 0 0 12170.1 31739.3" />
<path d="M12170 26227
L16894 26227
" />
<path d="M11776 31345
L11776 26621
" />
<path d="M11776.4 23866.8 A393.701 393.701 0.0 0 0 12170.1 24260.5" />
<path d="M17288.2 26621.2 A393.701 393.701 0.0 0 0 16894.5 26227.5" />
<path d="M12170.1 26227.5 A393.701 393.701 0.0 0 0 11776.4 26621.2" />
<path d="M12170 18748
L16894 18748
" />
<path d="M14755.4 34221.2 A393.701 393.701 0.0 0 0 14217.6 34077.1" />
<path d="M2735 31344
L2735 26620
" />
<path d="M7313.87 36307.1 A393.701 393.701 0.0 0 0 6776.06 36163" />
<path d="M7853 31738
L3128 31738
" />
<path d="M7853.16 31738.5 A393.701 393.701 0.0 0 0 8246.86 31344.8" />
<path d="M2735.04 31344.8 A393.701 393.701 0.0 0 0 3128.75 31738.5" />
<path d="M3128 26226
L7853 26226
" />
<path d="M3128.75 26226.7 A393.701 393.701 0.0 0 0 2735.04 26620.4" />
<path d="M8246.86 26620.4 A393.701 393.701 0.0 0 0 7853.16 26226.7" />
<path d="M8246 26620
L8246 31344
" />
<path d="M10126 36439
L14217 34077
" />
<path d="M16973.5 38850.5 A393.701 393.701 0.0 0 0 17117.6 38312.7" />
<path d="M14755 34221
L17117 38312
" />
<path d="M10126.1 36439.3 A393.701 393.701 0.0 0 0 9982.01 36977.1" />
<path d="M9531.97 40936.3 A393.7 393.7 0.0 0 0 9676.07 40398.5" />
<path d="M12344 41068
L9982 36977
" />
<path d="M12344.2 41068.6 A393.701 393.701 0.0 0 0 12882 41212.7" />
<path d="M16973 38850
L12882 41212
" />
<path d="M2684 38525
L6776 36162
" />
<path d="M4902.71 43154.4 A393.7 393.7 0.0 0 0 5440.51 43298.5" />
<path d="M4902 43154
L2540 39062
" />
<path d="M2684.61 38525.2 A393.701 393.701 0.0 0 0 2540.5 39063" />
<path d="M7313 36307
L9676 40398
" />
<path d="M9531 40936
L5440 43298
" />
</g>
<g style="fill:#000000; fill-opacity:0.0; 
stroke:#000000; stroke-width:78.7402; stroke-opacity:1; 
stroke-linecap:round; stroke-linejoin:round;">
<path d="M48675 2986
L48008 2758
" />
<path d="M48008 2758
L47326 2533
" />
<path d="M47326 2533
L46629 2312
" />
<path d="M45689 38273
L46292 38172
" />
<path d="M46292 38172
L46884 38066
" />
<path d="M46884 38066
L47464 37955
" />
<path d="M47464 37955
L48032 37840
" />
<path d="M45195 1883
L44458 1678
" />
<path d="M44458 1678
L43710 1480
" />
<path d="M43710 1480
L42950 1291
" />
<path d="M42950 1291
L42181 1111
" />
<path d="M42181 1111
L41401 941
" />
<path d="M41401 941
L40613 783
" />
<path d="M46629 2312
L45919 2095
" />
<path d="M45919 2095
L45195 1883
" />
<path d="M49325 3215
L48675 2986
" />
<path d="M49959 3444
L49325 3215
" />
<path d="M50575 3673
L49959 3444
" />
<path d="M51172 3901
L50575 3673
" />
<path d="M51751 4126
L51172 3901
" />
<path d="M52310 4348
L51751 4126
" />
<path d="M52848 4565
L52310 4348
" />
<path d="M53365 4776
L52848 4565
" />
<path d="M53860 4982
L53365 4776
" />
<path d="M54333 5180
L53860 4982
" />
<path d="M54782 5369
L54333 5180
" />
<path d="M55207 5549
L54782 5369
" />
<path d="M55284 5587
L55207 5549
" />
<path d="M55356 5633
L55284 5587
" />
<path d="M55422 5686
L55356 5633
" />
<path d="M55481 5745
L55422 5686
" />
<path d="M55533 5811
L55481 5745
" />
<path d="M55578 5881
L55533 5811
" />
<path d="M55615 5956
L55578 5881
" />
<path d="M55644 6035
L55615 5956
" />
<path d="M55664 6117
L55644 6035
" />
<path d="M55676 6202
L55664 6117
" />
<path d="M55678 6260
L55676 6202
" />
<path d="M55678 35109
L55678 6260
" />
<path d="M55672 35203
L55678 35109
" />
<path d="M55656 35295
L55672 35203
" />
<path d="M55630 35383
L55656 35295
" />
<path d="M55594 35467
L55630 35383
" />
<path d="M55548 35546
L55594 35467
" />
<path d="M55495 35620
L55548 35546
" />
<path d="M55433 35687
L55495 35620
" />
<path d="M55363 35747
L55433 35687
" />
<path d="M55287 35798
L55363 35747
" />
<path d="M55204 35842
L55287 35798
" />
<path d="M55145 35865
L55204 35842
" />
<path d="M54950 35934
L55145 35865
" />
<path d="M54726 36012
L54950 35934
" />
<path d="M54475 36097
L54726 36012
" />
<path d="M54198 36190
L54475 36097
" />
<path d="M53895 36289
L54198 36190
" />
<path d="M53567 36393
L53895 36289
" />
<path d="M53216 36503
L53567 36393
" />
<path d="M52842 36617
L53216 36503
" />
<path d="M52445 36735
L52842 36617
" />
<path d="M52028 36855
L52445 36735
" />
<path d="M51590 36978
L52028 36855
" />
<path d="M51133 37102
L51590 36978
" />
<path d="M50657 37227
L51133 37102
" />
<path d="M50164 37353
L50657 37227
" />
<path d="M49654 37477
L50164 37353
" />
<path d="M49128 37600
L49654 37477
" />
<path d="M48587 37722
L49128 37600
" />
<path d="M48032 37840
L48587 37722
" />
<path d="M45077 38367
L45689 38273
" />
<path d="M44456 38455
L45077 38367
" />
<path d="M43827 38534
L44456 38455
" />
<path d="M43192 38606
L43827 38534
" />
<path d="M42549 38668
L43192 38606
" />
<path d="M41902 38721
L42549 38668
" />
<path d="M41250 38763
L41902 38721
" />
<path d="M40595 38794
L41250 38763
" />
<path d="M39937 38813
L40595 38794
" />
<path d="M39277 38819
L39937 38813
" />
<path d="M19844 38819
L39277 38819
" />
<path d="M19739 38821
L19844 38819
" />
<path d="M19634 38826
L19739 38821
" />
<path d="M19529 38835
L19634 38826
" />
<path d="M19425 38847
L19529 38835
" />
<path d="M19322 38862
L19425 38847
" />
<path d="M19219 38881
L19322 38862
" />
<path d="M19116 38903
L19219 38881
" />
<path d="M19015 38929
L19116 38903
" />
<path d="M18914 38957
L19015 38929
" />
<path d="M18815 38989
L18914 38957
" />
<path d="M18716 39024
L18815 38989
" />
<path d="M18619 39063
L18716 39024
" />
<path d="M18522 39105
L18619 39063
" />
<path d="M18428 39149
L18522 39105
" />
<path d="M18334 39197
L18428 39149
" />
<path d="M18242 39249
L18334 39197
" />
<path d="M6378 46094
L18242 39249
" />
<path d="M6306 46131
L6378 46094
" />
<path d="M6233 46160
L6306 46131
" />
<path d="M6120 46188
L6233 46160
" />
<path d="M6005 46200
L6120 46188
" />
<path d="M5892 46195
L6005 46200
" />
<path d="M5781 46173
L5892 46195
" />
<path d="M5674 46136
L5781 46173
" />
<path d="M5572 46084
L5674 46136
" />
<path d="M5479 46017
L5572 46084
" />
<path d="M5396 45936
L5479 46017
" />
<path d="M5346 45874
L5396 45936
" />
<path d="M5303 45806
L5346 45874
" />
<path d="M517 37521
L5303 45806
" />
<path d="M460 37418
L517 37521
" />
<path d="M406 37314
L460 37418
" />
<path d="M356 37209
L406 37314
" />
<path d="M310 37102
L356 37209
" />
<path d="M267 36993
L310 37102
" />
<path d="M228 36884
L267 36993
" />
<path d="M192 36773
L228 36884
" />
<path d="M160 36661
L192 36773
" />
<path d="M132 36548
L160 36661
" />
<path d="M107 36434
L132 36548
" />
<path d="M86 36319
L107 36434
" />
<path d="M69 36204
L86 36319
" />
<path d="M56 36088
L69 36204
" />
<path d="M46 35972
L56 36088
" />
<path d="M41 35855
L46 35972
" />
<path d="M39 35738
L41 35855
" />
<path d="M39 25734
L39 35738
" />
<path d="M14347 2795
L11315 2795
" />
<path d="M14474 2792
L14347 2795
" />
<path d="M14604 2783
L14474 2792
" />
<path d="M14736 2769
L14604 2783
" />
<path d="M14870 2749
L14736 2769
" />
<path d="M15006 2725
L14870 2749
" />
<path d="M15143 2696
L15006 2725
" />
<path d="M15282 2662
L15143 2696
" />
<path d="M15421 2625
L15282 2662
" />
<path d="M15561 2584
L15421 2625
" />
<path d="M15701 2540
L15561 2584
" />
<path d="M15841 2493
L15701 2540
" />
<path d="M15981 2444
L15841 2493
" />
<path d="M16120 2392
L15981 2444
" />
<path d="M16259 2338
L16120 2392
" />
<path d="M16396 2283
L16259 2338
" />
<path d="M16532 2226
L16396 2283
" />
<path d="M16666 2169
L16532 2226
" />
<path d="M16798 2111
L16666 2169
" />
<path d="M16928 2052
L16798 2111
" />
<path d="M17055 1994
L16928 2052
" />
<path d="M17179 1936
L17055 1994
" />
<path d="M17300 1879
L17179 1936
" />
<path d="M17418 1823
L17300 1879
" />
<path d="M17532 1768
L17418 1823
" />
<path d="M17642 1715
L17532 1768
" />
<path d="M17748 1663
L17642 1715
" />
<path d="M17849 1615
L17748 1663
" />
<path d="M17946 1569
L17849 1615
" />
<path d="M18037 1525
L17946 1569
" />
<path d="M18123 1486
L18037 1525
" />
<path d="M18203 1449
L18123 1486
" />
<path d="M18277 1417
L18203 1449
" />
<path d="M18530 1309
L18277 1417
" />
<path d="M18784 1206
L18530 1309
" />
<path d="M19039 1109
L18784 1206
" />
<path d="M19294 1017
L19039 1109
" />
<path d="M19549 930
L19294 1017
" />
<path d="M19805 849
L19549 930
" />
<path d="M20060 773
L19805 849
" />
<path d="M20315 701
L20060 773
" />
<path d="M20569 634
L20315 701
" />
<path d="M20823 571
L20569 634
" />
<path d="M21075 513
L20823 571
" />
<path d="M21326 459
L21075 513
" />
<path d="M21576 409
L21326 459
" />
<path d="M21824 364
L21576 409
" />
<path d="M22070 321
L21824 364
" />
<path d="M22314 283
L22070 321
" />
<path d="M22556 248
L22314 283
" />
<path d="M22795 216
L22556 248
" />
<path d="M23032 188
L22795 216
" />
<path d="M23265 162
L23032 188
" />
<path d="M23495 140
L23265 162
" />
<path d="M23722 120
L23495 140
" />
<path d="M23945 102
L23722 120
" />
<path d="M24165 88
L23945 102
" />
<path d="M24380 75
L24165 88
" />
<path d="M24591 65
L24380 75
" />
<path d="M24798 56
L24591 65
" />
<path d="M25000 50
L24798 56
" />
<path d="M25197 45
L25000 50
" />
<path d="M25389 42
L25197 45
" />
<path d="M25576 40
L25389 42
" />
<path d="M25757 39
L25576 40
" />
<path d="M25858 39
L25757 39
" />
<path d="M25988 39
L25858 39
" />
<path d="M26144 39
L25988 39
" />
<path d="M26325 39
L26144 39
" />
<path d="M26528 39
L26325 39
" />
<path d="M26753 39
L26528 39
" />
<path d="M26995 39
L26753 39
" />
<path d="M27255 39
L26995 39
" />
<path d="M27528 39
L27255 39
" />
<path d="M27815 39
L27528 39
" />
<path d="M28112 39
L27815 39
" />
<path d="M28417 39
L28112 39
" />
<path d="M28729 39
L28417 39
" />
<path d="M29046 39
L28729 39
" />
<path d="M29365 39
L29046 39
" />
<path d="M29685 39
L29365 39
" />
<path d="M30003 39
L29685 39
" />
<path d="M30318 39
L30003 39
" />
<path d="M30627 39
L30318 39
" />
<path d="M30929 39
L30627 39
" />
<path d="M31221 39
L30929 39
" />
<path d="M31502 39
L31221 39
" />
<path d="M31769 39
L31502 39
" />
<path d="M32021 39
L31769 39
" />
<path d="M32256 39
L32021 39
" />
<path d="M32470 39
L32256 39
" />
<path d="M32664 39
L32470 39
" />
<path d="M32833 39
L32664 39
" />
<path d="M32977 39
L32833 39
" />
<path d="M33094 39
L32977 39
" />
<path d="M33181 39
L33094 39
" />
<path d="M33237 39
L33181 39
" />
<path d="M34073 50
L33237 39
" />
<path d="M34906 81
L34073 50
" />
<path d="M35737 131
L34906 81
" />
<path d="M36563 200
L35737 131
" />
<path d="M37385 286
L36563 200
" />
<path d="M38202 388
L37385 286
" />
<path d="M39013 506
L38202 388
" />
<path d="M39816 638
L39013 506
" />
<path d="M40613 783
L39816 638
" />
<g >
</g>
<g >
</g>
</g> 
</svg>
