<?xml version="1.0" standalone="no"?>
 <!DOCTYPE svg PUBLIC "-//W3C//DTD SVG 1.1//EN" 
 "http://www.w3.org/Graphics/SVG/1.1/DTD/svg11.dtd"> 
<svg
  xmlns:svg="http://www.w3.org/2000/svg"
  xmlns="http://www.w3.org/2000/svg"
  xmlns:xlink="http://www.w3.org/1999/xlink"
  version="1.1"
  width="14.150340cm" height="11.772900cm" viewBox="0 0 55710 46350">
<title>SVG Picture created as Kimiko-brd.svg date 2021/05/15 21:11:21 </title>
  <desc>Picture generated by PCBNEW </desc>
<g style="fill:#000000; fill-opacity:1;stroke:#000000; stroke-opacity:1;
stroke-linecap:round; stroke-linejoin:round;"
 transform="translate(0 0) scale(1 1)">
</g>
<g style="fill:#000000; fill-opacity:0.0; 
stroke:#000000; stroke-width:-0.000393701; stroke-opacity:1; 
stroke-linecap:round; stroke-linejoin:round;">
</g>
<g style="fill:#000000; fill-opacity:0.0; 
stroke:#000000; stroke-width:59.0551; stroke-opacity:1; 
stroke-linecap:round; stroke-linejoin:round;">
<circle cx="48202.6" cy="13220.5" r="463.465" /> 
<circle cx="48202.6" cy="28177.2" r="460.63" /> 
<circle cx="8923.04" cy="33901.6" r="463.465" /> 
<circle cx="17887.6" cy="25031.5" r="465.633" /> 
<circle cx="17887.6" cy="10070.9" r="459.94" /> 
</g>
<g style="fill:#000000; fill-opacity:0.0; 
stroke:#000000; stroke-width:78.7402; stroke-opacity:1; 
stroke-linecap:round; stroke-linejoin:round;">
<path d="M14347 2795
L14474 2792
" />
<path d="M14474 2792
L14604 2783
" />
<path d="M14604 2783
L14736 2769
" />
<path d="M14736 2769
L14870 2749
" />
<path d="M14870 2749
L15006 2724
" />
<path d="M15006 2724
L15144 2695
" />
<path d="M15144 2695
L15282 2662
" />
<path d="M15282 2662
L15421 2625
" />
<path d="M15421 2625
L15561 2584
" />
<path d="M15561 2584
L15701 2540
" />
<path d="M15701 2540
L15841 2493
" />
<path d="M15841 2493
L15981 2443
" />
<path d="M15981 2443
L16120 2392
" />
<path d="M16120 2392
L16259 2338
" />
<path d="M16259 2338
L16396 2283
" />
<path d="M16396 2283
L16532 2226
" />
<path d="M16532 2226
L16666 2169
" />
<path d="M16666 2169
L16798 2110
" />
<path d="M16798 2110
L16928 2052
" />
<path d="M16928 2052
L17055 1994
" />
<path d="M17055 1994
L17179 1936
" />
<path d="M17179 1936
L17301 1878
" />
<path d="M17301 1878
L17418 1822
" />
<path d="M17418 1822
L17532 1767
" />
<path d="M17532 1767
L17643 1714
" />
<path d="M17643 1714
L17748 1663
" />
<path d="M17748 1663
L17850 1614
" />
<path d="M17850 1614
L17946 1568
" />
<path d="M17946 1568
L18037 1525
" />
<path d="M18037 1525
L18123 1485
" />
<path d="M18123 1485
L18203 1449
" />
<path d="M18203 1449
L18277 1417
" />
<path d="M14347 2795
L14347 2795
" />
<path d="M826 2795
L14347 2795
" />
<path d="M39 3582
L43 3502
" />
<path d="M43 3502
L55 3423
" />
<path d="M55 3423
L87 3311
" />
<path d="M87 3311
L134 3207
" />
<path d="M134 3207
L195 3111
" />
<path d="M195 3111
L269 3025
" />
<path d="M269 3025
L355 2951
" />
<path d="M355 2951
L451 2890
" />
<path d="M451 2890
L555 2843
" />
<path d="M555 2843
L667 2811
" />
<path d="M667 2811
L746 2799
" />
<path d="M746 2799
L826 2795
" />
<path d="M39 35737
L39 3582
" />
<path d="M517 37520
L460 37418
" />
<path d="M460 37418
L406 37314
" />
<path d="M406 37314
L356 37208
" />
<path d="M356 37208
L310 37101
" />
<path d="M310 37101
L267 36993
" />
<path d="M267 36993
L228 36883
" />
<path d="M228 36883
L192 36772
" />
<path d="M192 36772
L160 36660
" />
<path d="M160 36660
L132 36547
" />
<path d="M132 36547
L108 36434
" />
<path d="M108 36434
L87 36319
" />
<path d="M87 36319
L70 36204
" />
<path d="M70 36204
L56 36088
" />
<path d="M56 36088
L47 35971
" />
<path d="M47 35971
L41 35854
" />
<path d="M41 35854
L39 35737
" />
<path d="M5303 45806
L517 37520
" />
<path d="M6378 46094
L6307 46131
" />
<path d="M6307 46131
L6233 46159
" />
<path d="M6233 46159
L6120 46188
" />
<path d="M6120 46188
L6006 46199
" />
<path d="M6006 46199
L5892 46194
" />
<path d="M5892 46194
L5781 46173
" />
<path d="M5781 46173
L5674 46136
" />
<path d="M5674 46136
L5573 46083
" />
<path d="M5573 46083
L5479 46016
" />
<path d="M5479 46016
L5396 45935
" />
<path d="M5396 45935
L5347 45873
" />
<path d="M5347 45873
L5303 45806
" />
<path d="M18242 39248
L6378 46094
" />
<path d="M19845 38819
L19739 38821
" />
<path d="M19739 38821
L19634 38826
" />
<path d="M19634 38826
L19530 38834
" />
<path d="M19530 38834
L19425 38846
" />
<path d="M19425 38846
L19322 38862
" />
<path d="M19322 38862
L19219 38881
" />
<path d="M19219 38881
L19117 38903
" />
<path d="M19117 38903
L19015 38928
" />
<path d="M19015 38928
L18915 38957
" />
<path d="M18915 38957
L18815 38989
" />
<path d="M18815 38989
L18716 39024
" />
<path d="M18716 39024
L18619 39062
" />
<path d="M18619 39062
L18523 39104
" />
<path d="M18523 39104
L18428 39149
" />
<path d="M18428 39149
L18334 39197
" />
<path d="M18334 39197
L18242 39248
" />
<path d="M39278 38819
L19845 38819
" />
<path d="M55145 35865
L54950 35934
" />
<path d="M54950 35934
L54726 36011
" />
<path d="M54726 36011
L54475 36097
" />
<path d="M54475 36097
L54198 36189
" />
<path d="M54198 36189
L53895 36288
" />
<path d="M53895 36288
L53567 36393
" />
<path d="M53567 36393
L53216 36503
" />
<path d="M53216 36503
L52842 36617
" />
<path d="M52842 36617
L52445 36734
" />
<path d="M52445 36734
L52028 36855
" />
<path d="M52028 36855
L51590 36978
" />
<path d="M51590 36978
L51133 37102
" />
<path d="M51133 37102
L50657 37227
" />
<path d="M50657 37227
L50164 37352
" />
<path d="M50164 37352
L49654 37477
" />
<path d="M49654 37477
L49128 37600
" />
<path d="M49128 37600
L48588 37721
" />
<path d="M48588 37721
L48033 37840
" />
<path d="M48033 37840
L47465 37955
" />
<path d="M47465 37955
L46884 38066
" />
<path d="M46884 38066
L46292 38172
" />
<path d="M46292 38172
L45690 38272
" />
<path d="M45690 38272
L45078 38367
" />
<path d="M45078 38367
L44457 38454
" />
<path d="M44457 38454
L43828 38534
" />
<path d="M43828 38534
L43192 38605
" />
<path d="M43192 38605
L42550 38668
" />
<path d="M42550 38668
L41902 38720
" />
<path d="M41902 38720
L41251 38762
" />
<path d="M41251 38762
L40595 38793
" />
<path d="M40595 38793
L39937 38812
" />
<path d="M39937 38812
L39278 38819
" />
<path d="M55678 35108
L55672 35203
" />
<path d="M55672 35203
L55656 35294
" />
<path d="M55656 35294
L55630 35383
" />
<path d="M55630 35383
L55594 35467
" />
<path d="M55594 35467
L55549 35546
" />
<path d="M55549 35546
L55495 35619
" />
<path d="M55495 35619
L55433 35686
" />
<path d="M55433 35686
L55364 35746
" />
<path d="M55364 35746
L55287 35798
" />
<path d="M55287 35798
L55204 35841
" />
<path d="M55204 35841
L55145 35865
" />
<path d="M55678 6259
L55678 35108
" />
<path d="M55207 5548
L55284 5587
" />
<path d="M55284 5587
L55356 5632
" />
<path d="M55356 5632
L55422 5685
" />
<path d="M55422 5685
L55481 5745
" />
<path d="M55481 5745
L55534 5810
" />
<path d="M55534 5810
L55579 5881
" />
<path d="M55579 5881
L55616 5956
" />
<path d="M55616 5956
L55644 6035
" />
<path d="M55644 6035
L55665 6117
" />
<path d="M55665 6117
L55676 6202
" />
<path d="M55676 6202
L55678 6259
" />
<path d="M33237 39
L34073 49
" />
<path d="M34073 49
L34906 80
" />
<path d="M34906 80
L35737 130
" />
<path d="M35737 130
L36563 199
" />
<path d="M36563 199
L37385 285
" />
<path d="M37385 285
L38202 387
" />
<path d="M38202 387
L39013 505
" />
<path d="M39013 505
L39817 637
" />
<path d="M39817 637
L40613 783
" />
<path d="M40613 783
L41401 941
" />
<path d="M41401 941
L42181 1110
" />
<path d="M42181 1110
L42951 1290
" />
<path d="M42951 1290
L43710 1479
" />
<path d="M43710 1479
L44458 1677
" />
<path d="M44458 1677
L45195 1882
" />
<path d="M45195 1882
L45919 2094
" />
<path d="M45919 2094
L46629 2311
" />
<path d="M46629 2311
L47326 2533
" />
<path d="M47326 2533
L48008 2758
" />
<path d="M48008 2758
L48675 2985
" />
<path d="M48675 2985
L49325 3214
" />
<path d="M49325 3214
L49959 3444
" />
<path d="M49959 3444
L50575 3673
" />
<path d="M50575 3673
L51172 3900
" />
<path d="M51172 3900
L51751 4126
" />
<path d="M51751 4126
L52310 4347
" />
<path d="M52310 4347
L52848 4564
" />
<path d="M52848 4564
L53365 4776
" />
<path d="M53365 4776
L53860 4981
" />
<path d="M53860 4981
L54333 5179
" />
<path d="M54333 5179
L54782 5368
" />
<path d="M54782 5368
L55207 5548
" />
<path d="M25757 39
L25858 39
" />
<path d="M25858 39
L25988 39
" />
<path d="M25988 39
L26144 39
" />
<path d="M26144 39
L26325 39
" />
<path d="M26325 39
L26529 39
" />
<path d="M26529 39
L26753 39
" />
<path d="M26753 39
L26995 39
" />
<path d="M26995 39
L27255 39
" />
<path d="M27255 39
L27529 39
" />
<path d="M27529 39
L27815 39
" />
<path d="M27815 39
L28112 39
" />
<path d="M28112 39
L28418 39
" />
<path d="M28418 39
L28730 39
" />
<path d="M28730 39
L29046 39
" />
<path d="M29046 39
L29365 39
" />
<path d="M29365 39
L29685 39
" />
<path d="M29685 39
L30003 39
" />
<path d="M30003 39
L30318 39
" />
<path d="M30318 39
L30627 39
" />
<path d="M30627 39
L30929 39
" />
<path d="M30929 39
L31222 39
" />
<path d="M31222 39
L31502 39
" />
<path d="M31502 39
L31770 39
" />
<path d="M31770 39
L32021 39
" />
<path d="M32021 39
L32256 39
" />
<path d="M32256 39
L32470 39
" />
<path d="M32470 39
L32664 39
" />
<path d="M32664 39
L32833 39
" />
<path d="M32833 39
L32978 39
" />
<path d="M32978 39
L33094 39
" />
<path d="M33094 39
L33181 39
" />
<path d="M33181 39
L33237 39
" />
<path d="M18277 1417
L18530 1308
" />
<path d="M18530 1308
L18784 1206
" />
<path d="M18784 1206
L19039 1108
" />
<path d="M19039 1108
L19294 1017
" />
<path d="M19294 1017
L19550 930
" />
<path d="M19550 930
L19805 849
" />
<path d="M19805 849
L20060 772
" />
<path d="M20060 772
L20315 700
" />
<path d="M20315 700
L20570 633
" />
<path d="M20570 633
L20823 571
" />
<path d="M20823 571
L21076 513
" />
<path d="M21076 513
L21327 459
" />
<path d="M21327 459
L21576 409
" />
<path d="M21576 409
L21824 363
" />
<path d="M21824 363
L22071 321
" />
<path d="M22071 321
L22315 282
" />
<path d="M22315 282
L22556 247
" />
<path d="M22556 247
L22795 216
" />
<path d="M22795 216
L23032 187
" />
<path d="M23032 187
L23265 162
" />
<path d="M23265 162
L23495 139
" />
<path d="M23495 139
L23722 119
" />
<path d="M23722 119
L23946 102
" />
<path d="M23946 102
L24165 87
" />
<path d="M24165 87
L24380 75
" />
<path d="M24380 75
L24591 64
" />
<path d="M24591 64
L24798 56
" />
<path d="M24798 56
L25000 49
" />
<path d="M25000 49
L25197 45
" />
<path d="M25197 45
L25389 41
" />
<path d="M25389 41
L25576 39
" />
<path d="M25576 39
L25757 39
" />
<g >
</g>
<g >
</g>
</g> 
</svg>
