<?xml version="1.0" encoding="utf-8"?>
<!-- Generator: Adobe Illustrator 24.0.0, SVG Export Plug-In . SVG Version: 6.00 Build 0)  -->
<svg version="1.0" id="top-plate" xmlns="http://www.w3.org/2000/svg" xmlns:xlink="http://www.w3.org/1999/xlink" x="0px" y="0px"
	 viewBox="0 0 141.7 141.7" style="enable-background:new 0 0 141.7 141.7;" xml:space="preserve">
<style type="text/css">
	.st0{fill:none;stroke:#000000;stroke-width:0.2551;stroke-linecap:round;stroke-linejoin:round;stroke-miterlimit:10;}
</style>
<g id="SPLINE">
	<path class="st0" d="M272-191.2l-0.1-0.6l-0.1-0.6l-0.2-0.6l-0.3-0.5l-0.3-0.5l-0.4-0.5l-0.4-0.4l-0.5-0.4l-0.5-0.3l-0.6-0.3
		l-3.1-1.3l-3.2-1.4l-3.4-1.4l-3.6-1.5l-3.7-1.5l-3.9-1.6l-4-1.6l-4.2-1.6l-4.3-1.6l-4.4-1.6l-4.6-1.6l-4.7-1.6l-4.8-1.6l-4.9-1.6
		l-5-1.6l-5.1-1.6l-5.2-1.5l-5.3-1.5l-5.4-1.4l-5.5-1.4l-5.5-1.3l-5.6-1.2l-5.7-1.1l-5.7-1l-5.8-1l-5.8-0.8l-5.9-0.7l-5.9-0.6
		l-5.9-0.5l-6-0.4l-6-0.2l-6-0.1H110h-0.6h-0.8h-1h-1.2h-1.4h-1.5h-1.7h-1.8h-1.9h-2h-2.1h-2.2h-2.2h-2.3h-2.3h-2.3h-2.3h-2.3h-2.2
		h-2.2h-2.1h-2.1h-2h-1.9h-1.7h-1.6h-1.5h-1.3h-1.1h-0.9h-0.7l-1.3,0l-1.3,0l-1.4,0l-1.4,0l-1.5,0l-1.5,0.1l-1.5,0.1l-1.5,0.1
		l-1.6,0.1l-1.6,0.1l-1.6,0.1l-1.7,0.2l-1.7,0.2l-1.7,0.2l-1.7,0.2l-1.7,0.3l-1.8,0.3l-1.8,0.3l-1.8,0.3l-1.8,0.4l-1.8,0.4l-1.8,0.4
		l-1.8,0.5l-1.8,0.5l-1.8,0.5l-1.8,0.5l-1.8,0.6l-1.8,0.6l-1.8,0.7l-1.8,0.7l-1.8,0.7l-1.8,0.8l-0.5,0.2l-0.6,0.3L1-224.9l-0.7,0.3
		l-0.7,0.3l-0.7,0.3l-0.8,0.4l-0.8,0.4l-0.8,0.4l-0.8,0.4l-0.9,0.4l-0.9,0.4l-0.9,0.4l-0.9,0.4l-1,0.4l-1,0.4l-1,0.4l-1,0.4l-1,0.4
		l-1,0.4l-1,0.4l-1,0.3l-1,0.3l-1,0.3l-1,0.3l-1,0.2l-1,0.2l-1,0.2l-1,0.1l-1,0.1l-0.9,0.1l-0.9,0h-21.8c-1.6,0-2.8,1.3-2.8,2.8
		v156.6c0,1.6-1.3,2.8-2.8,2.8h-72.7c-1.6,0-2.8,1.3-2.8,2.8v72l0,0.8l0,0.8l0.1,0.8l0.1,0.8l0.1,0.8l0.2,0.8l0.2,0.8l0.2,0.8
		l0.2,0.8l0.3,0.8l0.3,0.8l0.3,0.8l0.3,0.8l0.4,0.8l0.4,0.7l0.4,0.7l34.5,59.7l0.3,0.5l0.4,0.4l0.6,0.6l0.7,0.5l0.7,0.4l0.8,0.3
		l0.8,0.2l0.8,0l0.8-0.1l0.8-0.2l0.5-0.2L-83,96L2.4,46.7l0.7-0.4L3.8,46l0.7-0.3l0.7-0.3l0.7-0.3l0.7-0.3l0.7-0.2L8,44.4l0.7-0.2
		L9.5,44l0.7-0.1l0.7-0.1l0.7-0.1l0.8-0.1l0.8,0l0.8,0h139.9l4.8,0l4.7-0.1l4.7-0.2l4.7-0.3l4.7-0.4l4.6-0.4l4.6-0.5l4.5-0.6
		l4.5-0.6l4.4-0.7l4.3-0.7l4.3-0.8l4.2-0.8l4.1-0.8l4-0.8l3.9-0.9l3.8-0.9l3.7-0.9l3.5-0.9l3.4-0.9l3.3-0.9l3.2-0.9l3-0.9l2.9-0.8
		l2.7-0.8l2.5-0.8l2.4-0.7l2.2-0.7l2-0.7l1.8-0.6l1.6-0.6l1.4-0.5l0.4-0.2l0.6-0.3l0.5-0.4l0.5-0.4l0.4-0.5L271,20l0.3-0.6l0.3-0.6
		l0.2-0.6l0.1-0.7l0-0.7v-207.7L272-191.2z"/>
</g>
<g id="SPLINE_1_">
	<ellipse class="st0" cx="218.1" cy="-140.7" rx="3" ry="2.9"/>
</g>
<g id="SPLINE_2_">
	<ellipse class="st0" cx="218.1" cy="-33" rx="3" ry="2.9"/>
</g>
<g id="SPLINE_3_">
	<ellipse class="st0" cx="-0.1" cy="-55.7" rx="3" ry="2.9"/>
</g>
<g id="SPLINE_4_">
	<ellipse class="st0" cx="-0.1" cy="-163.4" rx="3" ry="2.9"/>
</g>
<g id="SPLINE_5_">
	<ellipse class="st0" cx="-64.7" cy="8.2" rx="3" ry="2.9"/>
</g>
<g id="POLYLINE">
	<polyline class="st0" points="-44,-208.7 -44,-169.1 -4.4,-169.1 -4.4,-208.7 -44,-208.7 	"/>
</g>
<g id="POLYLINE_1_">
	<polyline class="st0" points="9.9,-218.6 9.9,-179.1 49.4,-179.1 49.4,-218.6 9.9,-218.6 	"/>
</g>
<g id="POLYLINE_2_">
	<polyline class="st0" points="117.6,-218.6 117.6,-179.1 157.1,-179.1 157.1,-218.6 117.6,-218.6 	"/>
</g>
<g id="POLYLINE_3_">
	<polyline class="st0" points="171.4,-187.5 171.4,-147.9 211,-147.9 211,-187.5 171.4,-187.5 	"/>
</g>
<g id="POLYLINE_4_">
	<polyline class="st0" points="225.3,-187.5 225.3,-147.9 264.9,-147.9 264.9,-187.5 225.3,-187.5 	"/>
</g>
<g id="POLYLINE_5_">
	<polyline class="st0" points="-44,-154.9 -44,-115.3 -4.4,-115.3 -4.4,-154.9 -44,-154.9 	"/>
</g>
<g id="POLYLINE_6_">
	<polyline class="st0" points="9.9,-164.8 9.9,-125.2 49.4,-125.2 49.4,-164.8 9.9,-164.8 	"/>
</g>
<g id="POLYLINE_7_">
	<polyline class="st0" points="63.7,-174.7 63.7,-135.1 103.3,-135.1 103.3,-174.7 63.7,-174.7 	"/>
</g>
<g id="POLYLINE_8_">
	<polyline class="st0" points="117.6,-164.8 117.6,-125.2 157.1,-125.2 157.1,-164.8 117.6,-164.8 	"/>
</g>
<g id="POLYLINE_9_">
	<polyline class="st0" points="171.4,-133.6 171.4,-94 211,-94 211,-133.6 171.4,-133.6 	"/>
</g>
<g id="POLYLINE_10_">
	<polyline class="st0" points="225.3,-133.6 225.3,-94 264.9,-94 264.9,-133.6 225.3,-133.6 	"/>
</g>
<g id="POLYLINE_11_">
	<polyline class="st0" points="-44,-101 -44,-61.4 -4.4,-61.4 -4.4,-101 -44,-101 	"/>
</g>
<g id="POLYLINE_12_">
	<polyline class="st0" points="9.9,-110.9 9.9,-71.4 49.4,-71.4 49.4,-110.9 9.9,-110.9 	"/>
</g>
<g id="POLYLINE_13_">
	<polyline class="st0" points="63.7,-120.8 63.7,-81.3 103.3,-81.3 103.3,-120.8 63.7,-120.8 	"/>
</g>
<g id="POLYLINE_14_">
	<polyline class="st0" points="117.6,-110.9 117.6,-71.4 157.1,-71.4 157.1,-110.9 117.6,-110.9 	"/>
</g>
<g id="POLYLINE_15_">
	<polyline class="st0" points="171.4,-79.7 171.4,-40.2 211,-40.2 211,-79.7 171.4,-79.7 	"/>
</g>
<g id="POLYLINE_16_">
	<polyline class="st0" points="225.3,-79.7 225.3,-40.2 264.9,-40.2 264.9,-79.7 225.3,-79.7 	"/>
</g>
<g id="POLYLINE_17_">
	<polyline class="st0" points="-44,-47.1 -44,-7.6 -4.4,-7.6 -4.4,-47.1 -44,-47.1 	"/>
</g>
<g id="POLYLINE_18_">
	<polyline class="st0" points="9.9,-57.1 9.9,-17.5 49.4,-17.5 49.4,-57.1 9.9,-57.1 	"/>
</g>
<g id="POLYLINE_19_">
	<polyline class="st0" points="63.7,-67 63.7,-27.4 103.3,-27.4 103.3,-67 63.7,-67 	"/>
</g>
<g id="POLYLINE_20_">
	<polyline class="st0" points="117.6,-57.1 117.6,-17.5 157.1,-17.5 157.1,-57.1 117.6,-57.1 	"/>
</g>
<g id="POLYLINE_21_">
	<polyline class="st0" points="171.4,-25.9 171.4,13.7 211,13.7 211,-25.9 171.4,-25.9 	"/>
</g>
<g id="POLYLINE_22_">
	<polyline class="st0" points="225.3,-25.9 225.3,13.7 264.9,13.7 264.9,-25.9 225.3,-25.9 	"/>
</g>
<g id="POLYLINE_23_">
	<polyline class="st0" points="-24.1,8 -58.3,27.8 -38.6,62 -4.3,42.2 -24.1,8 	"/>
</g>
<g id="POLYLINE_24_">
	<polyline class="st0" points="9.9,-3.2 9.9,36.4 49.4,36.4 49.4,-3.2 9.9,-3.2 	"/>
</g>
<g id="POLYLINE_25_">
	<polyline class="st0" points="63.7,-13.1 63.7,26.4 103.3,26.4 103.3,-13.1 63.7,-13.1 	"/>
</g>
<g id="POLYLINE_26_">
	<polyline class="st0" points="117.6,-3.2 117.6,32.8 117.6,35.7 117.6,36.4 157.1,36.4 157.1,-3.2 117.6,-3.2 	"/>
</g>
<g id="POLYLINE_27_">
	<polyline class="st0" points="63.7,-228.6 63.7,-189 103.3,-189 103.3,-228.6 63.7,-228.6 	"/>
</g>
<g id="POLYLINE_28_">
	<polyline class="st0" points="-109.1,-47.2 -109.1,-11.1 -109.1,-8.3 -109.1,-7.6 -69.5,-7.6 -69.5,-47.2 -109.1,-47.2 	"/>
</g>
<g id="POLYLINE_29_">
	<polyline class="st0" points="-77.6,23 -111.9,42.8 -92.1,77.1 -57.8,57.3 -77.6,23 	"/>
</g>
</svg>
