  0
SECTION
  2
HEADER
  9
$ACADVER
  1
AC1012
  9
$DWGCODEPAGE
  3
undefined
  9
$INSBASE
 10
0.0
 20
0.0
 30
0.0
  9
$EXTMIN
 10
1.000000000000000E+20
 20
1.000000000000000E+20
 30
1.000000000000000E+20
  9
$EXTMAX
 10
-1.000000000000000E+20
 20
-1.000000000000000E+20
 30
-1.000000000000000E+20
  9
$LIMMIN
 10
0.0
 20
0.0
  9
$LIMMAX
 10
12.0
 20
9.0
  9
$ORTHOMODE
 70
     0
  9
$REGENMODE
 70
     1
  9
$FILLMODE
 70
     1
  9
$QTEXTMODE
 70
     0
  9
$MIRRTEXT
 70
     1
  9
$DRAGMODE
 70
     2
  9
$LTSCALE
 40
1.0
  9
$OSMODE
 70
    37
  9
$ATTMODE
 70
     1
  9
$TEXTSIZE
 40
0.2
  9
$TRACEWID
 40
0.05
  9
$TEXTSTYLE
  7
STANDARD
  9
$CLAYER
  8
0
  9
$CELTYPE
  6
BYLAYER
  9
$CECOLOR
 62
   256
  9
$CELTSCALE
 40
1.0
  9
$DELOBJ
 70
     1
  9
$DISPSILH
 70
     0
  9
$DIMSCALE
 40
1.0
  9
$DIMASZ
 40
0.18
  9
$DIMEXO
 40
0.0625
  9
$DIMDLI
 40
0.38
  9
$DIMRND
 40
0.0
  9
$DIMDLE
 40
0.0
  9
$DIMEXE
 40
0.18
  9
$DIMTP
 40
0.0
  9
$DIMTM
 40
0.0
  9
$DIMTXT
 40
0.18
  9
$DIMCEN
 40
0.09
  9
$DIMTSZ
 40
0.0
  9
$DIMTOL
 70
     0
  9
$DIMLIM
 70
     0
  9
$DIMTIH
 70
     1
  9
$DIMTOH
 70
     1
  9
$DIMSE1
 70
     0
  9
$DIMSE2
 70
     0
  9
$DIMTAD
 70
     0
  9
$DIMZIN
 70
     0
  9
$DIMBLK
  1

  9
$DIMASO
 70
     1
  9
$DIMSHO
 70
     1
  9
$DIMPOST
  1

  9
$DIMAPOST
  1

  9
$DIMALT
 70
     0
  9
$DIMALTD
 70
     2
  9
$DIMALTF
 40
25.4
  9
$DIMLFAC
 40
1.0
  9
$DIMTOFL
 70
     0
  9
$DIMTVP
 40
0.0
  9
$DIMTIX
 70
     0
  9
$DIMSOXD
 70
     0
  9
$DIMSAH
 70
     0
  9
$DIMBLK1
  1

  9
$DIMBLK2
  1

  9
$DIMSTYLE
  2
STANDARD
  9
$DIMCLRD
 70
     0
  9
$DIMCLRE
 70
     0
  9
$DIMCLRT
 70
     0
  9
$DIMTFAC
 40
1.0
  9
$DIMGAP
 40
0.09
  9
$DIMJUST
 70
     0
  9
$DIMSD1
 70
     0
  9
$DIMSD2
 70
     0
  9
$DIMTOLJ
 70
     1
  9
$DIMTZIN
 70
     0
  9
$DIMALTZ
 70
     0
  9
$DIMALTTZ
 70
     0
  9
$DIMFIT
 70
     3
  9
$DIMUPT
 70
     0
  9
$DIMUNIT
 70
     2
  9
$DIMDEC
 70
     4
  9
$DIMTDEC
 70
     4
  9
$DIMALTU
 70
     2
  9
$DIMALTTD
 70
     2
  9
$DIMTXSTY
  7
STANDARD
  9
$DIMAUNIT
 70
     0
  9
$LUNITS
 70
     2
  9
$LUPREC
 70
     4
  9
$SKETCHINC
 40
0.1
  9
$FILLETRAD
 40
0.5
  9
$AUNITS
 70
     0
  9
$AUPREC
 70
     0
  9
$MENU
  1
.
  9
$ELEVATION
 40
0.0
  9
$PELEVATION
 40
0.0
  9
$THICKNESS
 40
0.0
  9
$LIMCHECK
 70
     0
  9
$CHAMFERA
 40
0.5
  9
$CHAMFERB
 40
0.5
  9
$CHAMFERC
 40
1.0
  9
$CHAMFERD
 40
0.0
  9
$SKPOLY
 70
     0
  9
$TDCREATE
 40
2459514.722025451
  9
$TDUPDATE
 40
2459514.722025451
  9
$TDINDWG
 40
0.0000000116
  9
$TDUSRTIMER
 40
0.0000000116
  9
$USRTIMER
 70
     1
  9
$ANGBASE
 50
0.0
  9
$ANGDIR
 70
     0
  9
$PDMODE
 70
     0
  9
$PDSIZE
 40
0.0
  9
$PLINEWID
 40
0.0
  9
$COORDS
 70
     1
  9
$SPLFRAME
 70
     0
  9
$SPLINETYPE
 70
     6
  9
$SPLINESEGS
 70
     8
  9
$ATTDIA
 70
     0
  9
$ATTREQ
 70
     1
  9
$HANDLING
 70
     1
  9
$HANDSEED
  5
1B8
  9
$SURFTAB1
 70
     6
  9
$SURFTAB2
 70
     6
  9
$SURFTYPE
 70
     6
  9
$SURFU
 70
     6
  9
$SURFV
 70
     6
  9
$UCSNAME
  2

  9
$UCSORG
 10
0.0
 20
0.0
 30
0.0
  9
$UCSXDIR
 10
1.0
 20
0.0
 30
0.0
  9
$UCSYDIR
 10
0.0
 20
1.0
 30
0.0
  9
$PUCSNAME
  2

  9
$PUCSORG
 10
0.0
 20
0.0
 30
0.0
  9
$PUCSXDIR
 10
1.0
 20
0.0
 30
0.0
  9
$PUCSYDIR
 10
0.0
 20
1.0
 30
0.0
  9
$USERI1
 70
     0
  9
$USERI2
 70
     0
  9
$USERI3
 70
     0
  9
$USERI4
 70
     0
  9
$USERI5
 70
     0
  9
$USERR1
 40
0.0
  9
$USERR2
 40
0.0
  9
$USERR3
 40
0.0
  9
$USERR4
 40
0.0
  9
$USERR5
 40
0.0
  9
$WORLDVIEW
 70
     1
  9
$SHADEDGE
 70
     3
  9
$SHADEDIF
 70
    70
  9
$TILEMODE
 70
     1
  9
$MAXACTVP
 70
    64
  9
$PINSBASE
 10
0.0
 20
0.0
 30
0.0
  9
$PLIMCHECK
 70
     0
  9
$PEXTMIN
 10
1.000000000000000E+20
 20
1.000000000000000E+20
 30
1.000000000000000E+20
  9
$PEXTMAX
 10
-1.000000000000000E+20
 20
-1.000000000000000E+20
 30
-1.000000000000000E+20
  9
$PLIMMIN
 10
0.0
 20
0.0
  9
$PLIMMAX
 10
12.0
 20
9.0
  9
$UNITMODE
 70
     0
  9
$VISRETAIN
 70
     1
  9
$PLINEGEN
 70
     0
  9
$PSLTSCALE
 70
     1
  9
$TREEDEPTH
 70
  3020
  9
$PICKSTYLE
 70
     1
  9
$CMLSTYLE
  2
STANDARD
  9
$CMLJUST
 70
     0
  9
$CMLSCALE
 40
1.0
  9
$SAVEIMAGES
 70
     1
  0
ENDSEC
  0
SECTION
  2
CLASSES
  0
CLASS
  1
ACDBDICTIONARYWDFLT
  2
AcDbDictionaryWithDefault
  3
ObjectDBX Classes
 90
    32768
280
     0
281
     0
  0
CLASS
  1
VISUALSTYLE
  2
AcDbVisualStyle
  3
ObjectDBX Classes
 90
     4095
280
     0
281
     0
  0
CLASS
  1
MATERIAL
  2
AcDbMaterial
  3
ObjectDBX Classes
 90
     1153
280
     0
281
     0
  0
CLASS
  1
SUN
  2
AcDbSun
  3
SCENEOE
 90
     1024
280
     0
281
     0
  0
CLASS
  1
DICTIONARYVAR
  2
AcDbDictionaryVar
  3
ObjectDBX Classes
 90
        0
280
     0
281
     0
  0
CLASS
  1
XRECORD
  2
AcDbXrecord
  3
AutoCAD 2000
 90
    32768
280
     0
281
     0
  0
CLASS
  1
LWPOLYLINE
  2
AcDbPolyline
  3
AutoCAD 2000
 90
    32768
280
     0
281
     1
  0
CLASS
  1
HATCH
  2
AcDbHatch
  3
AutoCAD 2000
 90
    32768
280
     0
281
     1
  0
CLASS
  1
ACDBPLACEHOLDER
  2
AcDbPlaceHolder
  3
ObjectDBX Classes
 90
        0
280
     0
281
     0
  0
CLASS
  1
LAYOUT
  2
AcDbLayout
  3
ObjectDBX Classes
 90
        0
280
     0
281
     0
  0
ENDSEC
  0
SECTION
  2
TABLES
  0
TABLE
  2
VPORT
  5
8
330
0
100
AcDbSymbolTable
 70
     1
  0
VPORT
  5
29
330
8
100
AcDbSymbolTableRecord
100
AcDbViewportTableRecord
  2
*ACTIVE
 70
     0
 10
0.0
 20
0.0
 11
1.0
 21
1.0
 12
0.0
 22
0.0
 13
0.0
 23
0.0
 14
0.5
 24
0.5
 15
0.5
 25
0.5
 16
0.0
 26
0.0
 36
1.0
 17
24.99959721597225
 27
24.99959721597225
 37
0.0
 40
49.9991944319445
 41
1.0
 42
50.0
 43
0.0
 44
0.0
 50
0.0
 51
0.0
 71
     0
 72
   100
 73
     1
 74
     3
 75
     0
 76
     0
 77
     0
 78
     0
  0
ENDTAB
  0
TABLE
  2
LTYPE
  5
5
330
0
100
AcDbSymbolTable
 70
     1
  0
LTYPE
  5
14
330
5
100
AcDbSymbolTableRecord
100
AcDbLinetypeTableRecord
  2
BYBLOCK
 70
     0
  3

 72
    65
 73
     0
 40
0.0
  0
LTYPE
  5
15
330
5
100
AcDbSymbolTableRecord
100
AcDbLinetypeTableRecord
  2
BYLAYER
 70
     0
  3

 72
    65
 73
     0
 40
0.0
  0
LTYPE
  5
16
330
5
100
AcDbSymbolTableRecord
100
AcDbLinetypeTableRecord
  2
CONTINUOUS
 70
     0
  3
Solid line
 72
    65
 73
     0
 40
0.0
  0
ENDTAB
  0
TABLE
  2
LAYER
  5
2
330
0
100
AcDbSymbolTable
 70
     2
  0
LAYER
  5
10
330
2
100
AcDbSymbolTableRecord
100
AcDbLayerTableRecord
  2
0
 70
     0
 62
     7
  6
CONTINUOUS
  0
LAYER
  5
40
330
2
100
AcDbSymbolTableRecord
100
AcDbLayerTableRecord
  2
TOP-PLATE
 70
     0
 62
     7
  6
CONTINUOUS
  0
ENDTAB
  0
TABLE
  2
STYLE
  5
3
330
0
100
AcDbSymbolTable
 70
     1
  0
STYLE
  5
11
330
3
100
AcDbSymbolTableRecord
100
AcDbTextStyleTableRecord
  2
STANDARD
 70
     0
 40
0.0
 41
1.0
 50
0.0
 71
     0
 42
0.2
  3
txt
  4

  0
ENDTAB
  0
TABLE
  2
VIEW
  5
6
330
0
100
AcDbSymbolTable
 70
     0
  0
ENDTAB
  0
TABLE
  2
UCS
  5
7
330
0
100
AcDbSymbolTable
 70
     0
  0
ENDTAB
  0
TABLE
  2
APPID
  5
9
330
0
100
AcDbSymbolTable
 70
     1
  0
APPID
  5
12
330
9
100
AcDbSymbolTableRecord
100
AcDbRegAppTableRecord
  2
ACAD
 70
     0
  0
ENDTAB
  0
TABLE
  2
DIMSTYLE
  5
A
330
0
100
AcDbSymbolTable
 70
     1
  0
DIMSTYLE
105
27
330
A
100
AcDbSymbolTableRecord
100
AcDbDimStyleTableRecord
  2
STANDARD
 70
     0
  3

  4

  5

  6

  7

 40
1.0
 41
0.18
 42
0.0625
 43
0.38
 44
0.18
 45
0.0
 46
0.0
 47
0.0
 48
0.0
140
0.18
141
0.09
142
0.0
143
25.4
144
1.0
145
0.0
146
1.0
147
0.09
 71
     0
 72
     0
 73
     1
 74
     1
 75
     0
 76
     0
 77
     0
 78
     0
170
     0
171
     2
172
     0
173
     0
174
     0
175
     0
176
     0
177
     0
178
     0
270
     2
271
     4
272
     4
273
     2
274
     2
340
11
275
     0
280
     0
281
     0
282
     0
283
     1
284
     0
285
     0
286
     0
287
     3
288
     0
  0
ENDTAB
  0
TABLE
  2
BLOCK_RECORD
  5
1
330
0
100
AcDbSymbolTable
 70
    37
  0
BLOCK_RECORD
  5
1F
330
1
100
AcDbSymbolTableRecord
100
AcDbBlockTableRecord
  2
*MODEL_SPACE
  0
BLOCK_RECORD
  5
1B
330
1
100
AcDbSymbolTableRecord
100
AcDbBlockTableRecord
  2
*PAPER_SPACE
  0
BLOCK_RECORD
  5
41
330
1
100
AcDbSymbolTableRecord
100
AcDbBlockTableRecord
  2
BLOCK_2
  0
BLOCK_RECORD
  5
46
330
1
100
AcDbSymbolTableRecord
100
AcDbBlockTableRecord
  2
BLOCK_3
  0
BLOCK_RECORD
  5
4B
330
1
100
AcDbSymbolTableRecord
100
AcDbBlockTableRecord
  2
BLOCK_4
  0
BLOCK_RECORD
  5
50
330
1
100
AcDbSymbolTableRecord
100
AcDbBlockTableRecord
  2
BLOCK_5
  0
BLOCK_RECORD
  5
55
330
1
100
AcDbSymbolTableRecord
100
AcDbBlockTableRecord
  2
BLOCK_6
  0
BLOCK_RECORD
  5
5A
330
1
100
AcDbSymbolTableRecord
100
AcDbBlockTableRecord
  2
BLOCK_7
  0
BLOCK_RECORD
  5
5F
330
1
100
AcDbSymbolTableRecord
100
AcDbBlockTableRecord
  2
BLOCK_8
  0
BLOCK_RECORD
  5
6A
330
1
100
AcDbSymbolTableRecord
100
AcDbBlockTableRecord
  2
BLOCK_9
  0
BLOCK_RECORD
  5
75
330
1
100
AcDbSymbolTableRecord
100
AcDbBlockTableRecord
  2
BLOCK_10
  0
BLOCK_RECORD
  5
80
330
1
100
AcDbSymbolTableRecord
100
AcDbBlockTableRecord
  2
BLOCK_11
  0
BLOCK_RECORD
  5
8B
330
1
100
AcDbSymbolTableRecord
100
AcDbBlockTableRecord
  2
BLOCK_12
  0
BLOCK_RECORD
  5
96
330
1
100
AcDbSymbolTableRecord
100
AcDbBlockTableRecord
  2
BLOCK_13
  0
BLOCK_RECORD
  5
A1
330
1
100
AcDbSymbolTableRecord
100
AcDbBlockTableRecord
  2
BLOCK_14
  0
BLOCK_RECORD
  5
AC
330
1
100
AcDbSymbolTableRecord
100
AcDbBlockTableRecord
  2
BLOCK_15
  0
BLOCK_RECORD
  5
B7
330
1
100
AcDbSymbolTableRecord
100
AcDbBlockTableRecord
  2
BLOCK_16
  0
BLOCK_RECORD
  5
C2
330
1
100
AcDbSymbolTableRecord
100
AcDbBlockTableRecord
  2
BLOCK_17
  0
BLOCK_RECORD
  5
CD
330
1
100
AcDbSymbolTableRecord
100
AcDbBlockTableRecord
  2
BLOCK_18
  0
BLOCK_RECORD
  5
D8
330
1
100
AcDbSymbolTableRecord
100
AcDbBlockTableRecord
  2
BLOCK_19
  0
BLOCK_RECORD
  5
E3
330
1
100
AcDbSymbolTableRecord
100
AcDbBlockTableRecord
  2
BLOCK_20
  0
BLOCK_RECORD
  5
EE
330
1
100
AcDbSymbolTableRecord
100
AcDbBlockTableRecord
  2
BLOCK_21
  0
BLOCK_RECORD
  5
F9
330
1
100
AcDbSymbolTableRecord
100
AcDbBlockTableRecord
  2
BLOCK_22
  0
BLOCK_RECORD
  5
104
330
1
100
AcDbSymbolTableRecord
100
AcDbBlockTableRecord
  2
BLOCK_23
  0
BLOCK_RECORD
  5
10F
330
1
100
AcDbSymbolTableRecord
100
AcDbBlockTableRecord
  2
BLOCK_24
  0
BLOCK_RECORD
  5
11A
330
1
100
AcDbSymbolTableRecord
100
AcDbBlockTableRecord
  2
BLOCK_25
  0
BLOCK_RECORD
  5
125
330
1
100
AcDbSymbolTableRecord
100
AcDbBlockTableRecord
  2
BLOCK_26
  0
BLOCK_RECORD
  5
130
330
1
100
AcDbSymbolTableRecord
100
AcDbBlockTableRecord
  2
BLOCK_27
  0
BLOCK_RECORD
  5
13B
330
1
100
AcDbSymbolTableRecord
100
AcDbBlockTableRecord
  2
BLOCK_28
  0
BLOCK_RECORD
  5
146
330
1
100
AcDbSymbolTableRecord
100
AcDbBlockTableRecord
  2
BLOCK_29
  0
BLOCK_RECORD
  5
151
330
1
100
AcDbSymbolTableRecord
100
AcDbBlockTableRecord
  2
BLOCK_30
  0
BLOCK_RECORD
  5
15C
330
1
100
AcDbSymbolTableRecord
100
AcDbBlockTableRecord
  2
BLOCK_31
  0
BLOCK_RECORD
  5
167
330
1
100
AcDbSymbolTableRecord
100
AcDbBlockTableRecord
  2
BLOCK_32
  0
BLOCK_RECORD
  5
172
330
1
100
AcDbSymbolTableRecord
100
AcDbBlockTableRecord
  2
BLOCK_33
  0
BLOCK_RECORD
  5
17D
330
1
100
AcDbSymbolTableRecord
100
AcDbBlockTableRecord
  2
BLOCK_34
  0
BLOCK_RECORD
  5
18A
330
1
100
AcDbSymbolTableRecord
100
AcDbBlockTableRecord
  2
BLOCK_35
  0
BLOCK_RECORD
  5
195
330
1
100
AcDbSymbolTableRecord
100
AcDbBlockTableRecord
  2
BLOCK_36
  0
BLOCK_RECORD
  5
1A2
330
1
100
AcDbSymbolTableRecord
100
AcDbBlockTableRecord
  2
BLOCK_37
  0
ENDTAB
  0
ENDSEC
  0
SECTION
  2
BLOCKS
  0
BLOCK
  5
20
330
1F
100
AcDbEntity
  8
0
100
AcDbBlockBegin
  2
*MODEL_SPACE
 70
     0
 10
0.0
 20
0.0
 30
0.0
  3
*MODEL_SPACE
  1

  0
ENDBLK
  5
21
330
1F
100
AcDbEntity
  8
0
100
AcDbBlockEnd
  0
BLOCK
  5
1C
330
1B
100
AcDbEntity
 67
     1
  8
0
100
AcDbBlockBegin
  2
*PAPER_SPACE
 70
     0
 10
0.0
 20
0.0
 30
0.0
  3
*PAPER_SPACE
  1

  0
ENDBLK
  5
1D
330
1B
100
AcDbEntity
 67
     1
  8
0
100
AcDbBlockEnd
  0
BLOCK
  5
43
330
41
100
AcDbEntity
  8
0
100
AcDbBlockBegin
  2
BLOCK_2
 70
     0
 10
0.0
 20
0.0
 30
0.0
  3
BLOCK_2
  1

  0
SPLINE
  5
45
330
41
100
AcDbEntity
  8
TOP-PLATE
 62
     7
100
AcDbSpline
210
0.0
220
0.0
230
1.0
 70
    11
 71
     3
 72
   716
 73
   712
 74
     0
 42
0.0000000001
 43
0.0000000001
 12
1.0
 22
0.0
 32
0.0
 13
1.0
 23
0.0
 33
0.0
 40
0.0
 40
0.0
 40
0.0
 40
0.0
 40
1.0
 40
1.0
 40
1.0
 40
2.0
 40
2.0
 40
2.0
 40
3.0
 40
3.0
 40
3.0
 40
4.0
 40
4.0
 40
4.0
 40
5.0
 40
5.0
 40
5.0
 40
6.0
 40
6.0
 40
6.0
 40
7.0
 40
7.0
 40
7.0
 40
8.0
 40
8.0
 40
8.0
 40
9.0
 40
9.0
 40
9.0
 40
10.0
 40
10.0
 40
10.0
 40
11.0
 40
11.0
 40
11.0
 40
12.0
 40
12.0
 40
12.0
 40
13.0
 40
13.0
 40
13.0
 40
14.0
 40
14.0
 40
14.0
 40
15.0
 40
15.0
 40
15.0
 40
16.0
 40
16.0
 40
16.0
 40
17.0
 40
17.0
 40
17.0
 40
18.0
 40
18.0
 40
18.0
 40
19.0
 40
19.0
 40
19.0
 40
20.0
 40
20.0
 40
20.0
 40
21.0
 40
21.0
 40
21.0
 40
22.0
 40
22.0
 40
22.0
 40
23.0
 40
23.0
 40
23.0
 40
24.0
 40
24.0
 40
24.0
 40
25.0
 40
25.0
 40
25.0
 40
26.0
 40
26.0
 40
26.0
 40
27.0
 40
27.0
 40
27.0
 40
28.0
 40
28.0
 40
28.0
 40
29.0
 40
29.0
 40
29.0
 40
30.0
 40
30.0
 40
30.0
 40
31.0
 40
31.0
 40
31.0
 40
32.0
 40
32.0
 40
32.0
 40
33.0
 40
33.0
 40
33.0
 40
34.0
 40
34.0
 40
34.0
 40
35.0
 40
35.0
 40
35.0
 40
36.0
 40
36.0
 40
36.0
 40
37.0
 40
37.0
 40
37.0
 40
38.0
 40
38.0
 40
38.0
 40
39.0
 40
39.0
 40
39.0
 40
40.0
 40
40.0
 40
40.0
 40
41.0
 40
41.0
 40
41.0
 40
42.0
 40
42.0
 40
42.0
 40
43.0
 40
43.0
 40
43.0
 40
44.0
 40
44.0
 40
44.0
 40
45.0
 40
45.0
 40
45.0
 40
46.0
 40
46.0
 40
46.0
 40
47.0
 40
47.0
 40
47.0
 40
48.0
 40
48.0
 40
48.0
 40
49.0
 40
49.0
 40
49.0
 40
50.0
 40
50.0
 40
50.0
 40
51.0
 40
51.0
 40
51.0
 40
52.0
 40
52.0
 40
52.0
 40
53.0
 40
53.0
 40
53.0
 40
54.0
 40
54.0
 40
54.0
 40
55.0
 40
55.0
 40
55.0
 40
56.0
 40
56.0
 40
56.0
 40
57.0
 40
57.0
 40
57.0
 40
58.0
 40
58.0
 40
58.0
 40
59.0
 40
59.0
 40
59.0
 40
60.0
 40
60.0
 40
60.0
 40
61.0
 40
61.0
 40
61.0
 40
62.0
 40
62.0
 40
62.0
 40
63.0
 40
63.0
 40
63.0
 40
64.0
 40
64.0
 40
64.0
 40
65.0
 40
65.0
 40
65.0
 40
66.0
 40
66.0
 40
66.0
 40
67.0
 40
67.0
 40
67.0
 40
68.0
 40
68.0
 40
68.0
 40
69.0
 40
69.0
 40
69.0
 40
70.0
 40
70.0
 40
70.0
 40
71.0
 40
71.0
 40
71.0
 40
72.0
 40
72.0
 40
72.0
 40
73.0
 40
73.0
 40
73.0
 40
74.0
 40
74.0
 40
74.0
 40
75.0
 40
75.0
 40
75.0
 40
76.0
 40
76.0
 40
76.0
 40
77.0
 40
77.0
 40
77.0
 40
78.0
 40
78.0
 40
78.0
 40
79.0
 40
79.0
 40
79.0
 40
80.0
 40
80.0
 40
80.0
 40
81.0
 40
81.0
 40
81.0
 40
82.0
 40
82.0
 40
82.0
 40
83.0
 40
83.0
 40
83.0
 40
84.0
 40
84.0
 40
84.0
 40
85.0
 40
85.0
 40
85.0
 40
86.0
 40
86.0
 40
86.0
 40
87.0
 40
87.0
 40
87.0
 40
88.0
 40
88.0
 40
88.0
 40
89.0
 40
89.0
 40
89.0
 40
90.0
 40
90.0
 40
90.0
 40
91.0
 40
91.0
 40
91.0
 40
92.0
 40
92.0
 40
92.0
 40
93.0
 40
93.0
 40
93.0
 40
94.0
 40
94.0
 40
94.0
 40
95.0
 40
95.0
 40
95.0
 40
96.0
 40
96.0
 40
96.0
 40
97.0
 40
97.0
 40
97.0
 40
98.0
 40
98.0
 40
98.0
 40
99.0
 40
99.0
 40
99.0
 40
100.0
 40
100.0
 40
100.0
 40
101.0
 40
101.0
 40
101.0
 40
102.0
 40
102.0
 40
102.0
 40
103.0
 40
103.0
 40
103.0
 40
104.0
 40
104.0
 40
104.0
 40
105.0
 40
105.0
 40
105.0
 40
106.0
 40
106.0
 40
106.0
 40
107.0
 40
107.0
 40
107.0
 40
108.0
 40
108.0
 40
108.0
 40
109.0
 40
109.0
 40
109.0
 40
110.0
 40
110.0
 40
110.0
 40
111.0
 40
111.0
 40
111.0
 40
112.0
 40
112.0
 40
112.0
 40
113.0
 40
113.0
 40
113.0
 40
114.0
 40
114.0
 40
114.0
 40
115.0
 40
115.0
 40
115.0
 40
116.0
 40
116.0
 40
116.0
 40
117.0
 40
117.0
 40
117.0
 40
118.0
 40
118.0
 40
118.0
 40
119.0
 40
119.0
 40
119.0
 40
120.0
 40
120.0
 40
120.0
 40
121.0
 40
121.0
 40
121.0
 40
122.0
 40
122.0
 40
122.0
 40
123.0
 40
123.0
 40
123.0
 40
124.0
 40
124.0
 40
124.0
 40
125.0
 40
125.0
 40
125.0
 40
126.0
 40
126.0
 40
126.0
 40
127.0
 40
127.0
 40
127.0
 40
128.0
 40
128.0
 40
128.0
 40
129.0
 40
129.0
 40
129.0
 40
130.0
 40
130.0
 40
130.0
 40
131.0
 40
131.0
 40
131.0
 40
132.0
 40
132.0
 40
132.0
 40
133.0
 40
133.0
 40
133.0
 40
134.0
 40
134.0
 40
134.0
 40
135.0
 40
135.0
 40
135.0
 40
136.0
 40
136.0
 40
136.0
 40
137.0
 40
137.0
 40
137.0
 40
138.0
 40
138.0
 40
138.0
 40
139.0
 40
139.0
 40
139.0
 40
140.0
 40
140.0
 40
140.0
 40
141.0
 40
141.0
 40
141.0
 40
142.0
 40
142.0
 40
142.0
 40
143.0
 40
143.0
 40
143.0
 40
144.0
 40
144.0
 40
144.0
 40
145.0
 40
145.0
 40
145.0
 40
146.0
 40
146.0
 40
146.0
 40
147.0
 40
147.0
 40
147.0
 40
148.0
 40
148.0
 40
148.0
 40
149.0
 40
149.0
 40
149.0
 40
150.0
 40
150.0
 40
150.0
 40
151.0
 40
151.0
 40
151.0
 40
152.0
 40
152.0
 40
152.0
 40
153.0
 40
153.0
 40
153.0
 40
154.0
 40
154.0
 40
154.0
 40
155.0
 40
155.0
 40
155.0
 40
156.0
 40
156.0
 40
156.0
 40
157.0
 40
157.0
 40
157.0
 40
158.0
 40
158.0
 40
158.0
 40
159.0
 40
159.0
 40
159.0
 40
160.0
 40
160.0
 40
160.0
 40
161.0
 40
161.0
 40
161.0
 40
162.0
 40
162.0
 40
162.0
 40
163.0
 40
163.0
 40
163.0
 40
164.0
 40
164.0
 40
164.0
 40
165.0
 40
165.0
 40
165.0
 40
166.0
 40
166.0
 40
166.0
 40
167.0
 40
167.0
 40
167.0
 40
168.0
 40
168.0
 40
168.0
 40
169.0
 40
169.0
 40
169.0
 40
170.0
 40
170.0
 40
170.0
 40
171.0
 40
171.0
 40
171.0
 40
172.0
 40
172.0
 40
172.0
 40
173.0
 40
173.0
 40
173.0
 40
174.0
 40
174.0
 40
174.0
 40
175.0
 40
175.0
 40
175.0
 40
176.0
 40
176.0
 40
176.0
 40
177.0
 40
177.0
 40
177.0
 40
178.0
 40
178.0
 40
178.0
 40
179.0
 40
179.0
 40
179.0
 40
180.0
 40
180.0
 40
180.0
 40
181.0
 40
181.0
 40
181.0
 40
182.0
 40
182.0
 40
182.0
 40
183.0
 40
183.0
 40
183.0
 40
184.0
 40
184.0
 40
184.0
 40
185.0
 40
185.0
 40
185.0
 40
186.0
 40
186.0
 40
186.0
 40
187.0
 40
187.0
 40
187.0
 40
188.0
 40
188.0
 40
188.0
 40
189.0
 40
189.0
 40
189.0
 40
190.0
 40
190.0
 40
190.0
 40
191.0
 40
191.0
 40
191.0
 40
192.0
 40
192.0
 40
192.0
 40
193.0
 40
193.0
 40
193.0
 40
194.0
 40
194.0
 40
194.0
 40
195.0
 40
195.0
 40
195.0
 40
196.0
 40
196.0
 40
196.0
 40
197.0
 40
197.0
 40
197.0
 40
198.0
 40
198.0
 40
198.0
 40
199.0
 40
199.0
 40
199.0
 40
200.0
 40
200.0
 40
200.0
 40
201.0
 40
201.0
 40
201.0
 40
202.0
 40
202.0
 40
202.0
 40
203.0
 40
203.0
 40
203.0
 40
204.0
 40
204.0
 40
204.0
 40
205.0
 40
205.0
 40
205.0
 40
206.0
 40
206.0
 40
206.0
 40
207.0
 40
207.0
 40
207.0
 40
208.0
 40
208.0
 40
208.0
 40
209.0
 40
209.0
 40
209.0
 40
210.0
 40
210.0
 40
210.0
 40
211.0
 40
211.0
 40
211.0
 40
212.0
 40
212.0
 40
212.0
 40
213.0
 40
213.0
 40
213.0
 40
214.0
 40
214.0
 40
214.0
 40
215.0
 40
215.0
 40
215.0
 40
216.0
 40
216.0
 40
216.0
 40
217.0
 40
217.0
 40
217.0
 40
218.0
 40
218.0
 40
218.0
 40
219.0
 40
219.0
 40
219.0
 40
220.0
 40
220.0
 40
220.0
 40
221.0
 40
221.0
 40
221.0
 40
222.0
 40
222.0
 40
222.0
 40
223.0
 40
223.0
 40
223.0
 40
224.0
 40
224.0
 40
224.0
 40
225.0
 40
225.0
 40
225.0
 40
226.0
 40
226.0
 40
226.0
 40
227.0
 40
227.0
 40
227.0
 40
228.0
 40
228.0
 40
228.0
 40
229.0
 40
229.0
 40
229.0
 40
230.0
 40
230.0
 40
230.0
 40
231.0
 40
231.0
 40
231.0
 40
232.0
 40
232.0
 40
232.0
 40
233.0
 40
233.0
 40
233.0
 40
234.0
 40
234.0
 40
234.0
 40
235.0
 40
235.0
 40
235.0
 40
236.0
 40
236.0
 40
236.0
 40
237.0
 40
237.0
 40
237.0
 40
237.0
 10
95.93995944634237
 20
117.4666515850198
 30
0.0
 10
95.93995944634237
 20
117.4666515850198
 30
0.0
 10
95.9094918831447
 20
117.6825514127107
 30
0.0
 10
95.9094918831447
 20
117.6825514127107
 30
0.0
 10
95.9094918831447
 20
117.6825514127107
 30
0.0
 10
95.85867672473726
 20
117.8908289666412
 30
0.0
 10
95.85867672473726
 20
117.8908289666412
 30
0.0
 10
95.85867672473726
 20
117.8908289666412
 30
0.0
 10
95.78501627689326
 20
118.0914842468099
 30
0.0
 10
95.78501627689326
 20
118.0914842468099
 30
0.0
 10
95.78501627689326
 20
118.0914842468099
 30
0.0
 10
95.69105129753306
 20
118.2819980271442
 30
0.0
 10
95.69105129753306
 20
118.2819980271442
 30
0.0
 10
95.69105129753306
 20
118.2819980271442
 30
0.0
 10
95.57673872296313
 20
118.4597864860302
 30
0.0
 10
95.57673872296313
 20
118.4597864860302
 30
0.0
 10
95.57673872296313
 20
118.4597864860302
 30
0.0
 10
95.44466237479736
 20
118.6274334450808
 30
0.0
 10
95.44466237479736
 20
118.6274334450808
 30
0.0
 10
95.44466237479736
 20
118.6274334450808
 30
0.0
 10
95.29480072118899
 20
118.7772950986892
 30
0.0
 10
95.29480072118899
 20
118.7772950986892
 30
0.0
 10
95.29480072118899
 20
118.7772950986892
 30
0.0
 10
95.1271752939848
 20
118.9119122047753
 30
0.0
 10
95.1271752939848
 20
118.9119122047753
 30
0.0
 10
95.1271752939848
 20
118.9119122047753
 30
0.0
 10
94.9442837874116
 20
119.0287440054192
 30
0.0
 10
94.9442837874116
 20
119.0287440054192
 30
0.0
 10
94.9442837874116
 20
119.0287440054192
 30
0.0
 10
94.74871002308333
 20
119.1252712745462
 30
0.0
 10
94.74871002308333
 20
119.1252712745462
 30
0.0
 10
94.74871002308333
 20
119.1252712745462
 30
0.0
 10
93.66921088462708
 20
119.5824785091324
 30
0.0
 10
93.66921088462708
 20
119.5824785091324
 30
0.0
 10
93.66921088462708
 20
119.5824785091324
 30
0.0
 10
92.52875508792869
 20
120.0625310331555
 30
0.0
 10
92.52875508792869
 20
120.0625310331555
 30
0.0
 10
92.52875508792869
 20
120.0625310331555
 30
0.0
 10
91.32732110114137
 20
120.5654503784613
 30
0.0
 10
91.32732110114137
 20
120.5654503784613
 30
0.0
 10
91.32732110114137
 20
120.5654503784613
 30
0.0
 10
90.07003350379944
 20
121.0886957871304
 30
0.0
 10
90.07003350379944
 20
121.0886957871304
 30
0.0
 10
90.07003350379944
 20
121.0886957871304
 30
0.0
 10
88.75684923220933
 20
121.6246234535549
 30
0.0
 10
88.75684923220933
 20
121.6246234535549
 30
0.0
 10
88.75684923220933
 20
121.6246234535549
 30
0.0
 10
87.3903305761382
 20
122.1758171993478
 30
0.0
 10
87.3903305761382
 20
122.1758171993478
 30
0.0
 10
87.3903305761382
 20
122.1758171993478
 30
0.0
 10
85.97047753558604
 20
122.7396932028961
 30
0.0
 10
85.97047753558604
 20
122.7396932028961
 30
0.0
 10
85.97047753558604
 20
122.7396932028961
 30
0.0
 10
84.49980933662646
 20
123.3111914802055
 30
0.0
 10
84.49980933662646
 20
123.3111914802055
 30
0.0
 10
84.49980933662646
 20
123.3111914802055
 30
0.0
 10
82.98342902694695
 20
123.890312031276
 30
0.0
 10
82.98342902694695
 20
123.890312031276
 30
0.0
 10
82.98342902694695
 20
123.890312031276
 30
0.0
 10
81.41879584862717
 20
124.4719733402668
 30
0.0
 10
81.41879584862717
 20
124.4719733402668
 30
0.0
 10
81.41879584862717
 20
124.4719733402668
 30
0.0
 10
79.8084290277407
 20
125.0536346492577
 30
0.0
 10
79.8084290277407
 20
125.0536346492577
 30
0.0
 10
79.8084290277407
 20
125.0536346492577
 30
0.0
 10
78.15743161197507
 20
125.6352959582486
 30
0.0
 10
78.15743161197507
 20
125.6352959582486
 30
0.0
 10
78.15743161197507
 20
125.6352959582486
 30
0.0
 10
76.46324131156311
 20
126.2144165093191
 30
0.0
 10
76.46324131156311
 20
126.2144165093191
 30
0.0
 10
76.46324131156311
 20
126.2144165093191
 30
0.0
 10
74.73096117419236
 20
126.7859147866285
 30
0.0
 10
74.73096117419236
 20
126.7859147866285
 30
0.0
 10
74.73096117419236
 20
126.7859147866285
 30
0.0
 10
72.96059119986282
 20
127.3472500322563
 30
0.0
 10
72.96059119986282
 20
127.3472500322563
 30
0.0
 10
72.96059119986282
 20
127.3472500322563
 30
0.0
 10
71.15719137256845
 20
127.8984222462028
 30
0.0
 10
71.15719137256845
 20
127.8984222462028
 30
0.0
 10
71.15719137256845
 20
127.8984222462028
 30
0.0
 10
69.31822093438886
 20
128.4369122023941
 30
0.0
 10
69.31822093438886
 20
128.4369122023941
 30
0.0
 10
69.31822093438886
 20
128.4369122023941
 30
0.0
 10
67.44624217509123
 20
128.9576168531428
 30
0.0
 10
67.44624217509123
 20
128.9576168531428
 30
0.0
 10
67.44624217509123
 20
128.9576168531428
 30
0.0
 10
65.54633661051629
 20
129.4605361984489
 30
0.0
 10
65.54633661051629
 20
129.4605361984489
 30
0.0
 10
65.54633661051629
 20
129.4605361984489
 30
0.0
 10
63.61592041905012
 20
129.9405887224717
 30
0.0
 10
63.61592041905012
 20
129.9405887224717
 30
0.0
 10
63.61592041905012
 20
129.9405887224717
 30
0.0
 10
61.66268046999416
 20
130.397795957058
 30
0.0
 10
61.66268046999416
 20
130.397795957058
 30
0.0
 10
61.66268046999416
 20
130.397795957058
 30
0.0
 10
59.68147065196732
 20
130.8295956124404
 30
0.0
 10
59.68147065196732
 20
130.8295956124404
 30
0.0
 10
59.68147065196732
 20
130.8295956124404
 30
0.0
 10
57.6799563024243
 20
131.2309061727785
 30
0.0
 10
57.6799563024243
 20
131.2309061727785
 30
0.0
 10
57.6799563024243
 20
131.2309061727785
 30
0.0
 10
55.65557513159793
 20
131.5992084119988
 30
0.0
 10
55.65557513159793
 20
131.5992084119988
 30
0.0
 10
55.65557513159793
 20
131.5992084119988
 30
0.0
 10
53.61594941324933
 20
131.9344807982536
 30
0.0
 10
53.61594941324933
 20
131.9344807982536
 30
0.0
 10
53.61594941324933
 20
131.9344807982536
 30
0.0
 10
51.55601916338453
 20
132.2342041054704
 30
0.0
 10
51.55601916338453
 20
132.2342041054704
 30
0.0
 10
51.55601916338453
 20
132.2342041054704
 30
0.0
 10
49.48082283415073
 20
132.4932968178083
 30
0.0
 10
49.48082283415073
 20
132.4932968178083
 30
0.0
 10
49.48082283415073
 20
132.4932968178083
 30
0.0
 10
47.39294424716185
 20
132.7117374034196
 30
0.0
 10
47.39294424716185
 20
132.7117374034196
 30
0.0
 10
47.39294424716185
 20
132.7117374034196
 30
0.0
 10
45.29490262849148
 20
132.8869851043852
 30
0.0
 10
45.29490262849148
 20
132.8869851043852
 30
0.0
 10
45.29490262849148
 20
132.8869851043852
 30
0.0
 10
43.18417875206604
 20
133.0139799367099
 30
0.0
 10
43.18417875206604
 20
133.0139799367099
 30
0.0
 10
43.18417875206604
 20
133.0139799367099
 30
0.0
 10
41.06835182795307
 20
133.0927219003946
 30
0.0
 10
41.06835182795307
 20
133.0927219003946
 30
0.0
 10
41.06835182795307
 20
133.0927219003946
 30
0.0
 10
38.94490263007898
 20
133.1206702375187
 30
0.0
 10
38.94490263007898
 20
133.1206702375187
 30
0.0
 10
38.94490263007898
 20
133.1206702375187
 30
0.0
 10
38.80266325023173
 20
133.1206702375187
 30
0.0
 10
38.80266325023173
 20
133.1206702375187
 30
0.0
 10
38.80266325023173
 20
133.1206702375187
 30
0.0
 10
38.58168190669974
 20
133.1206702375187
 30
0.0
 10
38.58168190669974
 20
133.1206702375187
 30
0.0
 10
38.58168190669974
 20
133.1206702375187
 30
0.0
 10
38.28452088925015
 20
133.1206702375187
 30
0.0
 10
38.28452088925015
 20
133.1206702375187
 30
0.0
 10
38.28452088925015
 20
133.1206702375187
 30
0.0
 10
37.91875940795053
 20
133.1206702375187
 30
0.0
 10
37.91875940795053
 20
133.1206702375187
 30
0.0
 10
37.91875940795053
 20
133.1206702375187
 30
0.0
 10
37.4895005104884
 20
133.1206702375187
 30
0.0
 10
37.4895005104884
 20
133.1206702375187
 30
0.0
 10
37.4895005104884
 20
133.1206702375187
 30
0.0
 10
36.99672266501698
 20
133.1206702375187
 30
0.0
 10
36.99672266501698
 20
133.1206702375187
 30
0.0
 10
36.99672266501698
 20
133.1206702375187
 30
0.0
 10
36.45317272483169
 20
133.1206702375187
 30
0.0
 10
36.45317272483169
 20
133.1206702375187
 30
0.0
 10
36.45317272483169
 20
133.1206702375187
 30
0.0
 10
35.85626686831858
 20
133.1206702375187
 30
0.0
 10
35.85626686831858
 20
133.1206702375187
 30
0.0
 10
35.85626686831858
 20
133.1206702375187
 30
0.0
 10
35.21618965900595
 20
133.1206702375187
 30
0.0
 10
35.21618965900595
 20
133.1206702375187
 30
0.0
 10
35.21618965900595
 20
133.1206702375187
 30
0.0
 10
34.53802261273452
 20
133.1206702375187
 30
0.0
 10
34.53802261273452
 20
133.1206702375187
 30
0.0
 10
34.53802261273452
 20
133.1206702375187
 30
0.0
 10
33.8242634237311
 20
133.1206702375187
 30
0.0
 10
33.8242634237311
 20
133.1206702375187
 30
0.0
 10
33.8242634237311
 20
133.1206702375187
 30
0.0
 10
33.08259896129716
 20
133.1206702375187
 30
0.0
 10
33.08259896129716
 20
133.1206702375187
 30
0.0
 10
33.08259896129716
 20
133.1206702375187
 30
0.0
 10
32.31550538781272
 20
133.1206702375187
 30
0.0
 10
32.31550538781272
 20
133.1206702375187
 30
0.0
 10
32.31550538781272
 20
133.1206702375187
 30
0.0
 10
31.53064804073246
 20
133.1206702375187
 30
0.0
 10
31.53064804073246
 20
133.1206702375187
 30
0.0
 10
31.53064804073246
 20
133.1206702375187
 30
0.0
 10
30.73054614612997
 20
133.1206702375187
 30
0.0
 10
30.73054614612997
 20
133.1206702375187
 30
0.0
 10
30.73054614612997
 20
133.1206702375187
 30
0.0
 10
29.92282197776636
 20
133.1206702375187
 30
0.0
 10
29.92282197776636
 20
133.1206702375187
 30
0.0
 10
29.92282197776636
 20
133.1206702375187
 30
0.0
 10
29.11003782540879
 20
133.1206702375187
 30
0.0
 10
29.11003782540879
 20
133.1206702375187
 30
0.0
 10
29.11003782540879
 20
133.1206702375187
 30
0.0
 10
28.29977289912481
 20
133.1206702375187
 30
0.0
 10
28.29977289912481
 20
133.1206702375187
 30
0.0
 10
28.29977289912481
 20
133.1206702375187
 30
0.0
 10
27.49458948868158
 20
133.1206702375187
 30
0.0
 10
27.49458948868158
 20
133.1206702375187
 30
0.0
 10
27.49458948868158
 20
133.1206702375187
 30
0.0
 10
26.7021098678402
 20
133.1206702375187
 30
0.0
 10
26.7021098678402
 20
133.1206702375187
 30
0.0
 10
26.7021098678402
 20
133.1206702375187
 30
0.0
 10
25.92741555244142
 20
133.1206702375187
 30
0.0
 10
25.92741555244142
 20
133.1206702375187
 30
0.0
 10
25.92741555244142
 20
133.1206702375187
 30
0.0
 10
25.17302576855884
 20
133.1206702375187
 30
0.0
 10
25.17302576855884
 20
133.1206702375187
 30
0.0
 10
25.17302576855884
 20
133.1206702375187
 30
0.0
 10
24.44404356387998
 20
133.1206702375187
 30
0.0
 10
24.44404356387998
 20
133.1206702375187
 30
0.0
 10
24.44404356387998
 20
133.1206702375187
 30
0.0
 10
23.75063197008631
 20
133.1206702375187
 30
0.0
 10
23.75063197008631
 20
133.1206702375187
 30
0.0
 10
23.75063197008631
 20
133.1206702375187
 30
0.0
 10
23.0902286974107
 20
133.1206702375187
 30
0.0
 10
23.0902286974107
 20
133.1206702375187
 30
0.0
 10
23.0902286974107
 20
133.1206702375187
 30
0.0
 10
22.47555906730178
 20
133.1206702375187
 30
0.0
 10
22.47555906730178
 20
133.1206702375187
 30
0.0
 10
22.47555906730178
 20
133.1206702375187
 30
0.0
 10
21.9040607899924
 20
133.1206702375187
 30
0.0
 10
21.9040607899924
 20
133.1206702375187
 30
0.0
 10
21.9040607899924
 20
133.1206702375187
 30
0.0
 10
21.38843765508442
 20
133.1206702375187
 30
0.0
 10
21.38843765508442
 20
133.1206702375187
 30
0.0
 10
21.38843765508442
 20
133.1206702375187
 30
0.0
 10
20.92868966257782
 20
133.1206702375187
 30
0.0
 10
20.92868966257782
 20
133.1206702375187
 30
0.0
 10
20.92868966257782
 20
133.1206702375187
 30
0.0
 10
20.53246061808053
 20
133.1206702375187
 30
0.0
 10
20.53246061808053
 20
133.1206702375187
 30
0.0
 10
20.53246061808053
 20
133.1206702375187
 30
0.0
 10
20.20224821581933
 20
133.1206702375187
 30
0.0
 10
20.20224821581933
 20
133.1206702375187
 30
0.0
 10
20.20224821581933
 20
133.1206702375187
 30
0.0
 10
19.94571779324891
 20
133.1206702375187
 30
0.0
 10
19.94571779324891
 20
133.1206702375187
 30
0.0
 10
19.94571779324891
 20
133.1206702375187
 30
0.0
 10
19.48596980074232
 20
133.1181294795983
 30
0.0
 10
19.48596980074232
 20
133.1181294795983
 30
0.0
 10
19.48596980074232
 20
133.1181294795983
 30
0.0
 10
19.01099879256029
 20
133.1130479637576
 30
0.0
 10
19.01099879256029
 20
133.1130479637576
 30
0.0
 10
19.01099879256029
 20
133.1130479637576
 30
0.0
 10
18.52332399477639
 20
133.1054256899965
 30
0.0
 10
18.52332399477639
 20
133.1054256899965
 30
0.0
 10
18.52332399477639
 20
133.1054256899965
 30
0.0
 10
18.02292387554385
 20
133.0927219003946
 30
0.0
 10
18.02292387554385
 20
133.0927219003946
 30
0.0
 10
18.02292387554385
 20
133.0927219003946
 30
0.0
 10
17.50986303040302
 20
133.0774988847195
 30
0.0
 10
17.50986303040302
 20
133.0774988847195
 30
0.0
 10
17.50986303040302
 20
133.0774988847195
 30
0.0
 10
16.98407686381355
 20
133.0546320634358
 30
0.0
 10
16.98407686381355
 20
133.0546320634358
 30
0.0
 10
16.98407686381355
 20
133.0546320634358
 30
0.0
 10
16.44812766554258
 20
133.0292244842321
 30
0.0
 10
16.44812766554258
 20
133.0292244842321
 30
0.0
 10
16.44812766554258
 20
133.0292244842321
 30
0.0
 10
15.90203696743692
 20
132.9962161631141
 30
0.0
 10
15.90203696743692
 20
132.9962161631141
 30
0.0
 10
15.90203696743692
 20
132.9962161631141
 30
0.0
 10
15.3432424797294
 20
132.9606455522289
 30
0.0
 10
15.3432424797294
 20
132.9606455522289
 30
0.0
 10
15.3432424797294
 20
132.9606455522289
 30
0.0
 10
14.77680418641397
 20
132.914933441509
 30
0.0
 10
14.77680418641397
 20
132.914933441509
 30
0.0
 10
14.77680418641397
 20
132.914933441509
 30
0.0
 10
14.20022439326385
 20
132.8641398149483
 30
0.0
 10
14.20022439326385
 20
132.8641398149483
 30
0.0
 10
14.20022439326385
 20
132.8641398149483
 30
0.0
 10
13.61604385819939
 20
132.8082431407001
 30
0.0
 10
13.61604385819939
 20
132.8082431407001
 30
0.0
 10
13.61604385819939
 20
132.8082431407001
 30
0.0
 10
13.02421951752703
 20
132.7422049666175
 30
0.0
 10
13.02421951752703
 20
132.7422049666175
 30
0.0
 10
13.02421951752703
 20
132.7422049666175
 30
0.0
 10
12.42223214517319
 20
132.6710852766936
 30
0.0
 10
12.42223214517319
 20
132.6710852766936
 30
0.0
 10
12.42223214517319
 20
132.6710852766936
 30
0.0
 10
11.8151632569786
 20
132.5898025550885
 30
0.0
 10
11.8151632569786
 20
132.5898025550885
 30
0.0
 10
11.8151632569786
 20
132.5898025550885
 30
0.0
 10
11.20049362686968
 20
132.500919091569
 30
0.0
 10
11.20049362686968
 20
132.500919091569
 30
0.0
 10
11.20049362686968
 20
132.500919091569
 30
0.0
 10
10.58074248092002
 20
132.4043918224417
 30
0.0
 10
10.58074248092002
 20
132.4043918224417
 30
0.0
 10
10.58074248092002
 20
132.4043918224417
 30
0.0
 10
9.95588828728283
 20
132.2951607637125
 30
0.0
 10
9.95588828728283
 20
132.2951607637125
 30
0.0
 10
9.95588828728283
 20
132.2951607637125
 30
0.0
 10
9.325974109652323
 20
132.1808697209893
 30
0.0
 10
9.325974109652323
 20
132.1808697209893
 30
0.0
 10
9.325974109652323
 20
132.1808697209893
 30
0.0
 10
8.690978416179787
 20
132.0538748886646
 30
0.0
 10
8.690978416179787
 20
132.0538748886646
 30
0.0
 10
8.690978416179787
 20
132.0538748886646
 30
0.0
 10
8.053441964788163
 20
131.9167170246578
 30
0.0
 10
8.053441964788163
 20
131.9167170246578
 30
0.0
 10
8.053441964788163
 20
131.9167170246578
 30
0.0
 10
7.413364755474885
 20
131.7693961289701
 30
0.0
 10
7.413364755474885
 20
131.7693961289701
 30
0.0
 10
7.413364755474885
 20
131.7693961289701
 30
0.0
 10
6.768184498474722
 20
131.6093714436803
 30
0.0
 10
6.768184498474722
 20
131.6093714436803
 30
0.0
 10
6.768184498474722
 20
131.6093714436803
 30
0.0
 10
6.123025773321341
 20
131.4391837267089
 30
0.0
 10
6.123025773321341
 20
131.4391837267089
 30
0.0
 10
6.123025773321341
 20
131.4391837267089
 30
0.0
 10
5.475326290247589
 20
131.2563137519822
 30
0.0
 10
5.475326290247589
 20
131.2563137519822
 30
0.0
 10
5.475326290247589
 20
131.2563137519822
 30
0.0
 10
4.827626807174157
 20
131.0632807455743
 30
0.0
 10
4.827626807174157
 20
131.0632807455743
 30
0.0
 10
4.827626807174157
 20
131.0632807455743
 30
0.0
 10
4.177386566179713
 20
130.8575224177177
 30
0.0
 10
4.177386566179713
 20
130.8575224177177
 30
0.0
 10
4.177386566179713
 20
130.8575224177177
 30
0.0
 10
3.529687083106281
 20
130.6365410741858
 30
0.0
 10
3.529687083106281
 20
130.6365410741858
 30
0.0
 10
3.529687083106281
 20
130.6365410741858
 30
0.0
 10
2.881987600032208
 20
130.4028774728987
 30
0.0
 10
2.881987600032208
 20
130.4028774728987
 30
0.0
 10
2.881987600032208
 20
130.4028774728987
 30
0.0
 10
2.234288116958456
 20
130.1564885501633
 30
0.0
 10
2.234288116958456
 20
130.1564885501633
 30
0.0
 10
2.234288116958456
 20
130.1564885501633
 30
0.0
 10
1.589129391805076
 20
129.8948766117518
 30
0.0
 10
1.589129391805076
 20
129.8948766117518
 30
0.0
 10
1.589129391805076
 20
129.8948766117518
 30
0.0
 10
0.9465114245720668
 20
129.6205608837388
 30
0.0
 10
0.9465114245720668
 20
129.6205608837388
 30
0.0
 10
0.9465114245720668
 20
129.6205608837388
 30
0.0
 10
0.7585599340049054
 20
129.5392781621337
 30
0.0
 10
0.7585599340049054
 20
129.5392781621337
 30
0.0
 10
0.7585599340049054
 20
129.5392781621337
 30
0.0
 10
0.5553638959161551
 20
129.4452916509267
 30
0.0
 10
0.5553638959161551
 20
129.4452916509267
 30
0.0
 10
0.5553638959161551
 20
129.4452916509267
 30
0.0
 10
0.3369233103038909
 20
129.346223623879
 30
0.0
 10
0.3369233103038909
 20
129.346223623879
 30
0.0
 10
0.3369233103038909
 20
129.346223623879
 30
0.0
 10
0.1057789350910514
 20
129.2344733390762
 30
0.0
 10
0.1057789350910514
 20
129.2344733390762
 30
0.0
 10
0.1057789350910514
 20
129.2344733390762
 30
0.0
 10
-0.1406099876453022
 20
129.1176200065862
 30
0.0
 10
-0.1406099876453022
 20
129.1176200065862
 30
0.0
 10
-0.1406099876453022
 20
129.1176200065862
 30
0.0
 10
-0.3971404102157182
 20
128.9957066901016
 30
0.0
 10
-0.3971404102157182
 20
128.9957066901016
 30
0.0
 10
-0.3971404102157182
 20
128.9957066901016
 30
0.0
 10
-0.6663746223879929
 20
128.8636303419362
 30
0.0
 10
-0.6663746223879929
 20
128.8636303419362
 30
0.0
 10
-0.6663746223879929
 20
128.8636303419362
 30
0.0
 10
-0.9457933980885376
 20
128.72901323585
 30
0.0
 10
-0.9457933980885376
 20
128.72901323585
 30
0.0
 10
-0.9457933980885376
 20
128.72901323585
 30
0.0
 10
-1.235353673623786
 20
128.5893146139231
 30
0.0
 10
-1.235353673623786
 20
128.5893146139231
 30
0.0
 10
-1.235353673623786
 20
128.5893146139231
 30
0.0
 10
-1.53505544899374
 20
128.4470752340756
 30
0.0
 10
-1.53505544899374
 20
128.4470752340756
 30
0.0
 10
-1.53505544899374
 20
128.4470752340756
 30
0.0
 10
-1.84240102997159
 20
128.3022950963079
 30
0.0
 10
-1.84240102997159
 20
128.3022950963079
 30
0.0
 10
-1.84240102997159
 20
128.3022950963079
 30
0.0
 10
-2.157368884710557
 20
128.1549742006203
 30
0.0
 10
-2.157368884710557
 20
128.1549742006203
 30
0.0
 10
-2.157368884710557
 20
128.1549742006203
 30
0.0
 10
-2.479937481363535
 20
128.0076533049319
 30
0.0
 10
-2.479937481363535
 20
128.0076533049319
 30
0.0
 10
-2.479937481363535
 20
128.0076533049319
 30
0.0
 10
-2.810149883624732
 20
127.8577916513236
 30
0.0
 10
-2.810149883624732
 20
127.8577916513236
 30
0.0
 10
-2.810149883624732
 20
127.8577916513236
 30
0.0
 10
-3.14542226988021
 20
127.7104707556359
 30
0.0
 10
-3.14542226988021
 20
127.7104707556359
 30
0.0
 10
-3.14542226988021
 20
127.7104707556359
 30
0.0
 10
-3.485776171976112
 20
127.5656906178683
 30
0.0
 10
-3.485776171976112
 20
127.5656906178683
 30
0.0
 10
-3.485776171976112
 20
127.5656906178683
 30
0.0
 10
-3.831233121759539
 20
127.4209104801007
 30
0.0
 10
-3.831233121759539
 20
127.4209104801007
 30
0.0
 10
-3.831233121759539
 20
127.4209104801007
 30
0.0
 10
-4.179209297616556
 20
127.2812118581738
 30
0.0
 10
-4.179209297616556
 20
127.2812118581738
 30
0.0
 10
-4.179209297616556
 20
127.2812118581738
 30
0.0
 10
-4.532266989313994
 20
127.144053994167
 30
0.0
 10
-4.532266989313994
 20
127.144053994167
 30
0.0
 10
-4.532266989313994
 20
127.144053994167
 30
0.0
 10
-4.885324681012075
 20
127.0119776460015
 30
0.0
 10
-4.885324681012075
 20
127.0119776460015
 30
0.0
 10
-4.885324681012075
 20
127.0119776460015
 30
0.0
 10
-5.240923130629565
 20
126.8875020397497
 30
0.0
 10
-5.240923130629565
 20
126.8875020397497
 30
0.0
 10
-5.240923130629565
 20
126.8875020397497
 30
0.0
 10
-5.596521580248338
 20
126.7681294811859
 30
0.0
 10
-5.596521580248338
 20
126.7681294811859
 30
0.0
 10
-5.596521580248338
 20
126.7681294811859
 30
0.0
 10
-5.95212002986647
 20
126.6563791963831
 30
0.0
 10
-5.95212002986647
 20
126.6563791963831
 30
0.0
 10
-5.95212002986647
 20
126.6563791963831
 30
0.0
 10
-6.307718479484602
 20
126.5522296534949
 30
0.0
 10
-6.307718479484602
 20
126.5522296534949
 30
0.0
 10
-6.307718479484602
 20
126.5522296534949
 30
0.0
 10
-6.660776171182362
 20
126.4582431422876
 30
0.0
 10
-6.660776171182362
 20
126.4582431422876
 30
0.0
 10
-6.660776171182362
 20
126.4582431422876
 30
0.0
 10
-7.013855394726583
 20
126.3719004366885
 30
0.0
 10
-7.013855394726583
 20
126.3719004366885
 30
0.0
 10
-7.013855394726583
 20
126.3719004366885
 30
0.0
 10
-7.361831570583921
 20
126.2982399888449
 30
0.0
 10
-7.361831570583921
 20
126.2982399888449
 30
0.0
 10
-7.361831570583921
 20
126.2982399888449
 30
0.0
 10
-7.707266988520244
 20
126.237261798756
 30
0.0
 10
-7.707266988520244
 20
126.237261798756
 30
0.0
 10
-7.707266988520244
 20
126.237261798756
 30
0.0
 10
-8.047620890616466
 20
126.186468172195
 30
0.0
 10
-8.047620890616466
 20
126.186468172195
 30
0.0
 10
-8.047620890616466
 20
126.186468172195
 30
0.0
 10
-8.382914808718407
 20
126.1509190931566
 30
0.0
 10
-8.382914808718407
 20
126.1509190931566
 30
0.0
 10
-8.382914808718407
 20
126.1509190931566
 30
0.0
 10
-8.713105679132822
 20
126.1280522718735
 30
0.0
 10
-8.713105679132822
 20
126.1280522718735
 30
0.0
 10
-8.713105679132822
 20
126.1280522718735
 30
0.0
 10
-9.03567427578612
 20
126.1204299981121
 30
0.0
 10
-9.03567427578612
 20
126.1204299981121
 30
0.0
 10
-9.03567427578612
 20
126.1204299981121
 30
0.0
 10
-16.73767503108715
 20
126.1204299981121
 30
0.0
 10
-16.73767503108715
 20
126.1204299981121
 30
0.0
 10
-17.2899597807795
 20
126.1204299981121
 30
0.0
 10
-17.73767503083725
 20
125.6727147480547
 30
0.0
 10
-17.73767503083725
 20
125.120429998362
 30
0.0
 10
-17.73767503083725
 20
125.120429998362
 30
0.0
 10
-17.73767503083725
 20
69.85892965463158
 30
0.0
 10
-17.73767503083725
 20
69.85892965463158
 30
0.0
 10
-17.73767503083725
 20
69.30443268437799
 30
0.0
 10
-18.18718363999443
 20
68.85492407522112
 30
0.0
 10
-18.74168061024771
 20
68.85492407522112
 30
0.0
 10
-18.74168061024771
 20
68.85492407522112
 30
0.0
 10
-44.37800808178302
 20
68.85492407522112
 30
0.0
 10
-44.37800808178302
 20
68.85492407522112
 30
0.0
 10
-44.93029283147602
 20
68.85492407522112
 30
0.0
 10
-45.3780080815328
 20
68.40720882516369
 30
0.0
 10
-45.3780080815328
 20
67.85492407547135
 30
0.0
 10
-45.3780080815328
 20
67.85492407547135
 30
0.0
 10
-45.3780080815328
 20
42.44521876957343
 30
0.0
 10
-45.3780080815328
 20
42.44521876957343
 30
0.0
 10
-45.3780080815328
 20
42.44521876957343
 30
0.0
 10
-45.37292656569205
 20
42.14803622027706
 30
0.0
 10
-45.37292656569205
 20
42.14803622027706
 30
0.0
 10
-45.37292656569205
 20
42.14803622027706
 30
0.0
 10
-45.36022277609084
 20
41.8508536709807
 30
0.0
 10
-45.36022277609084
 20
41.8508536709807
 30
0.0
 10
-45.36022277609084
 20
41.8508536709807
 30
0.0
 10
-45.33481519688712
 20
41.55621187960471
 30
0.0
 10
-45.33481519688712
 20
41.55621187960471
 30
0.0
 10
-45.33481519688712
 20
41.55621187960471
 30
0.0
 10
-45.30180687576907
 20
41.26157008822872
 30
0.0
 10
-45.30180687576907
 20
41.26157008822872
 30
0.0
 10
-45.30180687576907
 20
41.26157008822872
 30
0.0
 10
-45.25861399112275
 20
40.96946905477309
 30
0.0
 10
-45.25861399112275
 20
40.96946905477309
 30
0.0
 10
-45.25861399112275
 20
40.96946905477309
 30
0.0
 10
-45.20527960664172
 20
40.67736802131748
 30
0.0
 10
-45.20527960664172
 20
40.67736802131748
 30
0.0
 10
-45.20527960664172
 20
40.67736802131748
 30
0.0
 10
-45.14178219047921
 20
40.38780774578223
 30
0.0
 10
-45.14178219047921
 20
40.38780774578223
 30
0.0
 10
-45.14178219047921
 20
40.38780774578223
 30
0.0
 10
-45.07066250055558
 20
40.10078822816735
 30
0.0
 10
-45.07066250055558
 20
40.10078822816735
 30
0.0
 10
-45.07066250055558
 20
40.10078822816735
 30
0.0
 10
-44.98937977895047
 20
39.81630946847284
 30
0.0
 10
-44.98937977895047
 20
39.81630946847284
 30
0.0
 10
-44.98937977895047
 20
39.81630946847284
 30
0.0
 10
-44.89793402566323
 20
39.53437146669871
 30
0.0
 10
-44.89793402566323
 20
39.53437146669871
 30
0.0
 10
-44.89793402566323
 20
39.53437146669871
 30
0.0
 10
-44.79888753046262
 20
39.25751498076532
 30
0.0
 10
-44.79888753046262
 20
39.25751498076532
 30
0.0
 10
-44.79888753046262
 20
39.25751498076532
 30
0.0
 10
-44.68965647173373
 20
38.98065849483193
 30
0.0
 10
-44.68965647173373
 20
38.98065849483193
 30
0.0
 10
-44.68965647173373
 20
38.98065849483193
 30
0.0
 10
-44.5728246710902
 20
38.70888352473929
 30
0.0
 10
-44.5728246710902
 20
38.70888352473929
 30
0.0
 10
-44.5728246710902
 20
38.70888352473929
 30
0.0
 10
-44.44582983876518
 20
38.44216853864059
 30
0.0
 10
-44.44582983876518
 20
38.44216853864059
 30
0.0
 10
-44.44582983876518
 20
38.44216853864059
 30
0.0
 10
-44.30867197475867
 20
38.17801584230907
 30
0.0
 10
-44.30867197475867
 20
38.17801584230907
 30
0.0
 10
-44.30867197475867
 20
38.17801584230907
 30
0.0
 10
-44.16389183699105
 20
37.91640390389791
 30
0.0
 10
-44.16389183699105
 20
37.91640390389791
 30
0.0
 10
-44.16389183699105
 20
37.91640390389791
 30
0.0
 10
-32.00744178035134
 20
16.87249030103139
 30
0.0
 10
-32.00744178035134
 20
16.87249030103139
 30
0.0
 10
-32.00744178035134
 20
16.87249030103139
 30
0.0
 10
-31.89823225346892
 20
16.69978335798646
 30
0.0
 10
-31.89823225346892
 20
16.69978335798646
 30
0.0
 10
-31.89823225346892
 20
16.69978335798646
 30
0.0
 10
-31.77121588929711
 20
16.54229943061698
 30
0.0
 10
-31.77121588929711
 20
16.54229943061698
 30
0.0
 10
-31.77121588929711
 20
16.54229943061698
 30
0.0
 10
-31.56039757744661
 20
16.33656263460722
 30
0.0
 10
-31.56039757744661
 20
16.33656263460722
 30
0.0
 10
-31.56039757744661
 20
16.33656263460722
 30
0.0
 10
-31.32419321823917
 20
16.16637491763587
 30
0.0
 10
-31.32419321823917
 20
16.16637491763587
 30
0.0
 10
-31.32419321823917
 20
16.16637491763587
 30
0.0
 10
-31.06510050590127
 20
16.03429856947011
 30
0.0
 10
-31.06510050590127
 20
16.03429856947011
 30
0.0
 10
-31.06510050590127
 20
16.03429856947011
 30
0.0
 10
-30.79332553580895
 20
15.94031205826314
 30
0.0
 10
-30.79332553580895
 20
15.94031205826314
 30
0.0
 10
-30.79332553580895
 20
15.94031205826314
 30
0.0
 10
-30.51138753403449
 20
15.88443691586174
 30
0.0
 10
-30.51138753403449
 20
15.88443691586174
 30
0.0
 10
-30.51138753403449
 20
15.88443691586174
 30
0.0
 10
-30.22436801641994
 20
15.87173312625988
 30
0.0
 10
-30.22436801641994
 20
15.87173312625988
 30
0.0
 10
-30.22436801641994
 20
15.87173312625988
 30
0.0
 10
-29.93226698296399
 20
15.90222222130434
 30
0.0
 10
-29.93226698296399
 20
15.90222222130434
 30
0.0
 10
-29.93226698296399
 20
15.90222222130434
 30
0.0
 10
-29.64524746534944
 20
15.97334191122797
 30
0.0
 10
-29.64524746534944
 20
15.97334191122797
 30
0.0
 10
-29.64524746534944
 20
15.97334191122797
 30
0.0
 10
-29.45981520085587
 20
16.04700235907196
 30
0.0
 10
-29.45981520085587
 20
16.04700235907196
 30
0.0
 10
-29.45981520085587
 20
16.04700235907196
 30
0.0
 10
-29.27694522612945
 20
16.14098887027894
 30
0.0
 10
-29.27694522612945
 20
16.14098887027894
 30
0.0
 10
-29.27694522612945
 20
16.14098887027894
 30
0.0
 10
0.8576064292058382
 20
33.52728766014926
 30
0.0
 10
0.8576064292058382
 20
33.52728766014926
 30
0.0
 10
0.8576064292058382
 20
33.52728766014926
 30
0.0
 10
1.091291562339691
 20
33.65936400831503
 30
0.0
 10
1.091291562339691
 20
33.65936400831503
 30
0.0
 10
1.091291562339691
 20
33.65936400831503
 30
0.0
 10
1.330058211314288
 20
33.78127732479931
 30
0.0
 10
1.330058211314288
 20
33.78127732479931
 30
0.0
 10
1.330058211314288
 20
33.78127732479931
 30
0.0
 10
1.568824860289205
 20
33.8930276096021
 30
0.0
 10
1.568824860289205
 20
33.8930276096021
 30
0.0
 10
1.568824860289205
 20
33.8930276096021
 30
0.0
 10
1.815192251177813
 20
33.99971791041093
 30
0.0
 10
1.815192251177813
 20
33.99971791041093
 30
0.0
 10
1.815192251177813
 20
33.99971791041093
 30
0.0
 10
2.061581173913525
 20
34.09878593745864
 30
0.0
 10
2.061581173913525
 20
34.09878593745864
 30
0.0
 10
2.061581173913525
 20
34.09878593745864
 30
0.0
 10
2.313030080643198
 20
34.18766940097809
 30
0.0
 10
2.313030080643198
 20
34.18766940097809
 30
0.0
 10
2.313030080643198
 20
34.18766940097809
 30
0.0
 10
2.564500519219653
 20
34.26895212258321
 30
0.0
 10
2.564500519219653
 20
34.26895212258321
 30
0.0
 10
2.564500519219653
 20
34.26895212258321
 30
0.0
 10
2.82103094179039
 20
34.34007181250684
 30
0.0
 10
2.82103094179039
 20
34.34007181250684
 30
0.0
 10
2.82103094179039
 20
34.34007181250684
 30
0.0
 10
3.077582896207268
 20
34.40610998658971
 30
0.0
 10
3.077582896207268
 20
34.40610998658971
 30
0.0
 10
3.077582896207268
 20
34.40610998658971
 30
0.0
 10
3.339194834618427
 20
34.46200666083789
 30
0.0
 10
3.339194834618427
 20
34.46200666083789
 30
0.0
 10
3.339194834618427
 20
34.46200666083789
 30
0.0
 10
3.600806773029587
 20
34.51025952947818
 30
0.0
 10
3.600806773029587
 20
34.51025952947818
 30
0.0
 10
3.600806773029587
 20
34.51025952947818
 30
0.0
 10
3.862440243287529
 20
34.54834936643697
 30
0.0
 10
3.862440243287529
 20
34.54834936643697
 30
0.0
 10
3.862440243287529
 20
34.54834936643697
 30
0.0
 10
4.12659293961906
 20
34.57883846148143
 30
0.0
 10
4.12659293961906
 20
34.57883846148143
 30
0.0
 10
4.12659293961906
 20
34.57883846148143
 30
0.0
 10
4.393286393871285
 20
34.60170528276478
 30
0.0
 10
4.393286393871285
 20
34.60170528276478
 30
0.0
 10
4.393286393871285
 20
34.60170528276478
 30
0.0
 10
4.66000137996965
 20
34.61438754051985
 30
0.0
 10
4.66000137996965
 20
34.61438754051985
 30
0.0
 10
4.66000137996965
 20
34.61438754051985
 30
0.0
 10
4.926694834221553
 20
34.61946905636059
 30
0.0
 10
4.926694834221553
 20
34.61946905636059
 30
0.0
 10
4.926694834221553
 20
34.61946905636059
 30
0.0
 10
54.28651571760643
 20
34.61946905636059
 30
0.0
 10
54.28651571760643
 20
34.61946905636059
 30
0.0
 10
54.28651571760643
 20
34.61946905636059
 30
0.0
 10
55.96292071257578
 20
34.63471360388282
 30
0.0
 10
55.96292071257578
 20
34.63471360388282
 30
0.0
 10
55.96292071257578
 20
34.63471360388282
 30
0.0
 10
57.63422265985761
 20
34.68298800436989
 30
0.0
 10
57.63422265985761
 20
34.68298800436989
 30
0.0
 10
57.63422265985761
 20
34.68298800436989
 30
0.0
 10
59.2979238652251
 20
34.76170843620785
 30
0.0
 10
59.2979238652251
 20
34.76170843620785
 30
0.0
 10
59.2979238652251
 20
34.76170843620785
 30
0.0
 10
60.95400279683148
 20
34.86839873701668
 30
0.0
 10
60.95400279683148
 20
34.86839873701668
 30
0.0
 10
60.95400279683148
 20
34.86839873701668
 30
0.0
 10
62.59739947068279
 20
35.00301584310282
 30
0.0
 10
62.59739947068279
 20
35.00301584310282
 30
0.0
 10
62.59739947068279
 20
35.00301584310282
 30
0.0
 10
64.23061158100582
 20
35.1604997704723
 30
0.0
 10
64.23061158100582
 20
35.1604997704723
 30
0.0
 10
64.23061158100582
 20
35.1604997704723
 30
0.0
 10
65.84351915981266
 20
35.34336974519871
 30
0.0
 10
65.84351915981266
 20
35.34336974519871
 30
0.0
 10
65.84351915981266
 20
35.34336974519871
 30
0.0
 10
67.44116065925049
 20
35.54404655721452
 30
0.0
 10
67.44116065925049
 20
35.54404655721452
 30
0.0
 10
67.44116065925049
 20
35.54404655721452
 30
0.0
 10
69.01851915901891
 20
35.76754712682011
 30
0.0
 10
69.01851915901891
 20
35.76754712682011
 30
0.0
 10
69.01851915901891
 20
35.76754712682011
 30
0.0
 10
70.5729893056572
 20
36.0063137757947
 30
0.0
 10
70.5729893056572
 20
36.0063137757947
 30
0.0
 10
70.5729893056572
 20
36.0063137757947
 30
0.0
 10
72.10461416285894
 20
36.2628657302119
 30
0.0
 10
72.10461416285894
 20
36.2628657302119
 30
0.0
 10
72.10461416285894
 20
36.2628657302119
 30
0.0
 10
73.60829068293657
 20
36.53209994238417
 30
0.0
 10
73.60829068293657
 20
36.53209994238417
 30
0.0
 10
73.60829068293657
 20
36.53209994238417
 30
0.0
 10
75.08147810796976
 20
36.81403794415831
 30
0.0
 10
75.08147810796976
 20
36.81403794415831
 30
0.0
 10
75.08147810796976
 20
36.81403794415831
 30
0.0
 10
76.52419796980526
 20
37.10613897761392
 30
0.0
 10
76.52419796980526
 20
37.10613897761392
 30
0.0
 10
76.52419796980526
 20
37.10613897761392
 30
0.0
 10
77.93390951052271
 20
37.40586228483066
 30
0.0
 10
77.93390951052271
 20
37.40586228483066
 30
0.0
 10
77.93390951052271
 20
37.40586228483066
 30
0.0
 10
79.30805044035495
 20
37.7157270918821
 30
0.0
 10
79.30805044035495
 20
37.7157270918821
 30
0.0
 10
79.30805044035495
 20
37.7157270918821
 30
0.0
 10
80.64408000138162
 20
38.0281541887007
 30
0.0
 10
80.64408000138162
 20
38.0281541887007
 30
0.0
 10
80.64408000138162
 20
38.0281541887007
 30
0.0
 10
81.93947896752913
 20
38.34312204343966
 30
0.0
 10
81.93947896752913
 20
38.34312204343966
 30
0.0
 10
81.93947896752913
 20
38.34312204343966
 30
0.0
 10
83.1917065808771
 20
38.66314988217259
 30
0.0
 10
83.1917065808771
 20
38.66314988217259
 30
0.0
 10
83.1917065808771
 20
38.66314988217259
 30
0.0
 10
84.40074130957873
 20
38.98065849483193
 30
0.0
 10
84.40074130957873
 20
38.98065849483193
 30
0.0
 10
84.40074130957873
 20
38.98065849483193
 30
0.0
 10
85.56152316964011
 20
39.2956263495709
 30
0.0
 10
85.56152316964011
 20
39.2956263495709
 30
0.0
 10
85.56152316964011
 20
39.2956263495709
 30
0.0
 10
86.6740521610612
 20
39.60803191454271
 30
0.0
 10
86.6740521610612
 20
39.60803191454271
 30
0.0
 10
86.6740521610612
 20
39.60803191454271
 30
0.0
 10
87.73322523615447
 20
39.91283673760019
 30
0.0
 10
87.73322523615447
 20
39.91283673760019
 30
0.0
 10
87.73322523615447
 20
39.91283673760019
 30
0.0
 10
88.7416046846871
 20
40.21256004481693
 30
0.0
 10
88.7416046846871
 20
40.21256004481693
 30
0.0
 10
88.7416046846871
 20
40.21256004481693
 30
0.0
 10
89.69156823289796
 20
40.50212032035217
 30
0.0
 10
89.69156823289796
 20
40.50212032035217
 30
0.0
 10
89.69156823289796
 20
40.50212032035217
 30
0.0
 10
90.58311588078705
 20
40.78151756420593
 30
0.0
 10
90.58311588078705
 20
40.78151756420593
 30
0.0
 10
90.58311588078705
 20
40.78151756420593
 30
0.0
 10
91.4162260965076
 20
41.04567026053746
 30
0.0
 10
91.4162260965076
 20
41.04567026053746
 30
0.0
 10
91.4162260965076
 20
41.04567026053746
 30
0.0
 10
92.18583889606562
 20
41.29714069911392
 30
0.0
 10
92.18583889606562
 20
41.29714069911392
 30
0.0
 10
92.18583889606562
 20
41.29714069911392
 30
0.0
 10
92.88943505338756
 20
41.53336659016814
 30
0.0
 10
92.88943505338756
 20
41.53336659016814
 30
0.0
 10
92.88943505338756
 20
41.53336659016814
 30
0.0
 10
93.52697150477982
 20
41.7492664178594
 30
0.0
 10
93.52697150477982
 20
41.7492664178594
 30
0.0
 10
93.52697150477982
 20
41.7492664178594
 30
0.0
 10
94.09592902416883
 20
41.94738094010804
 30
0.0
 10
94.09592902416883
 20
41.94738094010804
 30
0.0
 10
94.09592902416883
 20
41.94738094010804
 30
0.0
 10
94.59122609571385
 20
42.12262864107335
 30
0.0
 10
94.59122609571385
 20
42.12262864107335
 30
0.0
 10
94.59122609571385
 20
42.12262864107335
 30
0.0
 10
94.74108774932222
 20
42.18106607324189
 30
0.0
 10
94.74108774932222
 20
42.18106607324189
 30
0.0
 10
94.74108774932222
 20
42.18106607324189
 30
0.0
 10
94.95190606117272
 20
42.29281635804469
 30
0.0
 10
94.95190606117272
 20
42.29281635804469
 30
0.0
 10
94.95190606117272
 20
42.29281635804469
 30
0.0
 10
95.14493906758062
 20
42.42235194829009
 30
0.0
 10
95.14493906758062
 20
42.42235194829009
 30
0.0
 10
95.14493906758062
 20
42.42235194829009
 30
0.0
 10
95.32274905831308
 20
42.57475435981882
 30
0.0
 10
95.32274905831308
 20
42.57475435981882
 30
0.0
 10
95.32274905831308
 20
42.57475435981882
 30
0.0
 10
95.48023298568256
 20
42.74494207679017
 30
0.0
 10
95.48023298568256
 20
42.74494207679017
 30
0.0
 10
95.48023298568256
 20
42.74494207679017
 30
0.0
 10
95.6148500917687
 20
42.93289356735733
 30
0.0
 10
95.6148500917687
 20
42.93289356735733
 30
0.0
 10
95.6148500917687
 20
42.93289356735733
 30
0.0
 10
95.73168189241224
 20
43.13354884752635
 30
0.0
 10
95.73168189241224
 20
43.13354884752635
 30
0.0
 10
95.73168189241224
 20
43.13354884752635
 30
0.0
 10
95.82312764569883
 20
43.34690791729722
 30
0.0
 10
95.82312764569883
 20
43.34690791729722
 30
0.0
 10
95.82312764569883
 20
43.34690791729722
 30
0.0
 10
95.88916581978172
 20
43.57043001874959
 30
0.0
 10
95.88916581978172
 20
43.57043001874959
 30
0.0
 10
95.88916581978172
 20
43.57043001874959
 30
0.0
 10
95.92979641466088
 20
43.80411515188344
 30
0.0
 10
95.92979641466088
 20
43.80411515188344
 30
0.0
 10
95.92979641466088
 20
43.80411515188344
 30
0.0
 10
95.94504096218311
 20
44.04288180085804
 30
0.0
 10
95.94504096218311
 20
44.04288180085804
 30
0.0
 10
95.94504096218311
 20
44.04288180085804
 30
0.0
 10
95.94504096218311
 20
117.3193306893315
 30
0.0
 10
95.94504096218311
 20
117.3193306893315
 30
0.0
 10
95.94504096218311
 20
117.3193306893315
 30
0.0
 10
95.93995944634237
 20
117.4666515850198
 30
0.0
 10
95.93995944634237
 20
117.4666515850198
 30
0.0
  0
ENDBLK
  5
44
330
41
100
AcDbEntity
  8
0
100
AcDbBlockEnd
  0
BLOCK
  5
48
330
46
100
AcDbEntity
  8
0
100
AcDbBlockBegin
  2
BLOCK_3
 70
     0
 10
0.0
 20
0.0
 30
0.0
  3
BLOCK_3
  1

  0
SPLINE
  5
4A
330
46
100
AcDbEntity
  8
TOP-PLATE
 62
     7
100
AcDbSpline
210
0.0
220
0.0
230
1.0
 70
    11
 71
     3
 72
    17
 73
    13
 74
     0
 42
0.0000000001
 43
0.0000000001
 12
1.0
 22
0.0
 32
0.0
 13
1.0
 23
0.0
 33
0.0
 40
0.0
 40
0.0
 40
0.0
 40
0.0
 40
1.0
 40
1.0
 40
1.0
 40
2.0
 40
2.0
 40
2.0
 40
3.0
 40
3.0
 40
3.0
 40
4.0
 40
4.0
 40
4.0
 40
4.0
 10
78.00740828645193
 20
99.63220727241492
 30
0.0
 10
78.00740828645193
 20
99.06366521541368
 30
0.0
 10
77.53466451023088
 20
98.6027708137638
 30
0.0
 10
76.95150550893806
 20
98.6027708137638
 30
0.0
 10
76.36834650764587
 20
98.6027708137638
 30
0.0
 10
75.89560273142483
 20
99.06366521541368
 30
0.0
 10
75.89560273142483
 20
99.63220727241492
 30
0.0
 10
75.89560273142483
 20
100.2007493294155
 30
0.0
 10
76.36834650764587
 20
100.6616437310654
 30
0.0
 10
76.95150550893806
 20
100.6616437310654
 30
0.0
 10
77.53466451023088
 20
100.6616437310654
 30
0.0
 10
78.00740828645193
 20
100.2007493294155
 30
0.0
 10
78.00740828645193
 20
99.63220727241492
 30
0.0
  0
ENDBLK
  5
49
330
46
100
AcDbEntity
  8
0
100
AcDbBlockEnd
  0
BLOCK
  5
4D
330
4B
100
AcDbEntity
  8
0
100
AcDbBlockBegin
  2
BLOCK_4
 70
     0
 10
0.0
 20
0.0
 30
0.0
  3
BLOCK_4
  1

  0
SPLINE
  5
4F
330
4B
100
AcDbEntity
  8
TOP-PLATE
 62
     7
100
AcDbSpline
210
0.0
220
0.0
230
1.0
 70
    11
 71
     3
 72
    17
 73
    13
 74
     0
 42
0.0000000001
 43
0.0000000001
 12
1.0
 22
0.0
 32
0.0
 13
1.0
 23
0.0
 33
0.0
 40
0.0
 40
0.0
 40
0.0
 40
0.0
 40
1.0
 40
1.0
 40
1.0
 40
2.0
 40
2.0
 40
2.0
 40
3.0
 40
3.0
 40
3.0
 40
4.0
 40
4.0
 40
4.0
 40
4.0
 10
78.00740828645193
 20
61.64694414926229
 30
0.0
 10
78.00740828645193
 20
61.07840209226106
 30
0.0
 10
77.53466451023088
 20
60.61750769061118
 30
0.0
 10
76.95150550893806
 20
60.61750769061118
 30
0.0
 10
76.36834650764587
 20
60.61750769061118
 30
0.0
 10
75.89560273142483
 20
61.07840209226106
 30
0.0
 10
75.89560273142483
 20
61.64694414926229
 30
0.0
 10
75.89560273142483
 20
62.21548620626287
 30
0.0
 10
76.36834650764587
 20
62.67638060791276
 30
0.0
 10
76.95150550893806
 20
62.67638060791276
 30
0.0
 10
77.53466451023088
 20
62.67638060791276
 30
0.0
 10
78.00740828645193
 20
62.21548620626287
 30
0.0
 10
78.00740828645193
 20
61.64694414926229
 30
0.0
  0
ENDBLK
  5
4E
330
4B
100
AcDbEntity
  8
0
100
AcDbBlockEnd
  0
BLOCK
  5
52
330
50
100
AcDbEntity
  8
0
100
AcDbBlockBegin
  2
BLOCK_5
 70
     0
 10
0.0
 20
0.0
 30
0.0
  3
BLOCK_5
  1

  0
SPLINE
  5
54
330
50
100
AcDbEntity
  8
TOP-PLATE
 62
     7
100
AcDbSpline
210
0.0
220
0.0
230
1.0
 70
    11
 71
     3
 72
    17
 73
    13
 74
     0
 42
0.0000000001
 43
0.0000000001
 12
1.0
 22
0.0
 32
0.0
 13
1.0
 23
0.0
 33
0.0
 40
0.0
 40
0.0
 40
0.0
 40
0.0
 40
1.0
 40
1.0
 40
1.0
 40
2.0
 40
2.0
 40
2.0
 40
3.0
 40
3.0
 40
3.0
 40
4.0
 40
4.0
 40
4.0
 40
4.0
 10
1.025408193837852
 20
69.64992445933191
 30
0.0
 10
1.025408193837852
 20
69.08138240233068
 30
0.0
 10
0.5526644176158484
 20
68.6204880006808
 30
0.0
 10
-0.0304945836763418
 20
68.6204880006808
 30
0.0
 10
-0.613653584968532
 20
68.6204880006808
 30
0.0
 10
-1.086397361190215
 20
69.08138240233068
 30
0.0
 10
-1.086397361190215
 20
69.64992445933191
 30
0.0
 10
-1.086397361190215
 20
70.2184665163325
 30
0.0
 10
-0.613653584968532
 20
70.67936091798238
 30
0.0
 10
-0.0304945836763418
 20
70.67936091798238
 30
0.0
 10
0.5526644176158484
 20
70.67936091798238
 30
0.0
 10
1.025408193837852
 20
70.2184665163325
 30
0.0
 10
1.025408193837852
 20
69.64992445933191
 30
0.0
  0
ENDBLK
  5
53
330
50
100
AcDbEntity
  8
0
100
AcDbBlockEnd
  0
BLOCK
  5
57
330
55
100
AcDbEntity
  8
0
100
AcDbBlockBegin
  2
BLOCK_6
 70
     0
 10
0.0
 20
0.0
 30
0.0
  3
BLOCK_6
  1

  0
SPLINE
  5
59
330
55
100
AcDbEntity
  8
TOP-PLATE
 62
     7
100
AcDbSpline
210
0.0
220
0.0
230
1.0
 70
    11
 71
     3
 72
    17
 73
    13
 74
     0
 42
0.0000000001
 43
0.0000000001
 12
1.0
 22
0.0
 32
0.0
 13
1.0
 23
0.0
 33
0.0
 40
0.0
 40
0.0
 40
0.0
 40
0.0
 40
1.0
 40
1.0
 40
1.0
 40
2.0
 40
2.0
 40
2.0
 40
3.0
 40
3.0
 40
3.0
 40
4.0
 40
4.0
 40
4.0
 40
4.0
 10
1.025408193837852
 20
107.6568674403426
 30
0.0
 10
1.025408193837852
 20
107.0883253833414
 30
0.0
 10
0.5526644176158484
 20
106.6274309816915
 30
0.0
 10
-0.0304945836763418
 20
106.6274309816915
 30
0.0
 10
-0.613653584968532
 20
106.6274309816915
 30
0.0
 10
-1.086397361190215
 20
107.0883253833414
 30
0.0
 10
-1.086397361190215
 20
107.6568674403426
 30
0.0
 10
-1.086397361190215
 20
108.2254094973432
 30
0.0
 10
-0.613653584968532
 20
108.6863038989931
 30
0.0
 10
-0.0304945836763418
 20
108.6863038989931
 30
0.0
 10
0.5526644176158484
 20
108.6863038989931
 30
0.0
 10
1.025408193837852
 20
108.2254094973432
 30
0.0
 10
1.025408193837852
 20
107.6568674403426
 30
0.0
  0
ENDBLK
  5
58
330
55
100
AcDbEntity
  8
0
100
AcDbBlockEnd
  0
BLOCK
  5
5C
330
5A
100
AcDbEntity
  8
0
100
AcDbBlockBegin
  2
BLOCK_7
 70
     0
 10
0.0
 20
0.0
 30
0.0
  3
BLOCK_7
  1

  0
SPLINE
  5
5E
330
5A
100
AcDbEntity
  8
TOP-PLATE
 62
     7
100
AcDbSpline
210
0.0
220
0.0
230
1.0
 70
    11
 71
     3
 72
    17
 73
    13
 74
     0
 42
0.0000000001
 43
0.0000000001
 12
1.0
 22
0.0
 32
0.0
 13
1.0
 23
0.0
 33
0.0
 40
0.0
 40
0.0
 40
0.0
 40
0.0
 40
1.0
 40
1.0
 40
1.0
 40
2.0
 40
2.0
 40
2.0
 40
3.0
 40
3.0
 40
3.0
 40
4.0
 40
4.0
 40
4.0
 40
4.0
 10
-21.75329708077955
 20
47.10109327471586
 30
0.0
 10
-21.75329708077955
 20
46.53255121771463
 30
0.0
 10
-22.22604085700123
 20
46.07165681606475
 30
0.0
 10
-22.8091998582931
 20
46.07165681606475
 30
0.0
 10
-23.39235885958561
 20
46.07165681606475
 30
0.0
 10
-23.86510263580697
 20
46.53255121771463
 30
0.0
 10
-23.86510263580697
 20
47.10109327471586
 30
0.0
 10
-23.86510263580697
 20
47.66963533171645
 30
0.0
 10
-23.39235885958561
 20
48.13052973336634
 30
0.0
 10
-22.8091998582931
 20
48.13052973336634
 30
0.0
 10
-22.22604085700123
 20
48.13052973336634
 30
0.0
 10
-21.75329708077955
 20
47.66963533171645
 30
0.0
 10
-21.75329708077955
 20
47.10109327471586
 30
0.0
  0
ENDBLK
  5
5D
330
5A
100
AcDbEntity
  8
0
100
AcDbBlockEnd
  0
BLOCK
  5
61
330
5F
100
AcDbEntity
  8
0
100
AcDbBlockBegin
  2
BLOCK_8
 70
     0
 10
0.0
 20
0.0
 30
0.0
  3
BLOCK_8
  1

  0
POLYLINE
  5
63
330
5F
100
AcDbEntity
  8
TOP-PLATE
 62
     7
100
AcDb2dPolyline
 66
     1
 10
0.0
 20
0.0
 30
0.0
  0
VERTEX
  5
64
330
63
100
AcDbEntity
  8
TOP-PLATE
 62
     7
100
AcDbVertex
100
AcDb2dVertex
 10
-15.5241883393652
 20
123.6324663575376
 30
0.0
  0
VERTEX
  5
65
330
63
100
AcDbEntity
  8
TOP-PLATE
 62
     7
100
AcDbVertex
100
AcDb2dVertex
 10
-15.5241883393652
 20
109.6701439282522
 30
0.0
  0
VERTEX
  5
66
330
63
100
AcDbEntity
  8
TOP-PLATE
 62
     7
100
AcDbVertex
100
AcDb2dVertex
 10
-1.564188342878134
 20
109.6701439282522
 30
0.0
  0
VERTEX
  5
67
330
63
100
AcDbEntity
  8
TOP-PLATE
 62
     7
100
AcDbVertex
100
AcDb2dVertex
 10
-1.564188342878134
 20
123.6324663575376
 30
0.0
  0
VERTEX
  5
68
330
63
100
AcDbEntity
  8
TOP-PLATE
 62
     7
100
AcDbVertex
100
AcDb2dVertex
 10
-15.5241883393652
 20
123.6324663575376
 30
0.0
  0
SEQEND
  5
69
330
63
100
AcDbEntity
  8
TOP-PLATE
 62
     7
  0
ENDBLK
  5
62
330
5F
100
AcDbEntity
  8
0
100
AcDbBlockEnd
  0
BLOCK
  5
6C
330
6A
100
AcDbEntity
  8
0
100
AcDbBlockBegin
  2
BLOCK_9
 70
     0
 10
0.0
 20
0.0
 30
0.0
  3
BLOCK_9
  1

  0
POLYLINE
  5
6E
330
6A
100
AcDbEntity
  8
TOP-PLATE
 62
     7
100
AcDb2dPolyline
 66
     1
 10
0.0
 20
0.0
 30
0.0
  0
VERTEX
  5
6F
330
6E
100
AcDbEntity
  8
TOP-PLATE
 62
     7
100
AcDbVertex
100
AcDb2dVertex
 10
3.476266876425055
 20
127.1313223264945
 30
0.0
  0
VERTEX
  5
70
330
6E
100
AcDbEntity
  8
TOP-PLATE
 62
     7
100
AcDbVertex
100
AcDb2dVertex
 10
3.476266876425055
 20
113.1715497305487
 30
0.0
  0
VERTEX
  5
71
330
6E
100
AcDbEntity
  8
TOP-PLATE
 62
     7
100
AcDbVertex
100
AcDb2dVertex
 10
17.43626687291212
 20
113.1715497305487
 30
0.0
  0
VERTEX
  5
72
330
6E
100
AcDbEntity
  8
TOP-PLATE
 62
     7
100
AcDbVertex
100
AcDb2dVertex
 10
17.43626687291212
 20
127.1313223264945
 30
0.0
  0
VERTEX
  5
73
330
6E
100
AcDbEntity
  8
TOP-PLATE
 62
     7
100
AcDbVertex
100
AcDb2dVertex
 10
3.476266876425055
 20
127.1313223264945
 30
0.0
  0
SEQEND
  5
74
330
6E
100
AcDbEntity
  8
TOP-PLATE
 62
     7
  0
ENDBLK
  5
6D
330
6A
100
AcDbEntity
  8
0
100
AcDbBlockEnd
  0
BLOCK
  5
77
330
75
100
AcDbEntity
  8
0
100
AcDbBlockBegin
  2
BLOCK_10
 70
     0
 10
0.0
 20
0.0
 30
0.0
  3
BLOCK_10
  1

  0
POLYLINE
  5
79
330
75
100
AcDbEntity
  8
TOP-PLATE
 62
     7
100
AcDb2dPolyline
 66
     1
 10
0.0
 20
0.0
 30
0.0
  0
VERTEX
  5
7A
330
79
100
AcDbEntity
  8
TOP-PLATE
 62
     7
100
AcDbVertex
100
AcDb2dVertex
 10
41.47467961377843
 20
127.1313223264945
 30
0.0
  0
VERTEX
  5
7B
330
79
100
AcDbEntity
  8
TOP-PLATE
 62
     7
100
AcDbVertex
100
AcDb2dVertex
 10
41.47467961377843
 20
113.1715497305487
 30
0.0
  0
VERTEX
  5
7C
330
79
100
AcDbEntity
  8
TOP-PLATE
 62
     7
100
AcDbVertex
100
AcDb2dVertex
 10
55.43467961026614
 20
113.1715497305487
 30
0.0
  0
VERTEX
  5
7D
330
79
100
AcDbEntity
  8
TOP-PLATE
 62
     7
100
AcDbVertex
100
AcDb2dVertex
 10
55.43467961026614
 20
127.1313223264945
 30
0.0
  0
VERTEX
  5
7E
330
79
100
AcDbEntity
  8
TOP-PLATE
 62
     7
100
AcDbVertex
100
AcDb2dVertex
 10
41.47467961377843
 20
127.1313223264945
 30
0.0
  0
SEQEND
  5
7F
330
79
100
AcDbEntity
  8
TOP-PLATE
 62
     7
  0
ENDBLK
  5
78
330
75
100
AcDbEntity
  8
0
100
AcDbBlockEnd
  0
BLOCK
  5
82
330
80
100
AcDbEntity
  8
0
100
AcDbBlockBegin
  2
BLOCK_11
 70
     0
 10
0.0
 20
0.0
 30
0.0
  3
BLOCK_11
  1

  0
POLYLINE
  5
84
330
80
100
AcDbEntity
  8
TOP-PLATE
 62
     7
100
AcDb2dPolyline
 66
     1
 10
0.0
 20
0.0
 30
0.0
  0
VERTEX
  5
85
330
84
100
AcDbEntity
  8
TOP-PLATE
 62
     7
100
AcDbVertex
100
AcDb2dVertex
 10
60.47640520852887
 20
116.1305726140751
 30
0.0
  0
VERTEX
  5
86
330
84
100
AcDbEntity
  8
TOP-PLATE
 62
     7
100
AcDbVertex
100
AcDb2dVertex
 10
60.47640520852887
 20
102.1708000181293
 30
0.0
  0
VERTEX
  5
87
330
84
100
AcDbEntity
  8
TOP-PLATE
 62
     7
100
AcDbVertex
100
AcDb2dVertex
 10
74.43640520501657
 20
102.1708000181293
 30
0.0
  0
VERTEX
  5
88
330
84
100
AcDbEntity
  8
TOP-PLATE
 62
     7
100
AcDbVertex
100
AcDb2dVertex
 10
74.43640520501657
 20
116.1305726140751
 30
0.0
  0
VERTEX
  5
89
330
84
100
AcDbEntity
  8
TOP-PLATE
 62
     7
100
AcDbVertex
100
AcDb2dVertex
 10
60.47640520852887
 20
116.1305726140751
 30
0.0
  0
SEQEND
  5
8A
330
84
100
AcDbEntity
  8
TOP-PLATE
 62
     7
  0
ENDBLK
  5
83
330
80
100
AcDbEntity
  8
0
100
AcDbBlockEnd
  0
BLOCK
  5
8D
330
8B
100
AcDbEntity
  8
0
100
AcDbBlockBegin
  2
BLOCK_12
 70
     0
 10
0.0
 20
0.0
 30
0.0
  3
BLOCK_12
  1

  0
POLYLINE
  5
8F
330
8B
100
AcDbEntity
  8
TOP-PLATE
 62
     7
100
AcDb2dPolyline
 66
     1
 10
0.0
 20
0.0
 30
0.0
  0
VERTEX
  5
90
330
8F
100
AcDbEntity
  8
TOP-PLATE
 62
     7
100
AcDbVertex
100
AcDb2dVertex
 10
79.47561157720571
 20
116.1305726140751
 30
0.0
  0
VERTEX
  5
91
330
8F
100
AcDbEntity
  8
TOP-PLATE
 62
     7
100
AcDbVertex
100
AcDb2dVertex
 10
79.47561157720571
 20
102.1708000181293
 30
0.0
  0
VERTEX
  5
92
330
8F
100
AcDbEntity
  8
TOP-PLATE
 62
     7
100
AcDbVertex
100
AcDb2dVertex
 10
93.43561157369342
 20
102.1708000181293
 30
0.0
  0
VERTEX
  5
93
330
8F
100
AcDbEntity
  8
TOP-PLATE
 62
     7
100
AcDbVertex
100
AcDb2dVertex
 10
93.43561157369342
 20
116.1305726140751
 30
0.0
  0
VERTEX
  5
94
330
8F
100
AcDbEntity
  8
TOP-PLATE
 62
     7
100
AcDbVertex
100
AcDb2dVertex
 10
79.47561157720571
 20
116.1305726140751
 30
0.0
  0
SEQEND
  5
95
330
8F
100
AcDbEntity
  8
TOP-PLATE
 62
     7
  0
ENDBLK
  5
8E
330
8B
100
AcDbEntity
  8
0
100
AcDbBlockEnd
  0
BLOCK
  5
98
330
96
100
AcDbEntity
  8
0
100
AcDbBlockBegin
  2
BLOCK_13
 70
     0
 10
0.0
 20
0.0
 30
0.0
  3
BLOCK_13
  1

  0
POLYLINE
  5
9A
330
96
100
AcDbEntity
  8
TOP-PLATE
 62
     7
100
AcDb2dPolyline
 66
     1
 10
0.0
 20
0.0
 30
0.0
  0
VERTEX
  5
9B
330
9A
100
AcDbEntity
  8
TOP-PLATE
 62
     7
100
AcDbVertex
100
AcDb2dVertex
 10
-15.5241883393652
 20
104.6332815207072
 30
0.0
  0
VERTEX
  5
9C
330
9A
100
AcDbEntity
  8
TOP-PLATE
 62
     7
100
AcDbVertex
100
AcDb2dVertex
 10
-15.5241883393652
 20
90.67095909142213
 30
0.0
  0
VERTEX
  5
9D
330
9A
100
AcDbEntity
  8
TOP-PLATE
 62
     7
100
AcDbVertex
100
AcDb2dVertex
 10
-1.564188342878134
 20
90.67095909142213
 30
0.0
  0
VERTEX
  5
9E
330
9A
100
AcDbEntity
  8
TOP-PLATE
 62
     7
100
AcDbVertex
100
AcDb2dVertex
 10
-1.564188342878134
 20
104.6332815207072
 30
0.0
  0
VERTEX
  5
9F
330
9A
100
AcDbEntity
  8
TOP-PLATE
 62
     7
100
AcDbVertex
100
AcDb2dVertex
 10
-15.5241883393652
 20
104.6332815207072
 30
0.0
  0
SEQEND
  5
A0
330
9A
100
AcDbEntity
  8
TOP-PLATE
 62
     7
  0
ENDBLK
  5
99
330
96
100
AcDbEntity
  8
0
100
AcDbBlockEnd
  0
BLOCK
  5
A3
330
A1
100
AcDbEntity
  8
0
100
AcDbBlockBegin
  2
BLOCK_14
 70
     0
 10
0.0
 20
0.0
 30
0.0
  3
BLOCK_14
  1

  0
POLYLINE
  5
A5
330
A1
100
AcDbEntity
  8
TOP-PLATE
 62
     7
100
AcDb2dPolyline
 66
     1
 10
0.0
 20
0.0
 30
0.0
  0
VERTEX
  5
A6
330
A5
100
AcDbEntity
  8
TOP-PLATE
 62
     7
100
AcDbVertex
100
AcDb2dVertex
 10
3.476266876425055
 20
108.1321159578176
 30
0.0
  0
VERTEX
  5
A7
330
A5
100
AcDbEntity
  8
TOP-PLATE
 62
     7
100
AcDbVertex
100
AcDb2dVertex
 10
3.476266876425055
 20
94.17234336187155
 30
0.0
  0
VERTEX
  5
A8
330
A5
100
AcDbEntity
  8
TOP-PLATE
 62
     7
100
AcDbVertex
100
AcDb2dVertex
 10
17.43626687291212
 20
94.17234336187155
 30
0.0
  0
VERTEX
  5
A9
330
A5
100
AcDbEntity
  8
TOP-PLATE
 62
     7
100
AcDbVertex
100
AcDb2dVertex
 10
17.43626687291212
 20
108.1321159578176
 30
0.0
  0
VERTEX
  5
AA
330
A5
100
AcDbEntity
  8
TOP-PLATE
 62
     7
100
AcDbVertex
100
AcDb2dVertex
 10
3.476266876425055
 20
108.1321159578176
 30
0.0
  0
SEQEND
  5
AB
330
A5
100
AcDbEntity
  8
TOP-PLATE
 62
     7
  0
ENDBLK
  5
A4
330
A1
100
AcDbEntity
  8
0
100
AcDbBlockEnd
  0
BLOCK
  5
AE
330
AC
100
AcDbEntity
  8
0
100
AcDbBlockBegin
  2
BLOCK_15
 70
     0
 10
0.0
 20
0.0
 30
0.0
  3
BLOCK_15
  1

  0
POLYLINE
  5
B0
330
AC
100
AcDbEntity
  8
TOP-PLATE
 62
     7
100
AcDb2dPolyline
 66
     1
 10
0.0
 20
0.0
 30
0.0
  0
VERTEX
  5
B1
330
B0
100
AcDbEntity
  8
TOP-PLATE
 62
     7
100
AcDbVertex
100
AcDb2dVertex
 10
22.47547324510223
 20
111.632246843444
 30
0.0
  0
VERTEX
  5
B2
330
B0
100
AcDbEntity
  8
TOP-PLATE
 62
     7
100
AcDbVertex
100
AcDb2dVertex
 10
22.47547324510223
 20
97.67247424749826
 30
0.0
  0
VERTEX
  5
B3
330
B0
100
AcDbEntity
  8
TOP-PLATE
 62
     7
100
AcDbVertex
100
AcDb2dVertex
 10
36.43547324158929
 20
97.67247424749826
 30
0.0
  0
VERTEX
  5
B4
330
B0
100
AcDbEntity
  8
TOP-PLATE
 62
     7
100
AcDbVertex
100
AcDb2dVertex
 10
36.43547324158929
 20
111.632246843444
 30
0.0
  0
VERTEX
  5
B5
330
B0
100
AcDbEntity
  8
TOP-PLATE
 62
     7
100
AcDbVertex
100
AcDb2dVertex
 10
22.47547324510223
 20
111.632246843444
 30
0.0
  0
SEQEND
  5
B6
330
B0
100
AcDbEntity
  8
TOP-PLATE
 62
     7
  0
ENDBLK
  5
AF
330
AC
100
AcDbEntity
  8
0
100
AcDbBlockEnd
  0
BLOCK
  5
B9
330
B7
100
AcDbEntity
  8
0
100
AcDbBlockBegin
  2
BLOCK_16
 70
     0
 10
0.0
 20
0.0
 30
0.0
  3
BLOCK_16
  1

  0
POLYLINE
  5
BB
330
B7
100
AcDbEntity
  8
TOP-PLATE
 62
     7
100
AcDb2dPolyline
 66
     1
 10
0.0
 20
0.0
 30
0.0
  0
VERTEX
  5
BC
330
BB
100
AcDbEntity
  8
TOP-PLATE
 62
     7
100
AcDbVertex
100
AcDb2dVertex
 10
41.47467961377843
 20
108.1321159578176
 30
0.0
  0
VERTEX
  5
BD
330
BB
100
AcDbEntity
  8
TOP-PLATE
 62
     7
100
AcDbVertex
100
AcDb2dVertex
 10
41.47467961377843
 20
94.17234336187155
 30
0.0
  0
VERTEX
  5
BE
330
BB
100
AcDbEntity
  8
TOP-PLATE
 62
     7
100
AcDbVertex
100
AcDb2dVertex
 10
55.43467961026614
 20
94.17234336187155
 30
0.0
  0
VERTEX
  5
BF
330
BB
100
AcDbEntity
  8
TOP-PLATE
 62
     7
100
AcDbVertex
100
AcDb2dVertex
 10
55.43467961026614
 20
108.1321159578176
 30
0.0
  0
VERTEX
  5
C0
330
BB
100
AcDbEntity
  8
TOP-PLATE
 62
     7
100
AcDbVertex
100
AcDb2dVertex
 10
41.47467961377843
 20
108.1321159578176
 30
0.0
  0
SEQEND
  5
C1
330
BB
100
AcDbEntity
  8
TOP-PLATE
 62
     7
  0
ENDBLK
  5
BA
330
B7
100
AcDbEntity
  8
0
100
AcDbBlockEnd
  0
BLOCK
  5
C4
330
C2
100
AcDbEntity
  8
0
100
AcDbBlockBegin
  2
BLOCK_17
 70
     0
 10
0.0
 20
0.0
 30
0.0
  3
BLOCK_17
  1

  0
POLYLINE
  5
C6
330
C2
100
AcDbEntity
  8
TOP-PLATE
 62
     7
100
AcDb2dPolyline
 66
     1
 10
0.0
 20
0.0
 30
0.0
  0
VERTEX
  5
C7
330
C6
100
AcDbEntity
  8
TOP-PLATE
 62
     7
100
AcDbVertex
100
AcDb2dVertex
 10
60.47640520852887
 20
97.13138777724534
 30
0.0
  0
VERTEX
  5
C8
330
C6
100
AcDbEntity
  8
TOP-PLATE
 62
     7
100
AcDbVertex
100
AcDb2dVertex
 10
60.47640520852887
 20
83.17161518129925
 30
0.0
  0
VERTEX
  5
C9
330
C6
100
AcDbEntity
  8
TOP-PLATE
 62
     7
100
AcDbVertex
100
AcDb2dVertex
 10
74.43640520501657
 20
83.17161518129925
 30
0.0
  0
VERTEX
  5
CA
330
C6
100
AcDbEntity
  8
TOP-PLATE
 62
     7
100
AcDbVertex
100
AcDb2dVertex
 10
74.43640520501657
 20
97.13138777724534
 30
0.0
  0
VERTEX
  5
CB
330
C6
100
AcDbEntity
  8
TOP-PLATE
 62
     7
100
AcDbVertex
100
AcDb2dVertex
 10
60.47640520852887
 20
97.13138777724534
 30
0.0
  0
SEQEND
  5
CC
330
C6
100
AcDbEntity
  8
TOP-PLATE
 62
     7
  0
ENDBLK
  5
C5
330
C2
100
AcDbEntity
  8
0
100
AcDbBlockEnd
  0
BLOCK
  5
CF
330
CD
100
AcDbEntity
  8
0
100
AcDbBlockBegin
  2
BLOCK_18
 70
     0
 10
0.0
 20
0.0
 30
0.0
  3
BLOCK_18
  1

  0
POLYLINE
  5
D1
330
CD
100
AcDbEntity
  8
TOP-PLATE
 62
     7
100
AcDb2dPolyline
 66
     1
 10
0.0
 20
0.0
 30
0.0
  0
VERTEX
  5
D2
330
D1
100
AcDbEntity
  8
TOP-PLATE
 62
     7
100
AcDbVertex
100
AcDb2dVertex
 10
79.47561157720571
 20
97.13138777724534
 30
0.0
  0
VERTEX
  5
D3
330
D1
100
AcDbEntity
  8
TOP-PLATE
 62
     7
100
AcDbVertex
100
AcDb2dVertex
 10
79.47561157720571
 20
83.17161518129925
 30
0.0
  0
VERTEX
  5
D4
330
D1
100
AcDbEntity
  8
TOP-PLATE
 62
     7
100
AcDbVertex
100
AcDb2dVertex
 10
93.43561157369342
 20
83.17161518129925
 30
0.0
  0
VERTEX
  5
D5
330
D1
100
AcDbEntity
  8
TOP-PLATE
 62
     7
100
AcDbVertex
100
AcDb2dVertex
 10
93.43561157369342
 20
97.13138777724534
 30
0.0
  0
VERTEX
  5
D6
330
D1
100
AcDbEntity
  8
TOP-PLATE
 62
     7
100
AcDbVertex
100
AcDb2dVertex
 10
79.47561157720571
 20
97.13138777724534
 30
0.0
  0
SEQEND
  5
D7
330
D1
100
AcDbEntity
  8
TOP-PLATE
 62
     7
  0
ENDBLK
  5
D0
330
CD
100
AcDbEntity
  8
0
100
AcDbBlockEnd
  0
BLOCK
  5
DA
330
D8
100
AcDbEntity
  8
0
100
AcDbBlockBegin
  2
BLOCK_19
 70
     0
 10
0.0
 20
0.0
 30
0.0
  3
BLOCK_19
  1

  0
POLYLINE
  5
DC
330
D8
100
AcDbEntity
  8
TOP-PLATE
 62
     7
100
AcDb2dPolyline
 66
     1
 10
0.0
 20
0.0
 30
0.0
  0
VERTEX
  5
DD
330
DC
100
AcDbEntity
  8
TOP-PLATE
 62
     7
100
AcDbVertex
100
AcDb2dVertex
 10
-15.5241883393652
 20
85.6315378373188
 30
0.0
  0
VERTEX
  5
DE
330
DC
100
AcDbEntity
  8
TOP-PLATE
 62
     7
100
AcDbVertex
100
AcDb2dVertex
 10
-15.5241883393652
 20
71.67174927953648
 30
0.0
  0
VERTEX
  5
DF
330
DC
100
AcDbEntity
  8
TOP-PLATE
 62
     7
100
AcDbVertex
100
AcDb2dVertex
 10
-1.564188342878134
 20
71.67174927953648
 30
0.0
  0
VERTEX
  5
E0
330
DC
100
AcDbEntity
  8
TOP-PLATE
 62
     7
100
AcDbVertex
100
AcDb2dVertex
 10
-1.564188342878134
 20
85.6315378373188
 30
0.0
  0
VERTEX
  5
E1
330
DC
100
AcDbEntity
  8
TOP-PLATE
 62
     7
100
AcDbVertex
100
AcDb2dVertex
 10
-15.5241883393652
 20
85.6315378373188
 30
0.0
  0
SEQEND
  5
E2
330
DC
100
AcDbEntity
  8
TOP-PLATE
 62
     7
  0
ENDBLK
  5
DB
330
D8
100
AcDbEntity
  8
0
100
AcDbBlockEnd
  0
BLOCK
  5
E5
330
E3
100
AcDbEntity
  8
0
100
AcDbBlockBegin
  2
BLOCK_20
 70
     0
 10
0.0
 20
0.0
 30
0.0
  3
BLOCK_20
  1

  0
POLYLINE
  5
E7
330
E3
100
AcDbEntity
  8
TOP-PLATE
 62
     7
100
AcDb2dPolyline
 66
     1
 10
0.0
 20
0.0
 30
0.0
  0
VERTEX
  5
E8
330
E7
100
AcDbEntity
  8
TOP-PLATE
 62
     7
100
AcDbVertex
100
AcDb2dVertex
 10
3.476266876425055
 20
89.13037253547625
 30
0.0
  0
VERTEX
  5
E9
330
E7
100
AcDbEntity
  8
TOP-PLATE
 62
     7
100
AcDbVertex
100
AcDb2dVertex
 10
3.476266876425055
 20
75.17315482078565
 30
0.0
  0
VERTEX
  5
EA
330
E7
100
AcDbEntity
  8
TOP-PLATE
 62
     7
100
AcDbVertex
100
AcDb2dVertex
 10
17.43626687291212
 20
75.17315482078565
 30
0.0
  0
VERTEX
  5
EB
330
E7
100
AcDbEntity
  8
TOP-PLATE
 62
     7
100
AcDbVertex
100
AcDb2dVertex
 10
17.43626687291212
 20
89.13037253547625
 30
0.0
  0
VERTEX
  5
EC
330
E7
100
AcDbEntity
  8
TOP-PLATE
 62
     7
100
AcDbVertex
100
AcDb2dVertex
 10
3.476266876425055
 20
89.13037253547625
 30
0.0
  0
SEQEND
  5
ED
330
E7
100
AcDbEntity
  8
TOP-PLATE
 62
     7
  0
ENDBLK
  5
E6
330
E3
100
AcDbEntity
  8
0
100
AcDbBlockEnd
  0
BLOCK
  5
F0
330
EE
100
AcDbEntity
  8
0
100
AcDbBlockBegin
  2
BLOCK_21
 70
     0
 10
0.0
 20
0.0
 30
0.0
  3
BLOCK_21
  1

  0
POLYLINE
  5
F2
330
EE
100
AcDbEntity
  8
TOP-PLATE
 62
     7
100
AcDb2dPolyline
 66
     1
 10
0.0
 20
0.0
 30
0.0
  0
VERTEX
  5
F3
330
F2
100
AcDbEntity
  8
TOP-PLATE
 62
     7
100
AcDbVertex
100
AcDb2dVertex
 10
22.47547324510223
 20
92.63050338997445
 30
0.0
  0
VERTEX
  5
F4
330
F2
100
AcDbEntity
  8
TOP-PLATE
 62
     7
100
AcDbVertex
100
AcDb2dVertex
 10
22.47547324510223
 20
78.67326420569407
 30
0.0
  0
VERTEX
  5
F5
330
F2
100
AcDbEntity
  8
TOP-PLATE
 62
     7
100
AcDbVertex
100
AcDb2dVertex
 10
36.43547324158929
 20
78.67326420569407
 30
0.0
  0
VERTEX
  5
F6
330
F2
100
AcDbEntity
  8
TOP-PLATE
 62
     7
100
AcDbVertex
100
AcDb2dVertex
 10
36.43547324158929
 20
92.63050338997445
 30
0.0
  0
VERTEX
  5
F7
330
F2
100
AcDbEntity
  8
TOP-PLATE
 62
     7
100
AcDbVertex
100
AcDb2dVertex
 10
22.47547324510223
 20
92.63050338997445
 30
0.0
  0
SEQEND
  5
F8
330
F2
100
AcDbEntity
  8
TOP-PLATE
 62
     7
  0
ENDBLK
  5
F1
330
EE
100
AcDbEntity
  8
0
100
AcDbBlockEnd
  0
BLOCK
  5
FB
330
F9
100
AcDbEntity
  8
0
100
AcDbBlockBegin
  2
BLOCK_22
 70
     0
 10
0.0
 20
0.0
 30
0.0
  3
BLOCK_22
  1

  0
POLYLINE
  5
FD
330
F9
100
AcDbEntity
  8
TOP-PLATE
 62
     7
100
AcDb2dPolyline
 66
     1
 10
0.0
 20
0.0
 30
0.0
  0
VERTEX
  5
FE
330
FD
100
AcDbEntity
  8
TOP-PLATE
 62
     7
100
AcDbVertex
100
AcDb2dVertex
 10
41.47467961377843
 20
89.13037253547625
 30
0.0
  0
VERTEX
  5
FF
330
FD
100
AcDbEntity
  8
TOP-PLATE
 62
     7
100
AcDbVertex
100
AcDb2dVertex
 10
41.47467961377843
 20
75.17315482078565
 30
0.0
  0
VERTEX
  5
100
330
FD
100
AcDbEntity
  8
TOP-PLATE
 62
     7
100
AcDbVertex
100
AcDb2dVertex
 10
55.43467961026614
 20
75.17315482078565
 30
0.0
  0
VERTEX
  5
101
330
FD
100
AcDbEntity
  8
TOP-PLATE
 62
     7
100
AcDbVertex
100
AcDb2dVertex
 10
55.43467961026614
 20
89.13037253547625
 30
0.0
  0
VERTEX
  5
102
330
FD
100
AcDbEntity
  8
TOP-PLATE
 62
     7
100
AcDbVertex
100
AcDb2dVertex
 10
41.47467961377843
 20
89.13037253547625
 30
0.0
  0
SEQEND
  5
103
330
FD
100
AcDbEntity
  8
TOP-PLATE
 62
     7
  0
ENDBLK
  5
FC
330
F9
100
AcDbEntity
  8
0
100
AcDbBlockEnd
  0
BLOCK
  5
106
330
104
100
AcDbEntity
  8
0
100
AcDbBlockBegin
  2
BLOCK_23
 70
     0
 10
0.0
 20
0.0
 30
0.0
  3
BLOCK_23
  1

  0
POLYLINE
  5
108
330
104
100
AcDbEntity
  8
TOP-PLATE
 62
     7
100
AcDb2dPolyline
 66
     1
 10
0.0
 20
0.0
 30
0.0
  0
VERTEX
  5
109
330
108
100
AcDbEntity
  8
TOP-PLATE
 62
     7
100
AcDbVertex
100
AcDb2dVertex
 10
60.47640520852887
 20
78.13218140856848
 30
0.0
  0
VERTEX
  5
10A
330
108
100
AcDbEntity
  8
TOP-PLATE
 62
     7
100
AcDbVertex
100
AcDb2dVertex
 10
60.47640520852887
 20
64.17240881262241
 30
0.0
  0
VERTEX
  5
10B
330
108
100
AcDbEntity
  8
TOP-PLATE
 62
     7
100
AcDbVertex
100
AcDb2dVertex
 10
74.43640520501657
 20
64.17240881262241
 30
0.0
  0
VERTEX
  5
10C
330
108
100
AcDbEntity
  8
TOP-PLATE
 62
     7
100
AcDbVertex
100
AcDb2dVertex
 10
74.43640520501657
 20
78.13218140856848
 30
0.0
  0
VERTEX
  5
10D
330
108
100
AcDbEntity
  8
TOP-PLATE
 62
     7
100
AcDbVertex
100
AcDb2dVertex
 10
60.47640520852887
 20
78.13218140856848
 30
0.0
  0
SEQEND
  5
10E
330
108
100
AcDbEntity
  8
TOP-PLATE
 62
     7
  0
ENDBLK
  5
107
330
104
100
AcDbEntity
  8
0
100
AcDbBlockEnd
  0
BLOCK
  5
111
330
10F
100
AcDbEntity
  8
0
100
AcDbBlockBegin
  2
BLOCK_24
 70
     0
 10
0.0
 20
0.0
 30
0.0
  3
BLOCK_24
  1

  0
POLYLINE
  5
113
330
10F
100
AcDbEntity
  8
TOP-PLATE
 62
     7
100
AcDb2dPolyline
 66
     1
 10
0.0
 20
0.0
 30
0.0
  0
VERTEX
  5
114
330
113
100
AcDbEntity
  8
TOP-PLATE
 62
     7
100
AcDbVertex
100
AcDb2dVertex
 10
79.47561157720571
 20
78.13218140856848
 30
0.0
  0
VERTEX
  5
115
330
113
100
AcDbEntity
  8
TOP-PLATE
 62
     7
100
AcDbVertex
100
AcDb2dVertex
 10
79.47561157720571
 20
64.17240881262241
 30
0.0
  0
VERTEX
  5
116
330
113
100
AcDbEntity
  8
TOP-PLATE
 62
     7
100
AcDbVertex
100
AcDb2dVertex
 10
93.43561157369342
 20
64.17240881262241
 30
0.0
  0
VERTEX
  5
117
330
113
100
AcDbEntity
  8
TOP-PLATE
 62
     7
100
AcDbVertex
100
AcDb2dVertex
 10
93.43561157369342
 20
78.13218140856848
 30
0.0
  0
VERTEX
  5
118
330
113
100
AcDbEntity
  8
TOP-PLATE
 62
     7
100
AcDbVertex
100
AcDb2dVertex
 10
79.47561157720571
 20
78.13218140856848
 30
0.0
  0
SEQEND
  5
119
330
113
100
AcDbEntity
  8
TOP-PLATE
 62
     7
  0
ENDBLK
  5
112
330
10F
100
AcDbEntity
  8
0
100
AcDbBlockEnd
  0
BLOCK
  5
11C
330
11A
100
AcDbEntity
  8
0
100
AcDbBlockBegin
  2
BLOCK_25
 70
     0
 10
0.0
 20
0.0
 30
0.0
  3
BLOCK_25
  1

  0
POLYLINE
  5
11E
330
11A
100
AcDbEntity
  8
TOP-PLATE
 62
     7
100
AcDb2dPolyline
 66
     1
 10
0.0
 20
0.0
 30
0.0
  0
VERTEX
  5
11F
330
11E
100
AcDbEntity
  8
TOP-PLATE
 62
     7
100
AcDbVertex
100
AcDb2dVertex
 10
-15.5241883393652
 20
66.63232802543314
 30
0.0
  0
VERTEX
  5
120
330
11E
100
AcDbEntity
  8
TOP-PLATE
 62
     7
100
AcDbVertex
100
AcDb2dVertex
 10
-15.5241883393652
 20
52.67000559614807
 30
0.0
  0
VERTEX
  5
121
330
11E
100
AcDbEntity
  8
TOP-PLATE
 62
     7
100
AcDbVertex
100
AcDb2dVertex
 10
-1.564188342878134
 20
52.67000559614807
 30
0.0
  0
VERTEX
  5
122
330
11E
100
AcDbEntity
  8
TOP-PLATE
 62
     7
100
AcDbVertex
100
AcDb2dVertex
 10
-1.564188342878134
 20
66.63232802543314
 30
0.0
  0
VERTEX
  5
123
330
11E
100
AcDbEntity
  8
TOP-PLATE
 62
     7
100
AcDbVertex
100
AcDb2dVertex
 10
-15.5241883393652
 20
66.63232802543314
 30
0.0
  0
SEQEND
  5
124
330
11E
100
AcDbEntity
  8
TOP-PLATE
 62
     7
  0
ENDBLK
  5
11D
330
11A
100
AcDbEntity
  8
0
100
AcDbBlockEnd
  0
BLOCK
  5
127
330
125
100
AcDbEntity
  8
0
100
AcDbBlockBegin
  2
BLOCK_26
 70
     0
 10
0.0
 20
0.0
 30
0.0
  3
BLOCK_26
  1

  0
POLYLINE
  5
129
330
125
100
AcDbEntity
  8
TOP-PLATE
 62
     7
100
AcDb2dPolyline
 66
     1
 10
0.0
 20
0.0
 30
0.0
  0
VERTEX
  5
12A
330
129
100
AcDbEntity
  8
TOP-PLATE
 62
     7
100
AcDbVertex
100
AcDb2dVertex
 10
3.476266876425055
 20
70.13118399439035
 30
0.0
  0
VERTEX
  5
12B
330
129
100
AcDbEntity
  8
TOP-PLATE
 62
     7
100
AcDbVertex
100
AcDb2dVertex
 10
3.476266876425055
 20
56.17141139844426
 30
0.0
  0
VERTEX
  5
12C
330
129
100
AcDbEntity
  8
TOP-PLATE
 62
     7
100
AcDbVertex
100
AcDb2dVertex
 10
17.43626687291212
 20
56.17141139844426
 30
0.0
  0
VERTEX
  5
12D
330
129
100
AcDbEntity
  8
TOP-PLATE
 62
     7
100
AcDbVertex
100
AcDb2dVertex
 10
17.43626687291212
 20
70.13118399439035
 30
0.0
  0
VERTEX
  5
12E
330
129
100
AcDbEntity
  8
TOP-PLATE
 62
     7
100
AcDbVertex
100
AcDb2dVertex
 10
3.476266876425055
 20
70.13118399439035
 30
0.0
  0
SEQEND
  5
12F
330
129
100
AcDbEntity
  8
TOP-PLATE
 62
     7
  0
ENDBLK
  5
128
330
125
100
AcDbEntity
  8
0
100
AcDbBlockEnd
  0
BLOCK
  5
132
330
130
100
AcDbEntity
  8
0
100
AcDbBlockBegin
  2
BLOCK_27
 70
     0
 10
0.0
 20
0.0
 30
0.0
  3
BLOCK_27
  1

  0
POLYLINE
  5
134
330
130
100
AcDbEntity
  8
TOP-PLATE
 62
     7
100
AcDb2dPolyline
 66
     1
 10
0.0
 20
0.0
 30
0.0
  0
VERTEX
  5
135
330
134
100
AcDbEntity
  8
TOP-PLATE
 62
     7
100
AcDbVertex
100
AcDb2dVertex
 10
22.47547324510223
 20
73.63129334817027
 30
0.0
  0
VERTEX
  5
136
330
134
100
AcDbEntity
  8
TOP-PLATE
 62
     7
100
AcDbVertex
100
AcDb2dVertex
 10
22.47547324510223
 20
59.67152075222418
 30
0.0
  0
VERTEX
  5
137
330
134
100
AcDbEntity
  8
TOP-PLATE
 62
     7
100
AcDbVertex
100
AcDb2dVertex
 10
36.43547324158929
 20
59.67152075222418
 30
0.0
  0
VERTEX
  5
138
330
134
100
AcDbEntity
  8
TOP-PLATE
 62
     7
100
AcDbVertex
100
AcDb2dVertex
 10
36.43547324158929
 20
73.63129334817027
 30
0.0
  0
VERTEX
  5
139
330
134
100
AcDbEntity
  8
TOP-PLATE
 62
     7
100
AcDbVertex
100
AcDb2dVertex
 10
22.47547324510223
 20
73.63129334817027
 30
0.0
  0
SEQEND
  5
13A
330
134
100
AcDbEntity
  8
TOP-PLATE
 62
     7
  0
ENDBLK
  5
133
330
130
100
AcDbEntity
  8
0
100
AcDbBlockEnd
  0
BLOCK
  5
13D
330
13B
100
AcDbEntity
  8
0
100
AcDbBlockBegin
  2
BLOCK_28
 70
     0
 10
0.0
 20
0.0
 30
0.0
  3
BLOCK_28
  1

  0
POLYLINE
  5
13F
330
13B
100
AcDbEntity
  8
TOP-PLATE
 62
     7
100
AcDb2dPolyline
 66
     1
 10
0.0
 20
0.0
 30
0.0
  0
VERTEX
  5
140
330
13F
100
AcDbEntity
  8
TOP-PLATE
 62
     7
100
AcDbVertex
100
AcDb2dVertex
 10
41.47467961377843
 20
70.13118399439035
 30
0.0
  0
VERTEX
  5
141
330
13F
100
AcDbEntity
  8
TOP-PLATE
 62
     7
100
AcDbVertex
100
AcDb2dVertex
 10
41.47467961377843
 20
56.17141139844426
 30
0.0
  0
VERTEX
  5
142
330
13F
100
AcDbEntity
  8
TOP-PLATE
 62
     7
100
AcDbVertex
100
AcDb2dVertex
 10
55.43467961026614
 20
56.17141139844426
 30
0.0
  0
VERTEX
  5
143
330
13F
100
AcDbEntity
  8
TOP-PLATE
 62
     7
100
AcDbVertex
100
AcDb2dVertex
 10
55.43467961026614
 20
70.13118399439035
 30
0.0
  0
VERTEX
  5
144
330
13F
100
AcDbEntity
  8
TOP-PLATE
 62
     7
100
AcDbVertex
100
AcDb2dVertex
 10
41.47467961377843
 20
70.13118399439035
 30
0.0
  0
SEQEND
  5
145
330
13F
100
AcDbEntity
  8
TOP-PLATE
 62
     7
  0
ENDBLK
  5
13E
330
13B
100
AcDbEntity
  8
0
100
AcDbBlockEnd
  0
BLOCK
  5
148
330
146
100
AcDbEntity
  8
0
100
AcDbBlockBegin
  2
BLOCK_29
 70
     0
 10
0.0
 20
0.0
 30
0.0
  3
BLOCK_29
  1

  0
POLYLINE
  5
14A
330
146
100
AcDbEntity
  8
TOP-PLATE
 62
     7
100
AcDb2dPolyline
 66
     1
 10
0.0
 20
0.0
 30
0.0
  0
VERTEX
  5
14B
330
14A
100
AcDbEntity
  8
TOP-PLATE
 62
     7
100
AcDbVertex
100
AcDb2dVertex
 10
60.47640520852887
 20
59.13043795509892
 30
0.0
  0
VERTEX
  5
14C
330
14A
100
AcDbEntity
  8
TOP-PLATE
 62
     7
100
AcDbVertex
100
AcDb2dVertex
 10
60.47640520852887
 20
45.1731987708179
 30
0.0
  0
VERTEX
  5
14D
330
14A
100
AcDbEntity
  8
TOP-PLATE
 62
     7
100
AcDbVertex
100
AcDb2dVertex
 10
74.43640520501657
 20
45.1731987708179
 30
0.0
  0
VERTEX
  5
14E
330
14A
100
AcDbEntity
  8
TOP-PLATE
 62
     7
100
AcDbVertex
100
AcDb2dVertex
 10
74.43640520501657
 20
59.13043795509892
 30
0.0
  0
VERTEX
  5
14F
330
14A
100
AcDbEntity
  8
TOP-PLATE
 62
     7
100
AcDbVertex
100
AcDb2dVertex
 10
60.47640520852887
 20
59.13043795509892
 30
0.0
  0
SEQEND
  5
150
330
14A
100
AcDbEntity
  8
TOP-PLATE
 62
     7
  0
ENDBLK
  5
149
330
146
100
AcDbEntity
  8
0
100
AcDbBlockEnd
  0
BLOCK
  5
153
330
151
100
AcDbEntity
  8
0
100
AcDbBlockBegin
  2
BLOCK_30
 70
     0
 10
0.0
 20
0.0
 30
0.0
  3
BLOCK_30
  1

  0
POLYLINE
  5
155
330
151
100
AcDbEntity
  8
TOP-PLATE
 62
     7
100
AcDb2dPolyline
 66
     1
 10
0.0
 20
0.0
 30
0.0
  0
VERTEX
  5
156
330
155
100
AcDbEntity
  8
TOP-PLATE
 62
     7
100
AcDbVertex
100
AcDb2dVertex
 10
79.47561157720571
 20
59.13043795509892
 30
0.0
  0
VERTEX
  5
157
330
155
100
AcDbEntity
  8
TOP-PLATE
 62
     7
100
AcDbVertex
100
AcDb2dVertex
 10
79.47561157720571
 20
45.1731987708179
 30
0.0
  0
VERTEX
  5
158
330
155
100
AcDbEntity
  8
TOP-PLATE
 62
     7
100
AcDbVertex
100
AcDb2dVertex
 10
93.43561157369342
 20
45.1731987708179
 30
0.0
  0
VERTEX
  5
159
330
155
100
AcDbEntity
  8
TOP-PLATE
 62
     7
100
AcDbVertex
100
AcDb2dVertex
 10
93.43561157369342
 20
59.13043795509892
 30
0.0
  0
VERTEX
  5
15A
330
155
100
AcDbEntity
  8
TOP-PLATE
 62
     7
100
AcDbVertex
100
AcDb2dVertex
 10
79.47561157720571
 20
59.13043795509892
 30
0.0
  0
SEQEND
  5
15B
330
155
100
AcDbEntity
  8
TOP-PLATE
 62
     7
  0
ENDBLK
  5
154
330
151
100
AcDbEntity
  8
0
100
AcDbBlockEnd
  0
BLOCK
  5
15E
330
15C
100
AcDbEntity
  8
0
100
AcDbBlockBegin
  2
BLOCK_31
 70
     0
 10
0.0
 20
0.0
 30
0.0
  3
BLOCK_31
  1

  0
POLYLINE
  5
160
330
15C
100
AcDbEntity
  8
TOP-PLATE
 62
     7
100
AcDb2dPolyline
 66
     1
 10
0.0
 20
0.0
 30
0.0
  0
VERTEX
  5
161
330
160
100
AcDbEntity
  8
TOP-PLATE
 62
     7
100
AcDbVertex
100
AcDb2dVertex
 10
-8.489015103903107
 20
47.18607099676909
 30
0.0
  0
VERTEX
  5
162
330
160
100
AcDbEntity
  8
TOP-PLATE
 62
     7
100
AcDbVertex
100
AcDb2dVertex
 10
-20.579051283658
 20
40.20793299217856
 30
0.0
  0
VERTEX
  5
163
330
160
100
AcDbEntity
  8
TOP-PLATE
 62
     7
100
AcDbVertex
100
AcDb2dVertex
 10
-13.60062122968855
 20
28.1158691285965
 30
0.0
  0
VERTEX
  5
164
330
160
100
AcDbEntity
  8
TOP-PLATE
 62
     7
100
AcDbVertex
100
AcDb2dVertex
 10
-1.508051288448284
 20
35.09654078863356
 30
0.0
  0
VERTEX
  5
165
330
160
100
AcDbEntity
  8
TOP-PLATE
 62
     7
100
AcDbVertex
100
AcDb2dVertex
 10
-8.489015103903107
 20
47.18607099676909
 30
0.0
  0
SEQEND
  5
166
330
160
100
AcDbEntity
  8
TOP-PLATE
 62
     7
  0
ENDBLK
  5
15F
330
15C
100
AcDbEntity
  8
0
100
AcDbBlockEnd
  0
BLOCK
  5
169
330
167
100
AcDbEntity
  8
0
100
AcDbBlockBegin
  2
BLOCK_32
 70
     0
 10
0.0
 20
0.0
 30
0.0
  3
BLOCK_32
  1

  0
POLYLINE
  5
16B
330
167
100
AcDbEntity
  8
TOP-PLATE
 62
     7
100
AcDb2dPolyline
 66
     1
 10
0.0
 20
0.0
 30
0.0
  0
VERTEX
  5
16C
330
16B
100
AcDbEntity
  8
TOP-PLATE
 62
     7
100
AcDbVertex
100
AcDb2dVertex
 10
3.476266876425055
 20
51.1319776257135
 30
0.0
  0
VERTEX
  5
16D
330
16B
100
AcDbEntity
  8
TOP-PLATE
 62
     7
100
AcDbVertex
100
AcDb2dVertex
 10
3.476266876425055
 20
37.17220502976742
 30
0.0
  0
VERTEX
  5
16E
330
16B
100
AcDbEntity
  8
TOP-PLATE
 62
     7
100
AcDbVertex
100
AcDb2dVertex
 10
17.43626687291212
 20
37.17220502976742
 30
0.0
  0
VERTEX
  5
16F
330
16B
100
AcDbEntity
  8
TOP-PLATE
 62
     7
100
AcDbVertex
100
AcDb2dVertex
 10
17.43626687291212
 20
51.1319776257135
 30
0.0
  0
VERTEX
  5
170
330
16B
100
AcDbEntity
  8
TOP-PLATE
 62
     7
100
AcDbVertex
100
AcDb2dVertex
 10
3.476266876425055
 20
51.1319776257135
 30
0.0
  0
SEQEND
  5
171
330
16B
100
AcDbEntity
  8
TOP-PLATE
 62
     7
  0
ENDBLK
  5
16A
330
167
100
AcDbEntity
  8
0
100
AcDbBlockEnd
  0
BLOCK
  5
174
330
172
100
AcDbEntity
  8
0
100
AcDbBlockBegin
  2
BLOCK_33
 70
     0
 10
0.0
 20
0.0
 30
0.0
  3
BLOCK_33
  1

  0
POLYLINE
  5
176
330
172
100
AcDbEntity
  8
TOP-PLATE
 62
     7
100
AcDb2dPolyline
 66
     1
 10
0.0
 20
0.0
 30
0.0
  0
VERTEX
  5
177
330
176
100
AcDbEntity
  8
TOP-PLATE
 62
     7
100
AcDbVertex
100
AcDb2dVertex
 10
22.47547324510223
 20
54.63210851134021
 30
0.0
  0
VERTEX
  5
178
330
176
100
AcDbEntity
  8
TOP-PLATE
 62
     7
100
AcDbVertex
100
AcDb2dVertex
 10
22.47547324510223
 20
40.67233591539412
 30
0.0
  0
VERTEX
  5
179
330
176
100
AcDbEntity
  8
TOP-PLATE
 62
     7
100
AcDbVertex
100
AcDb2dVertex
 10
36.43547324158929
 20
40.67233591539412
 30
0.0
  0
VERTEX
  5
17A
330
176
100
AcDbEntity
  8
TOP-PLATE
 62
     7
100
AcDbVertex
100
AcDb2dVertex
 10
36.43547324158929
 20
54.63210851134021
 30
0.0
  0
VERTEX
  5
17B
330
176
100
AcDbEntity
  8
TOP-PLATE
 62
     7
100
AcDbVertex
100
AcDb2dVertex
 10
22.47547324510223
 20
54.63210851134021
 30
0.0
  0
SEQEND
  5
17C
330
176
100
AcDbEntity
  8
TOP-PLATE
 62
     7
  0
ENDBLK
  5
175
330
172
100
AcDbEntity
  8
0
100
AcDbBlockEnd
  0
BLOCK
  5
17F
330
17D
100
AcDbEntity
  8
0
100
AcDbBlockBegin
  2
BLOCK_34
 70
     0
 10
0.0
 20
0.0
 30
0.0
  3
BLOCK_34
  1

  0
POLYLINE
  5
181
330
17D
100
AcDbEntity
  8
TOP-PLATE
 62
     7
100
AcDb2dPolyline
 66
     1
 10
0.0
 20
0.0
 30
0.0
  0
VERTEX
  5
182
330
181
100
AcDbEntity
  8
TOP-PLATE
 62
     7
100
AcDbVertex
100
AcDb2dVertex
 10
41.47467961377843
 20
51.1319776257135
 30
0.0
  0
VERTEX
  5
183
330
181
100
AcDbEntity
  8
TOP-PLATE
 62
     7
100
AcDbVertex
100
AcDb2dVertex
 10
41.47467961377843
 20
38.41825828803345
 30
0.0
  0
VERTEX
  5
184
330
181
100
AcDbEntity
  8
TOP-PLATE
 62
     7
100
AcDbVertex
100
AcDb2dVertex
 10
41.47467961377843
 20
37.42041092095833
 30
0.0
  0
VERTEX
  5
185
330
181
100
AcDbEntity
  8
TOP-PLATE
 62
     7
100
AcDbVertex
100
AcDb2dVertex
 10
41.47467961377843
 20
37.17220502976742
 30
0.0
  0
VERTEX
  5
186
330
181
100
AcDbEntity
  8
TOP-PLATE
 62
     7
100
AcDbVertex
100
AcDb2dVertex
 10
55.43467961026614
 20
37.17220502976742
 30
0.0
  0
VERTEX
  5
187
330
181
100
AcDbEntity
  8
TOP-PLATE
 62
     7
100
AcDbVertex
100
AcDb2dVertex
 10
55.43467961026614
 20
51.1319776257135
 30
0.0
  0
VERTEX
  5
188
330
181
100
AcDbEntity
  8
TOP-PLATE
 62
     7
100
AcDbVertex
100
AcDb2dVertex
 10
41.47467961377843
 20
51.1319776257135
 30
0.0
  0
SEQEND
  5
189
330
181
100
AcDbEntity
  8
TOP-PLATE
 62
     7
  0
ENDBLK
  5
180
330
17D
100
AcDbEntity
  8
0
100
AcDbBlockEnd
  0
BLOCK
  5
18C
330
18A
100
AcDbEntity
  8
0
100
AcDbBlockBegin
  2
BLOCK_35
 70
     0
 10
0.0
 20
0.0
 30
0.0
  3
BLOCK_35
  1

  0
POLYLINE
  5
18E
330
18A
100
AcDbEntity
  8
TOP-PLATE
 62
     7
100
AcDb2dPolyline
 66
     1
 10
0.0
 20
0.0
 30
0.0
  0
VERTEX
  5
18F
330
18E
100
AcDbEntity
  8
TOP-PLATE
 62
     7
100
AcDbVertex
100
AcDb2dVertex
 10
22.47547324510223
 20
130.6314316802741
 30
0.0
  0
VERTEX
  5
190
330
18E
100
AcDbEntity
  8
TOP-PLATE
 62
     7
100
AcDbVertex
100
AcDb2dVertex
 10
22.47547324510223
 20
116.6716590843286
 30
0.0
  0
VERTEX
  5
191
330
18E
100
AcDbEntity
  8
TOP-PLATE
 62
     7
100
AcDbVertex
100
AcDb2dVertex
 10
36.43547324158929
 20
116.6716590843286
 30
0.0
  0
VERTEX
  5
192
330
18E
100
AcDbEntity
  8
TOP-PLATE
 62
     7
100
AcDbVertex
100
AcDb2dVertex
 10
36.43547324158929
 20
130.6314316802741
 30
0.0
  0
VERTEX
  5
193
330
18E
100
AcDbEntity
  8
TOP-PLATE
 62
     7
100
AcDbVertex
100
AcDb2dVertex
 10
22.47547324510223
 20
130.6314316802741
 30
0.0
  0
SEQEND
  5
194
330
18E
100
AcDbEntity
  8
TOP-PLATE
 62
     7
  0
ENDBLK
  5
18D
330
18A
100
AcDbEntity
  8
0
100
AcDbBlockEnd
  0
BLOCK
  5
197
330
195
100
AcDbEntity
  8
0
100
AcDbBlockBegin
  2
BLOCK_36
 70
     0
 10
0.0
 20
0.0
 30
0.0
  3
BLOCK_36
  1

  0
POLYLINE
  5
199
330
195
100
AcDbEntity
  8
TOP-PLATE
 62
     7
100
AcDb2dPolyline
 66
     1
 10
0.0
 20
0.0
 30
0.0
  0
VERTEX
  5
19A
330
199
100
AcDbEntity
  8
TOP-PLATE
 62
     7
100
AcDbVertex
100
AcDb2dVertex
 10
-38.4946854649699
 20
66.64121614044514
 30
0.0
  0
VERTEX
  5
19B
330
199
100
AcDbEntity
  8
TOP-PLATE
 62
     7
100
AcDbVertex
100
AcDb2dVertex
 10
-38.4946854649699
 20
53.92749680276508
 30
0.0
  0
VERTEX
  5
19C
330
199
100
AcDbEntity
  8
TOP-PLATE
 62
     7
100
AcDbVertex
100
AcDb2dVertex
 10
-38.4946854649699
 20
52.93218280608671
 30
0.0
  0
VERTEX
  5
19D
330
199
100
AcDbEntity
  8
TOP-PLATE
 62
     7
100
AcDbVertex
100
AcDb2dVertex
 10
-38.4946854649699
 20
52.68144354449905
 30
0.0
  0
VERTEX
  5
19E
330
199
100
AcDbEntity
  8
TOP-PLATE
 62
     7
100
AcDbVertex
100
AcDb2dVertex
 10
-24.53468546848285
 20
52.68144354449905
 30
0.0
  0
VERTEX
  5
19F
330
199
100
AcDbEntity
  8
TOP-PLATE
 62
     7
100
AcDbVertex
100
AcDb2dVertex
 10
-24.53468546848285
 20
66.64121614044514
 30
0.0
  0
VERTEX
  5
1A0
330
199
100
AcDbEntity
  8
TOP-PLATE
 62
     7
100
AcDbVertex
100
AcDb2dVertex
 10
-38.4946854649699
 20
66.64121614044514
 30
0.0
  0
SEQEND
  5
1A1
330
199
100
AcDbEntity
  8
TOP-PLATE
 62
     7
  0
ENDBLK
  5
198
330
195
100
AcDbEntity
  8
0
100
AcDbBlockEnd
  0
BLOCK
  5
1A4
330
1A2
100
AcDbEntity
  8
0
100
AcDbBlockBegin
  2
BLOCK_37
 70
     0
 10
0.0
 20
0.0
 30
0.0
  3
BLOCK_37
  1

  0
POLYLINE
  5
1A6
330
1A2
100
AcDbEntity
  8
TOP-PLATE
 62
     7
100
AcDb2dPolyline
 66
     1
 10
0.0
 20
0.0
 30
0.0
  0
VERTEX
  5
1A7
330
1A6
100
AcDbEntity
  8
TOP-PLATE
 62
     7
100
AcDbVertex
100
AcDb2dVertex
 10
-27.38915344553192
 20
41.88762179639235
 30
0.0
  0
VERTEX
  5
1A8
330
1A6
100
AcDbEntity
  8
TOP-PLATE
 62
     7
100
AcDbVertex
100
AcDb2dVertex
 10
-39.47918962528681
 20
34.90695013876871
 30
0.0
  0
VERTEX
  5
1A9
330
1A6
100
AcDbEntity
  8
TOP-PLATE
 62
     7
100
AcDbVertex
100
AcDb2dVertex
 10
-32.49822580983263
 20
22.81741993481225
 30
0.0
  0
VERTEX
  5
1AA
330
1A6
100
AcDbEntity
  8
TOP-PLATE
 62
     7
100
AcDbVertex
100
AcDb2dVertex
 10
-20.40818963007774
 20
29.79555793699096
 30
0.0
  0
VERTEX
  5
1AB
330
1A6
100
AcDbEntity
  8
TOP-PLATE
 62
     7
100
AcDbVertex
100
AcDb2dVertex
 10
-27.38915344553192
 20
41.88762179639235
 30
0.0
  0
SEQEND
  5
1AC
330
1A6
100
AcDbEntity
  8
TOP-PLATE
 62
     7
  0
ENDBLK
  5
1A5
330
1A2
100
AcDbEntity
  8
0
100
AcDbBlockEnd
  0
ENDSEC
  0
SECTION
  2
ENTITIES
  0
INSERT
  5
42
330
1F
100
AcDbEntity
  8
TOP-PLATE
100
AcDbBlockReference
  2
BLOCK_2
 10
0.0
 20
0.0
 30
0.0
  0
INSERT
  5
47
330
1F
100
AcDbEntity
  8
TOP-PLATE
100
AcDbBlockReference
  2
BLOCK_3
 10
0.0
 20
0.0
 30
0.0
  0
INSERT
  5
4C
330
1F
100
AcDbEntity
  8
TOP-PLATE
100
AcDbBlockReference
  2
BLOCK_4
 10
0.0
 20
0.0
 30
0.0
  0
INSERT
  5
51
330
1F
100
AcDbEntity
  8
TOP-PLATE
100
AcDbBlockReference
  2
BLOCK_5
 10
0.0
 20
0.0
 30
0.0
  0
INSERT
  5
56
330
1F
100
AcDbEntity
  8
TOP-PLATE
100
AcDbBlockReference
  2
BLOCK_6
 10
0.0
 20
0.0
 30
0.0
  0
INSERT
  5
5B
330
1F
100
AcDbEntity
  8
TOP-PLATE
100
AcDbBlockReference
  2
BLOCK_7
 10
0.0
 20
0.0
 30
0.0
  0
INSERT
  5
60
330
1F
100
AcDbEntity
  8
TOP-PLATE
100
AcDbBlockReference
  2
BLOCK_8
 10
0.0
 20
0.0
 30
0.0
  0
INSERT
  5
6B
330
1F
100
AcDbEntity
  8
TOP-PLATE
100
AcDbBlockReference
  2
BLOCK_9
 10
0.0
 20
0.0
 30
0.0
  0
INSERT
  5
76
330
1F
100
AcDbEntity
  8
TOP-PLATE
100
AcDbBlockReference
  2
BLOCK_10
 10
0.0
 20
0.0
 30
0.0
  0
INSERT
  5
81
330
1F
100
AcDbEntity
  8
TOP-PLATE
100
AcDbBlockReference
  2
BLOCK_11
 10
0.0
 20
0.0
 30
0.0
  0
INSERT
  5
8C
330
1F
100
AcDbEntity
  8
TOP-PLATE
100
AcDbBlockReference
  2
BLOCK_12
 10
0.0
 20
0.0
 30
0.0
  0
INSERT
  5
97
330
1F
100
AcDbEntity
  8
TOP-PLATE
100
AcDbBlockReference
  2
BLOCK_13
 10
0.0
 20
0.0
 30
0.0
  0
INSERT
  5
A2
330
1F
100
AcDbEntity
  8
TOP-PLATE
100
AcDbBlockReference
  2
BLOCK_14
 10
0.0
 20
0.0
 30
0.0
  0
INSERT
  5
AD
330
1F
100
AcDbEntity
  8
TOP-PLATE
100
AcDbBlockReference
  2
BLOCK_15
 10
0.0
 20
0.0
 30
0.0
  0
INSERT
  5
B8
330
1F
100
AcDbEntity
  8
TOP-PLATE
100
AcDbBlockReference
  2
BLOCK_16
 10
0.0
 20
0.0
 30
0.0
  0
INSERT
  5
C3
330
1F
100
AcDbEntity
  8
TOP-PLATE
100
AcDbBlockReference
  2
BLOCK_17
 10
0.0
 20
0.0
 30
0.0
  0
INSERT
  5
CE
330
1F
100
AcDbEntity
  8
TOP-PLATE
100
AcDbBlockReference
  2
BLOCK_18
 10
0.0
 20
0.0
 30
0.0
  0
INSERT
  5
D9
330
1F
100
AcDbEntity
  8
TOP-PLATE
100
AcDbBlockReference
  2
BLOCK_19
 10
0.0
 20
0.0
 30
0.0
  0
INSERT
  5
E4
330
1F
100
AcDbEntity
  8
TOP-PLATE
100
AcDbBlockReference
  2
BLOCK_20
 10
0.0
 20
0.0
 30
0.0
  0
INSERT
  5
EF
330
1F
100
AcDbEntity
  8
TOP-PLATE
100
AcDbBlockReference
  2
BLOCK_21
 10
0.0
 20
0.0
 30
0.0
  0
INSERT
  5
FA
330
1F
100
AcDbEntity
  8
TOP-PLATE
100
AcDbBlockReference
  2
BLOCK_22
 10
0.0
 20
0.0
 30
0.0
  0
INSERT
  5
105
330
1F
100
AcDbEntity
  8
TOP-PLATE
100
AcDbBlockReference
  2
BLOCK_23
 10
0.0
 20
0.0
 30
0.0
  0
INSERT
  5
110
330
1F
100
AcDbEntity
  8
TOP-PLATE
100
AcDbBlockReference
  2
BLOCK_24
 10
0.0
 20
0.0
 30
0.0
  0
INSERT
  5
11B
330
1F
100
AcDbEntity
  8
TOP-PLATE
100
AcDbBlockReference
  2
BLOCK_25
 10
0.0
 20
0.0
 30
0.0
  0
INSERT
  5
126
330
1F
100
AcDbEntity
  8
TOP-PLATE
100
AcDbBlockReference
  2
BLOCK_26
 10
0.0
 20
0.0
 30
0.0
  0
INSERT
  5
131
330
1F
100
AcDbEntity
  8
TOP-PLATE
100
AcDbBlockReference
  2
BLOCK_27
 10
0.0
 20
0.0
 30
0.0
  0
INSERT
  5
13C
330
1F
100
AcDbEntity
  8
TOP-PLATE
100
AcDbBlockReference
  2
BLOCK_28
 10
0.0
 20
0.0
 30
0.0
  0
INSERT
  5
147
330
1F
100
AcDbEntity
  8
TOP-PLATE
100
AcDbBlockReference
  2
BLOCK_29
 10
0.0
 20
0.0
 30
0.0
  0
INSERT
  5
152
330
1F
100
AcDbEntity
  8
TOP-PLATE
100
AcDbBlockReference
  2
BLOCK_30
 10
0.0
 20
0.0
 30
0.0
  0
INSERT
  5
15D
330
1F
100
AcDbEntity
  8
TOP-PLATE
100
AcDbBlockReference
  2
BLOCK_31
 10
0.0
 20
0.0
 30
0.0
  0
INSERT
  5
168
330
1F
100
AcDbEntity
  8
TOP-PLATE
100
AcDbBlockReference
  2
BLOCK_32
 10
0.0
 20
0.0
 30
0.0
  0
INSERT
  5
173
330
1F
100
AcDbEntity
  8
TOP-PLATE
100
AcDbBlockReference
  2
BLOCK_33
 10
0.0
 20
0.0
 30
0.0
  0
INSERT
  5
17E
330
1F
100
AcDbEntity
  8
TOP-PLATE
100
AcDbBlockReference
  2
BLOCK_34
 10
0.0
 20
0.0
 30
0.0
  0
INSERT
  5
18B
330
1F
100
AcDbEntity
  8
TOP-PLATE
100
AcDbBlockReference
  2
BLOCK_35
 10
0.0
 20
0.0
 30
0.0
  0
INSERT
  5
196
330
1F
100
AcDbEntity
  8
TOP-PLATE
100
AcDbBlockReference
  2
BLOCK_36
 10
0.0
 20
0.0
 30
0.0
  0
INSERT
  5
1A3
330
1F
100
AcDbEntity
  8
TOP-PLATE
100
AcDbBlockReference
  2
BLOCK_37
 10
0.0
 20
0.0
 30
0.0
  0
ENDSEC
  0
SECTION
  2
OBJECTS
  0
DICTIONARY
  5
C
330
0
100
AcDbDictionary
  3
ACAD_GROUP
350
D
  3
ACAD_LAYOUT
350
1A
  3
ACAD_MATERIAL
350
3B
  3
ACAD_MLEADERSTYLE
350
1AF
  3
ACAD_MLINESTYLE
350
17
  3
ACAD_PLOTSETTINGS
350
19
  3
ACAD_VISUALSTYLE
350
2A
  3
ACDBVARIABLEDICTIONARY
350
1AD
1001
ACAD
1000
TREAT_AS_HARD
1070
     0
  0
DICTIONARY
  5
D
102
{ACAD_REACTORS
330
C
102
}
330
C
100
AcDbDictionary
1001
ACAD
1000
TREAT_AS_HARD
1070
     0
  0
DICTIONARY
  5
1A
102
{ACAD_REACTORS
330
C
102
}
330
C
100
AcDbDictionary
1001
ACAD
1000
TREAT_AS_HARD
1070
     0
  0
DICTIONARY
  5
3B
102
{ACAD_REACTORS
330
C
102
}
330
C
100
AcDbDictionary
  3
BYBLOCK
350
3D
  3
BYLAYER
350
3C
  3
GLOBAL
350
3E
1001
ACAD
1000
TREAT_AS_HARD
1070
     0
  0
DICTIONARY
  5
1AF
102
{ACAD_REACTORS
330
C
102
}
330
C
100
AcDbDictionary
1001
ACAD
1000
TREAT_AS_HARD
1070
     0
  0
DICTIONARY
  5
17
102
{ACAD_REACTORS
330
C
102
}
330
C
100
AcDbDictionary
  3
STANDARD
350
18
1001
ACAD
1000
TREAT_AS_HARD
1070
     0
  0
DICTIONARY
  5
19
102
{ACAD_REACTORS
330
C
102
}
330
C
100
AcDbDictionary
1001
ACAD
1000
TREAT_AS_HARD
1070
     0
  0
DICTIONARY
  5
2A
102
{ACAD_REACTORS
330
C
102
}
330
C
100
AcDbDictionary
  3
2DWIREFRAME
350
2F
  3
3DWIREFRAME
350
30
  3
3D_HIDDEN
350
31
  3
BASIC
350
32
  3
BRIGHTEN
350
36
  3
COLORCHANGE
350
3A
  3
CONCEPTUAL
350
34
  3
DIM
350
35
  3
FACEPATTERN
350
39
  3
FLAT
350
2B
  3
FLATWITHEDGES
350
2C
  3
GOURAUD
350
2D
  3
GOURAUDWITHEDGES
350
2E
  3
LINEPATTERN
350
38
  3
REALISTIC
350
33
  3
THICKEN
350
37
1001
ACAD
1000
TREAT_AS_HARD
1070
     0
  0
DICTIONARY
  5
1AD
102
{ACAD_REACTORS
330
C
102
}
330
C
100
AcDbDictionary
  3
DIMASSOC
350
1B0
  3
HIDETEXT
350
1B1
1001
ACAD
1000
TREAT_AS_HARD
1070
     0
  0
MATERIAL
  5
3D
102
{ACAD_REACTORS
330
3B
102
}
102
{ACAD_XDICTIONARY
360
1B4
102
}
330
3B
100
AcDbMaterial
  1
ByBlock
  0
MATERIAL
  5
3C
102
{ACAD_REACTORS
330
3B
102
}
102
{ACAD_XDICTIONARY
360
1B2
102
}
330
3B
100
AcDbMaterial
  1
ByLayer
  0
MATERIAL
  5
3E
102
{ACAD_REACTORS
330
3B
102
}
102
{ACAD_XDICTIONARY
360
1B6
102
}
330
3B
100
AcDbMaterial
  1
Global
  0
MLINESTYLE
  5
18
102
{ACAD_REACTORS
330
17
102
}
330
17
100
AcDbMlineStyle
  2
Standard
 70
     0
  3

 62
   256
 51
90.0
 52
90.0
 71
     2
 49
0.5
 62
   256
  6
BYLAYER
 49
-0.5
 62
   256
  6
BYLAYER
  0
ACAD_PROXY_OBJECT
  5
2F
102
{ACAD_REACTORS
330
2A
102
}
330
2A
100
AcDbZombieObject
 90
      499
 91
      501
 93
      436
310
42CC9915DA5C99599C985B595049028333333333333E3BF0000000000000FB0107901411070040501600405405064090741402480A0340
1001
ACAD
1000
AcDbSavedByObjectVersion
1070
     0
  0
ACAD_PROXY_OBJECT
  5
30
102
{ACAD_REACTORS
330
2A
102
}
330
2A
100
AcDbZombieObject
 90
      499
 91
      501
 93
      436
310
42CCD915DA5C99599C985B595059028333333333333E3BF0000000000000FB0107901411070040501600405405064090741402480A0340
1001
ACAD
1000
AcDbSavedByObjectVersion
1070
     0
  0
ACAD_PROXY_OBJECT
  5
31
102
{ACAD_REACTORS
330
2A
102
}
330
2A
100
AcDbZombieObject
 90
      499
 91
      501
 93
      500
310
424CD108121A5919195B90640502408333333333333E3BF0000000000000FB01079024090700405020000000000001110200405405064090740C02480A0340
1001
ACAD
1000
AcDbSavedByObjectVersion
1070
     0
  0
ACAD_PROXY_OBJECT
  5
32
102
{ACAD_REACTORS
330
2A
102
}
330
2A
100
AcDbZombieObject
 90
      499
 91
      501
 93
      388
310
4150985CDA58D07406404333333333333E3BF0000000000000FB0107A41107004050150841D405064090741402480A0350
1001
ACAD
1000
AcDbSavedByObjectVersion
1070
     0
  0
ACAD_PROXY_OBJECT
  5
36
102
{ACAD_REACTORS
330
2A
102
}
330
2A
100
AcDbZombieObject
 90
      499
 91
      501
 93
      428
310
42109C9A59DA1D195B90C409028333333333333E3BF0000000000000FB010790141107004050150841D405064090741402480A029950
1001
ACAD
1000
AcDbSavedByObjectVersion
1070
     0
  0
ACAD_PROXY_OBJECT
  5
3A
102
{ACAD_REACTORS
330
2A
102
}
330
2A
100
AcDbZombieObject
 90
      499
 91
      501
 93
      452
310
42D0DBDB1BDC90DA185B99D95104090240C333333333333E3BF0000000000000FB0108901411070040501508421405064090741402480A0350
1001
ACAD
1000
AcDbSavedByObjectVersion
1070
     0
  0
ACAD_PROXY_OBJECT
  5
34
102
{ACAD_REACTORS
330
2A
102
}
330
2A
100
AcDbZombieObject
 90
      499
 91
      501
 93
      500
310
4290DBDB98D95C1D1D585B10940D028333333333333E3BF0000000000000FB0107902409070040501000000000000111010841D405064090740C02480A0340
1001
ACAD
1000
AcDbSavedByObjectVersion
1070
     0
  0
ACAD_PROXY_OBJECT
  5
35
102
{ACAD_REACTORS
330
2A
102
}
330
2A
100
AcDbZombieObject
 90
      499
 91
      501
 93
      412
310
40D11A5B50B409028333333333333E3BF0000000000000FB010790141107004050150841D405064090741402480A02677FFFFFD0
1001
ACAD
1000
AcDbSavedByObjectVersion
1070
     0
  0
ACAD_PROXY_OBJECT
  5
39
102
{ACAD_REACTORS
330
2A
102
}
330
2A
100
AcDbZombieObject
 90
      499
 91
      501
 93
      444
310
42D19858D95C185D1D195C9B90F409028333333333333E3BF0000000000000FB010790141107004050150841D405064090741402480A0350
1001
ACAD
1000
AcDbSavedByObjectVersion
1070
     0
  0
ACAD_PROXY_OBJECT
  5
2B
102
{ACAD_REACTORS
330
2A
102
}
330
2A
100
AcDbZombieObject
 90
      499
 91
      501
 93
      388
310
41119B185D240901404333333333333E3BF0000000000000F9010740A41107004050150841D405064090741402480A1B50
1001
ACAD
1000
AcDbSavedByObjectVersion
1070
     0
  0
ACAD_PROXY_OBJECT
  5
2C
102
{ACAD_REACTORS
330
2A
102
}
330
2A
100
AcDbZombieObject
 90
      499
 91
      501
 93
      476
310
43519B185D15DA5D1A115919D95CD0140901404333333333333E3BF0000000000000F9010740901411070040501600405405064090741402480A1B50
1001
ACAD
1000
AcDbSavedByObjectVersion
1070
     0
  0
ACAD_PROXY_OBJECT
  5
2D
102
{ACAD_REACTORS
330
2A
102
}
330
2A
100
AcDbZombieObject
 90
      499
 91
      501
 93
      412
310
41D1DBDD5C985D5910240902404333333333333E3BF0000000000000F9010740A411070040501641D405064090741402480A1B50
1001
ACAD
1000
AcDbSavedByObjectVersion
1070
     0
  0
ACAD_PROXY_OBJECT
  5
2E
102
{ACAD_REACTORS
330
2A
102
}
330
2A
100
AcDbZombieObject
 90
      499
 91
      501
 93
      500
310
4411DBDD5C985D5915DA5D1A115919D95CD0340902404333333333333E3BF0000000000000F9010740901411070040501600405405064090741402480A1B50
1001
ACAD
1000
AcDbSavedByObjectVersion
1070
     0
  0
ACAD_PROXY_OBJECT
  5
38
102
{ACAD_REACTORS
330
2A
102
}
330
2A
100
AcDbZombieObject
 90
      499
 91
      501
 93
      444
310
42D31A5B995C185D1D195C9B90E409028333333333333E3BF0000000000000FB010790141107004050750841D405064090741402483A0350
1001
ACAD
1000
AcDbSavedByObjectVersion
1070
     0
  0
ACAD_PROXY_OBJECT
  5
33
102
{ACAD_REACTORS
330
2A
102
}
330
2A
100
AcDbZombieObject
 90
      499
 91
      501
 93
      420
310
425499585B1A5CDD1A58D08409028333333333333E3BF0000000000000FB01079019070040501508421405064090741402480A1B40
1001
ACAD
1000
AcDbSavedByObjectVersion
1070
     0
  0
ACAD_PROXY_OBJECT
  5
37
102
{ACAD_REACTORS
330
2A
102
}
330
2A
100
AcDbZombieObject
 90
      499
 91
      501
 93
      412
310
41D51A1A58DAD95B90D409028333333333333E3BF0000000000000FB010790141107004050150C41D405064090741402480A0350
1001
ACAD
1000
AcDbSavedByObjectVersion
1070
     0
  0
DICTIONARYVAR
  5
1B0
102
{ACAD_REACTORS
330
1AD
102
}
330
1AD
100
DictionaryVariables
280
     0
  1
2
  0
DICTIONARYVAR
  5
1B1
102
{ACAD_REACTORS
330
1AD
102
}
330
1AD
100
DictionaryVariables
280
     0
  1
1
  0
DICTIONARY
  5
1B4
330
3D
100
AcDbDictionary
  3
ACAD_XREC_ROUNDTRIP
360
1B5
1001
ACAD
1000
TREAT_AS_HARD
1070
     1
  0
DICTIONARY
  5
1B2
330
3C
100
AcDbDictionary
  3
ACAD_XREC_ROUNDTRIP
360
1B3
1001
ACAD
1000
TREAT_AS_HARD
1070
     1
  0
DICTIONARY
  5
1B6
330
3E
100
AcDbDictionary
  3
ACAD_XREC_ROUNDTRIP
360
1B7
1001
ACAD
1000
TREAT_AS_HARD
1070
     1
  0
XRECORD
  5
1B5
102
{ACAD_REACTORS
330
1B4
102
}
330
1B4
100
AcDbXrecord
102
MATERIAL
148
0.0
149
0.0
149
0.0
 93
        0
 94
      127
282
     0
 72
     1
 77
     1
171
     1
175
     1
179
     1
273
     0
  0
XRECORD
  5
1B3
102
{ACAD_REACTORS
330
1B2
102
}
330
1B2
100
AcDbXrecord
102
MATERIAL
148
0.0
149
0.0
149
0.0
 93
        0
 94
      127
282
     0
 72
     1
 77
     1
171
     1
175
     1
179
     1
273
     0
  0
XRECORD
  5
1B7
102
{ACAD_REACTORS
330
1B6
102
}
330
1B6
100
AcDbXrecord
102
MATERIAL
148
0.0
149
0.0
149
0.0
 93
        0
 94
      127
282
     0
 72
     1
 77
     1
171
     1
175
     1
179
     1
273
     0
  0
ENDSEC
  0
EOF
