<?xml version="1.0" encoding="utf-8"?>
<!-- Generator: Adobe Illustrator 24.0.0, SVG Export Plug-In . SVG Version: 6.00 Build 0)  -->
<svg version="1.0" id="top-plate" xmlns="http://www.w3.org/2000/svg" xmlns:xlink="http://www.w3.org/1999/xlink" x="0px" y="0px"
	 viewBox="0 0 141.7 141.7" style="enable-background:new 0 0 141.7 141.7;" xml:space="preserve">
<style type="text/css">
	.st0{fill:none;stroke:#000000;stroke-width:0.2551;stroke-linecap:round;stroke-linejoin:round;stroke-miterlimit:10;}
</style>
<g id="POLYLINE_30_">
	<polyline class="st0" points="271.6,88.1 271.5,87.5 271.4,86.9 271.2,86.3 270.9,85.8 270.6,85.3 270.2,84.8 269.8,84.4 269.3,84 
		268.8,83.7 268.2,83.4 265.2,82.1 261.9,80.7 258.5,79.3 255,77.8 251.3,76.3 247.4,74.7 243.4,73.1 239.2,71.5 234.9,69.9 
		230.5,68.2 225.9,66.6 221.2,64.9 216.4,63.3 211.5,61.7 206.5,60.1 201.4,58.5 196.2,57 190.8,55.5 185.5,54.1 180,52.7 
		174.5,51.4 168.8,50.2 163.2,49.1 157.4,48 151.6,47.1 145.8,46.2 139.9,45.5 134,44.9 128.1,44.4 122.1,44 116.1,43.8 110.1,43.7 
		109.7,43.7 109,43.7 108.2,43.7 107.1,43.7 105.9,43.7 104.5,43.7 103,43.7 101.3,43.7 99.5,43.7 97.6,43.7 95.5,43.7 93.4,43.7 
		91.3,43.7 89,43.7 86.8,43.7 84.5,43.7 82.2,43.7 79.9,43.7 77.6,43.7 75.4,43.7 73.2,43.7 71,43.7 69,43.7 67,43.7 65.1,43.7 
		63.4,43.7 61.8,43.7 60.3,43.7 59,43.7 57.9,43.7 56.9,43.7 56.2,43.7 54.9,43.7 53.5,43.7 52.2,43.8 50.7,43.8 49.3,43.8 
		47.8,43.9 46.3,44 44.7,44.1 43.2,44.2 41.5,44.3 39.9,44.4 38.3,44.6 36.6,44.8 34.9,45 33.2,45.2 31.4,45.5 29.7,45.8 27.9,46.1 
		26.1,46.4 24.3,46.7 22.5,47.1 20.7,47.6 18.8,48 17,48.5 15.2,49 13.3,49.6 11.5,50.1 9.7,50.8 7.8,51.4 6,52.1 4.2,52.9 
		2.3,53.6 1.8,53.9 1.2,54.1 0.6,54.4 0,54.7 -0.7,55.1 -1.5,55.4 -2.2,55.8 -3,56.2 -3.8,56.6 -4.7,57 -5.6,57.4 -6.5,57.8 
		-7.4,58.2 -8.3,58.6 -9.3,59.1 -10.2,59.5 -11.2,59.9 -12.2,60.3 -13.2,60.7 -14.2,61 -15.2,61.4 -16.2,61.7 -17.2,62 -18.2,62.3 
		-19.2,62.6 -20.2,62.9 -21.2,63.1 -22.2,63.2 -23.2,63.4 -24.1,63.5 -25,63.5 -26,63.6 -123.3,63.6 -123.9,63.6 -124.4,63.7 
		-125.3,63.9 -126,64.2 -126.7,64.7 -127.3,65.2 -127.8,65.8 -128.3,66.5 -128.6,67.3 -128.9,68.1 -128.9,68.7 -129,69.2 
		-129,300.8 -129,301.6 -128.9,302.4 -128.8,303.3 -128.8,304.1 -128.6,304.9 -128.5,305.8 -128.3,306.6 -128.1,307.4 -127.9,308.2 
		-127.6,309 -127.3,309.8 -127,310.6 -126.7,311.3 -126.3,312.1 -125.9,312.8 -125.5,313.6 -91.1,373.2 -90.8,373.7 -90.4,374.2 
		-89.8,374.8 -89.1,375.2 -88.4,375.6 -87.6,375.9 -86.8,376 -86,376.1 -85.2,376 -84.4,375.8 -83.8,375.6 -83.3,375.3 2.1,326 
		2.8,325.7 3.4,325.3 4.1,325 4.8,324.7 5.5,324.4 6.2,324.2 6.9,323.9 7.7,323.7 8.4,323.5 9.1,323.4 9.9,323.2 10.6,323.1 
		11.4,323.1 12.1,323 12.9,323 13.6,322.9 153.5,322.9 158.3,322.9 163,322.8 167.7,322.5 172.4,322.2 177.1,321.8 181.7,321.4 
		186.3,320.9 190.8,320.3 195.3,319.7 199.7,319 204.1,318.3 208.3,317.5 212.5,316.7 216.6,315.9 220.6,315 224.5,314.2 
		228.3,313.3 231.9,312.4 235.5,311.5 238.9,310.6 242.2,309.7 245.4,308.8 248.4,307.9 251.2,307.1 253.9,306.3 256.4,305.5 
		258.8,304.7 261,304 263,303.3 264.8,302.7 266.4,302.2 267.8,301.7 268.2,301.5 268.8,301.2 269.4,300.8 269.9,300.4 270.3,299.9 
		270.7,299.4 271,298.8 271.3,298.2 271.5,297.6 271.6,296.9 271.6,296.2 271.6,88.5 271.6,88.1 	"/>
</g>
<g id="SPLINE_6_">
	<ellipse class="st0" cx="217.8" cy="138.6" rx="3" ry="2.9"/>
</g>
<g id="SPLINE_7_">
	<ellipse class="st0" cx="217.8" cy="246.3" rx="3" ry="2.9"/>
</g>
<g id="SPLINE_8_">
	<ellipse class="st0" cx="-0.4" cy="223.6" rx="3" ry="2.9"/>
</g>
<g id="SPLINE_9_">
	<ellipse class="st0" cx="-0.4" cy="115.9" rx="3" ry="2.9"/>
</g>
<g id="SPLINE_10_">
	<ellipse class="st0" cx="-65" cy="287.6" rx="3" ry="2.9"/>
</g>
</svg>
